<svg width="1920" height="454" viewBox="0 0 1920 454" fill="none" xmlns="http://www.w3.org/2000/svg">
<g clip-path="url(#clip0)">
<path d="M0 207.9C72 192.1 259.6 148.4 328.5 135.6H412H525C545.4 139.6 620.7 154.9 639.5 156.5C652.6 162 704 183.5 716.5 186.5C716.5 186.5 753.5 188.3 771.5 189.2C821.5 189.1 885.5 154.9 931.5 140.1C936.5 138.3 987.5 126.5 987.5 126.5L1039.5 122C1039.5 122 1122.5 132 1134.5 133.8C1146.5 135.6 1163.5 135.6 1167.5 136.5C1171.5 137.4 1272.5 105.6 1283.5 101.9C1294.5 98.2999 1345.5 81.8999 1345.5 81.8999L1430 66.8999L1522.5 80.0999L1559.5 90.0999L1609.5 114.7L1706 137.4C1706 137.4 1757.5 134.7 1770 137.4C1813.2 144.4 1884 149.6 1920 160.6V454H0V207.9Z" fill="#788A74"/>
<path d="M69.9999 67C69.9999 67 61.2999 98.8 48.0999 106.7C48.0999 106.7 44.3999 114.6 55.4999 108.8C55.4999 108.8 55.4999 115.4 41.8999 125.7C41.8999 125.7 36.8999 132.3 52.5999 128.2C52.5999 128.2 43.0999 139.8 33.9999 143.5C33.9999 143.5 27.3999 150.9 45.1999 146.4C45.1999 146.4 49.6999 146 38.9999 157.1C38.9999 157.1 36.4999 162.9 48.0999 157.1L26.1999 176.1C26.1999 176.1 20.7999 186 39.3999 178.6C39.3999 178.6 35.2999 189.3 12.0999 202.6C12.0999 202.6 7.99994 209.2 29.8999 202.6C29.8999 202.6 34.9999 204.5 23.5999 219.9C23.5999 219.9 21.6999 223.3 44.3999 213.8C44.3999 213.8 42.6999 224.1 46.0999 226.6C49.3999 229.1 59.6999 217.5 59.6999 217.5C59.6999 217.5 65.0999 217.5 58.8999 234C58.8999 234 53.4999 236.5 90.2999 236.1C90.2999 236.1 103.5 236.5 93.9999 225.4C93.9999 225.4 91.7999 210.3 99.8999 219.9C99.8999 219.9 119.2 232.4 110.5 213.8C110.5 213.8 142.7 224.1 124.1 206.8C124.1 206.8 124.9 203.1 144.3 208C144.3 208 149.3 198.5 124.5 186.1C124.5 186.1 135.2 183.2 120.4 172.9C120.4 172.9 145.2 179.5 124.5 163.8C124.5 163.8 100.5 151 124.1 156.4C147.7 161.8 103.4 131.6 103.4 131.6C103.4 131.6 118.7 136.6 104.2 123.3C104.2 123.3 101.7 117.1 115.4 124.1C115.4 124.1 117.1 118.7 93.8999 101.8C93.8999 101.8 85.5999 99.3 95.5999 97.7C95.5999 97.7 103 97.7 80.2999 79.1L69.9999 67Z" fill="#788A74"/>
<path d="M826.1 135C826.1 135 834.8 166.8 848 174.7C848 174.7 851.7 182.6 840.6 176.8C840.6 176.8 840.6 183.4 854.2 193.7C854.2 193.7 859.2 200.3 843.5 196.2C843.5 196.2 853 207.8 862.1 211.5C862.1 211.5 868.7 218.9 850.9 214.4C850.9 214.4 846.4 214 857.1 225.1C857.1 225.1 859.6 230.9 848 225.1L869.9 244.1C869.9 244.1 875.3 254 856.7 246.6C856.7 246.6 860.8 257.3 884 270.6C884 270.6 888.1 277.2 866.2 270.6C866.2 270.6 861.1 272.5 872.5 287.9C872.5 287.9 874.4 291.3 851.7 281.8C851.7 281.8 853.4 292.1 850 294.6C846.7 297.1 836.4 285.5 836.4 285.5C836.4 285.5 831 285.5 837.2 302C837.2 302 842.6 304.5 805.8 304.1C805.8 304.1 792.6 304.5 802.1 293.4C802.1 293.4 804.3 278.3 796.2 287.9C796.2 287.9 776.9 300.4 785.6 281.8C785.6 281.8 753.4 292.1 772 274.8C772 274.8 771.2 271.1 751.8 276C751.8 276 746.8 266.5 771.6 254.1C771.6 254.1 760.9 251.2 775.7 240.9C775.7 240.9 750.9 247.5 771.6 231.8C771.6 231.8 795.6 219 772 224.4C748.4 229.8 792.7 199.6 792.7 199.6C792.7 199.6 777.4 204.6 791.9 191.3C791.9 191.3 794.4 185.1 780.7 192.1C780.7 192.1 779 186.7 802.2 169.8C802.2 169.8 810.5 167.3 800.5 165.7C800.5 165.7 793.1 165.7 815.8 147.1L826.1 135Z" fill="#788A74"/>
<path d="M423.8 103C423.8 103 421.1 112.8 417.1 115.2C417.1 115.2 416 117.6 419.4 115.8C419.4 115.8 419.4 117.8 415.2 121C415.2 121 413.7 123 418.5 121.8C418.5 121.8 415.6 125.4 412.8 126.5C412.8 126.5 410.8 128.8 416.2 127.4C416.2 127.4 417.6 127.3 414.3 130.7C414.3 130.7 413.5 132.5 417.1 130.7L410.4 136.6C410.4 136.6 408.7 139.7 414.5 137.4C414.5 137.4 413.2 140.7 406.1 144.8C406.1 144.8 404.8 146.8 411.6 144.8C411.6 144.8 413.2 145.4 409.6 150.1C409.6 150.1 409 151.1 416 148.2C416 148.2 415.5 151.4 416.5 152.1C417.5 152.9 420.7 149.3 420.7 149.3C420.7 149.3 422.4 149.3 420.4 154.4C420.4 154.4 418.7 155.2 430.1 155C430.1 155 434.2 155.1 431.2 151.7C431.2 151.7 430.5 147.1 433 150C433 150 438.9 153.8 436.3 148.1C436.3 148.1 446.2 151.3 440.5 145.9C440.5 145.9 440.8 144.8 446.7 146.3C446.7 146.3 448.2 143.4 440.6 139.6C440.6 139.6 443.9 138.7 439.3 135.5C439.3 135.5 446.9 137.5 440.6 132.7C440.6 132.7 433.2 128.8 440.5 130.4C447.8 132.1 434.1 122.8 434.1 122.8C434.1 122.8 438.8 124.3 434.4 120.3C434.4 120.3 433.6 118.4 437.8 120.6C437.8 120.6 438.3 118.9 431.2 113.7C431.2 113.7 428.7 112.9 431.7 112.4C431.7 112.4 434 112.4 427 106.7L423.8 103Z" fill="#788A74"/>
<path d="M1306 45C1306 45 1297.3 76.8 1284.1 84.7C1284.1 84.7 1280.4 92.6 1291.5 86.8C1291.5 86.8 1291.5 93.4 1277.9 103.7C1277.9 103.7 1272.9 110.3 1288.6 106.2C1288.6 106.2 1279.1 117.8 1270 121.5C1270 121.5 1263.4 128.9 1281.2 124.4C1281.2 124.4 1285.7 124 1275 135.1C1275 135.1 1272.5 140.9 1284.1 135.1L1262.2 154.1C1262.2 154.1 1256.8 164 1275.4 156.6C1275.4 156.6 1271.3 167.3 1248.1 180.6C1248.1 180.6 1244 187.2 1265.9 180.6C1265.9 180.6 1271 182.5 1259.6 197.9C1259.6 197.9 1257.7 201.3 1280.4 191.8C1280.4 191.8 1278.7 202.1 1282.1 204.6C1285.4 207.1 1295.7 195.5 1295.7 195.5C1295.7 195.5 1301.1 195.5 1294.9 212C1294.9 212 1289.5 214.5 1326.3 214.1C1326.3 214.1 1339.5 214.5 1330 203.4C1330 203.4 1327.8 188.3 1335.9 197.9C1335.9 197.9 1355.2 210.4 1346.5 191.8C1346.5 191.8 1378.7 202.1 1360.1 184.8C1360.1 184.8 1360.9 181.1 1380.3 186C1380.3 186 1385.3 176.5 1360.5 164.1C1360.5 164.1 1371.2 161.2 1356.4 150.9C1356.4 150.9 1381.2 157.5 1360.5 141.8C1360.5 141.8 1336.5 129 1360.1 134.4C1383.7 139.8 1339.4 109.6 1339.4 109.6C1339.4 109.6 1354.7 114.6 1340.2 101.3C1340.2 101.3 1337.7 95.1 1351.4 102.1C1351.4 102.1 1353.1 96.7 1329.9 79.8C1329.9 79.8 1321.6 77.3 1331.6 75.7C1331.6 75.7 1339 75.7 1316.3 57.1L1306 45Z" fill="#788A74"/>
<path d="M1040.7 68.8999C1040.7 68.8999 1036.8 83.0999 1031 86.4999C1031 86.4999 1029.3 89.9999 1034.3 87.3999C1034.3 87.3999 1034.3 90.2999 1028.2 94.8999C1028.2 94.8999 1026 97.7999 1033 95.9999C1033 95.9999 1028.8 101.1 1024.7 102.8C1024.7 102.8 1021.8 106.1 1029.7 104.1C1029.7 104.1 1031.7 103.9 1026.9 108.9C1026.9 108.9 1025.8 111.5 1030.9 108.9L1021.2 117.4C1021.2 117.4 1018.8 121.8 1027.1 118.5C1027.1 118.5 1025.3 123.3 1015 129.2C1015 129.2 1013.2 132.1 1022.9 129.2C1022.9 129.2 1025.2 130 1020.1 136.9C1020.1 136.9 1019.2 138.4 1029.4 134.2C1029.4 134.2 1028.7 138.8 1030.1 139.9C1031.6 141 1036.2 135.9 1036.2 135.9C1036.2 135.9 1038.6 135.9 1035.8 143.3C1035.8 143.3 1033.4 144.4 1049.8 144.2C1049.8 144.2 1055.7 144.4 1051.5 139.4C1051.5 139.4 1050.5 132.7 1054.1 137C1054.1 137 1062.7 142.6 1058.8 134.3C1058.8 134.3 1073.1 138.9 1064.9 131.2C1064.9 131.2 1065.3 129.5 1073.9 131.8C1073.9 131.8 1076.1 127.6 1065.1 122.1C1065.1 122.1 1069.9 120.8 1063.3 116.2C1063.3 116.2 1074.3 119.1 1065.1 112.2C1065.1 112.2 1054.4 106.5 1064.9 108.9C1075.4 111.3 1055.7 97.8999 1055.7 97.8999C1055.7 97.8999 1062.5 100.1 1056.1 94.1999C1056.1 94.1999 1055 91.3999 1061.1 94.5999C1061.1 94.5999 1061.8 92.1999 1051.5 84.6999C1051.5 84.6999 1047.8 83.5999 1052.2 82.8999C1052.2 82.8999 1055.5 82.8999 1045.4 74.5999L1040.7 68.8999Z" fill="#788A74"/>
<path d="M1747 0C1747 0 1738.3 31.8 1725.1 39.7C1725.1 39.7 1721.4 47.6 1732.5 41.8C1732.5 41.8 1732.5 48.4 1718.9 58.7C1718.9 58.7 1713.9 65.3 1729.6 61.2C1729.6 61.2 1720.1 72.8 1711 76.5C1711 76.5 1704.4 83.9 1722.2 79.4C1722.2 79.4 1726.7 79 1716 90.1C1716 90.1 1713.5 95.9 1725.1 90.1L1703.2 109.1C1703.2 109.1 1697.8 119 1716.4 111.6C1716.4 111.6 1712.3 122.3 1689.1 135.6C1689.1 135.6 1685 142.2 1706.9 135.6C1706.9 135.6 1712 137.5 1700.6 152.9C1700.6 152.9 1698.7 156.3 1721.4 146.8C1721.4 146.8 1719.7 157.1 1723.1 159.6C1726.4 162.1 1736.7 150.5 1736.7 150.5C1736.7 150.5 1742.1 150.5 1735.9 167C1735.9 167 1730.5 169.5 1767.3 169.1C1767.3 169.1 1780.5 169.5 1771 158.4C1771 158.4 1768.8 143.3 1776.9 152.9C1776.9 152.9 1796.2 165.4 1787.5 146.8C1787.5 146.8 1819.7 157.1 1801.1 139.8C1801.1 139.8 1801.9 136.1 1821.3 141C1821.3 141 1826.3 131.5 1801.5 119.1C1801.5 119.1 1812.2 116.2 1797.4 105.9C1797.4 105.9 1822.2 112.5 1801.5 96.8C1801.5 96.8 1777.5 84 1801.1 89.4C1824.7 94.8 1780.4 64.6 1780.4 64.6C1780.4 64.6 1795.7 69.6 1781.2 56.3C1781.2 56.3 1778.7 50.1 1792.4 57.1C1792.4 57.1 1794.1 51.7 1770.9 34.8C1770.9 34.8 1762.6 32.3 1772.6 30.7C1772.6 30.7 1780 30.7 1757.3 12.1L1747 0Z" fill="#788A74"/>
<path d="M1512.8 129.7C1512.8 129.7 1519.3 153.4 1529.1 159.2C1529.1 159.2 1531.9 165 1523.6 160.7C1523.6 160.7 1523.6 165.6 1533.7 173.3C1533.7 173.3 1537.4 178.2 1525.7 175.1C1525.7 175.1 1532.8 183.7 1539.5 186.5C1539.5 186.5 1544.4 192 1531.2 188.7C1531.2 188.7 1527.8 188.4 1535.8 196.7C1535.8 196.7 1537.6 201 1529 196.7L1545.3 210.8C1545.3 210.8 1549.3 218.2 1535.5 212.6C1535.5 212.6 1538.6 220.6 1555.8 230.4C1555.8 230.4 1558.9 235.3 1542.6 230.4C1542.6 230.4 1538.8 231.8 1547.3 243.2C1547.3 243.2 1548.7 245.7 1531.8 238.7C1531.8 238.7 1533 246.4 1530.6 248.2C1528.1 250 1520.5 241.4 1520.5 241.4C1520.5 241.4 1516.5 241.4 1521.1 253.7C1521.1 253.7 1525.1 255.5 1497.8 255.2C1497.8 255.2 1488 255.5 1495 247.2C1495 247.2 1496.6 236 1490.6 243.1C1490.6 243.1 1476.3 252.4 1482.7 238.6C1482.7 238.6 1458.7 246.3 1472.6 233.4C1472.6 233.4 1472 230.6 1457.5 234.3C1457.5 234.3 1453.8 227.2 1472.2 218C1472.2 218 1464.2 215.8 1475.3 208.2C1475.3 208.2 1456.9 213.1 1472.2 201.4C1472.2 201.4 1490 191.9 1472.5 195.9C1455 199.9 1487.9 177.5 1487.9 177.5C1487.9 177.5 1476.5 181.2 1487.3 171.4C1487.3 171.4 1489.1 166.8 1479 172C1479 172 1477.8 168 1495 155.4C1495 155.4 1501.1 153.6 1493.8 152.3C1493.8 152.3 1488.3 152.3 1505.2 138.5L1512.8 129.7Z" fill="#788A74"/>
<path d="M367.3 82.8C367.3 82.8 362.8 99.3 356 103.3C356 103.3 354.1 107.4 359.9 104.4C359.9 104.4 359.9 107.8 352.8 113.2C352.8 113.2 350.2 116.6 358.4 114.5C358.4 114.5 353.5 120.5 348.8 122.4C348.8 122.4 345.4 126.3 354.6 123.9C354.6 123.9 357 123.7 351.4 129.5C351.4 129.5 350.1 132.5 356.1 129.5L344.8 139.3C344.8 139.3 342 144.4 351.6 140.6C351.6 140.6 349.5 146.2 337.5 153C337.5 153 335.4 156.4 346.7 153C346.7 153 349.3 154 343.4 161.9C343.4 161.9 342.4 163.7 354.2 158.7C354.2 158.7 353.3 164 355.1 165.3C356.8 166.6 362.2 160.6 362.2 160.6C362.2 160.6 365 160.6 361.8 169.2C361.8 169.2 359 170.5 378.1 170.3C378.1 170.3 384.9 170.5 380 164.7C380 164.7 378.9 156.9 383.1 161.9C383.1 161.9 393.1 168.4 388.6 158.7C388.6 158.7 405.3 164 395.7 155.1C395.7 155.1 396.1 153.2 406.2 155.7C406.2 155.7 408.8 150.8 395.9 144.4C395.9 144.4 401.5 142.9 393.8 137.6C393.8 137.6 406.6 141 395.9 132.9C395.9 132.9 383.5 126.3 395.7 129C407.9 131.8 385 116.2 385 116.2C385 116.2 392.9 118.8 385.4 111.9C385.4 111.9 384.1 108.7 391.2 112.3C391.2 112.3 392.1 109.5 380.1 100.7C380.1 100.7 375.8 99.4 381 98.6C381 98.6 384.9 98.6 373.1 89L367.3 82.8Z" fill="#788A74"/>
<path d="M147.3 110.8C147.3 110.8 142.8 127.3 136 131.3C136 131.3 134.1 135.4 139.9 132.4C139.9 132.4 139.9 135.8 132.8 141.2C132.8 141.2 130.2 144.6 138.4 142.5C138.4 142.5 133.5 148.5 128.8 150.4C128.8 150.4 125.4 154.3 134.6 151.9C134.6 151.9 137 151.7 131.4 157.5C131.4 157.5 130.1 160.5 136.1 157.5L124.8 167.3C124.8 167.3 122 172.4 131.6 168.6C131.6 168.6 129.5 174.2 117.5 181C117.5 181 115.4 184.4 126.7 181C126.7 181 129.3 182 123.4 189.9C123.4 189.9 122.4 191.7 134.2 186.7C134.2 186.7 133.3 192 135.1 193.3C136.9 194.6 142.2 188.6 142.2 188.6C142.2 188.6 145 188.6 141.8 197.2C141.8 197.2 139 198.5 158.1 198.3C158.1 198.3 164.9 198.5 160 192.7C160 192.7 158.9 184.9 163.1 189.9C163.1 189.9 173.1 196.4 168.6 186.7C168.6 186.7 185.3 192 175.7 183.1C175.7 183.1 176.1 181.2 186.2 183.7C186.2 183.7 188.8 178.8 175.9 172.4C175.9 172.4 181.5 170.9 173.8 165.6C173.8 165.6 186.6 169 175.9 160.9C175.9 160.9 163.5 154.3 175.7 157C187.9 159.8 165 144.2 165 144.2C165 144.2 172.9 146.8 165.4 139.9C165.4 139.9 164.1 136.7 171.2 140.3C171.2 140.3 172.1 137.5 160.1 128.7C160.1 128.7 155.8 127.4 161 126.6C161 126.6 164.9 126.6 153.1 117L147.3 110.8Z" fill="#788A74"/>
<path d="M0 217.7C1.1 216.7 1.9 215.7 1.9 215.7C1.9 215.7 4.7 215.7 1.5 224.3C1.5 224.3 -1.3 225.6 17.8 225.4C17.8 225.4 24.6 225.6 19.7 219.8C19.7 219.8 18.6 212 22.8 217C22.8 217 32.8 223.5 28.3 213.8C28.3 213.8 45 219.1 35.4 210.2C35.4 210.2 35.8 208.3 45.9 210.8C45.9 210.8 48.5 205.9 35.6 199.5C35.6 199.5 41.2 198 33.5 192.7C33.5 192.7 46.3 196.1 35.6 188C35.6 188 23.2 181.4 35.4 184.1C47.6 186.9 24.7 171.3 24.7 171.3C24.7 171.3 32.6 173.9 25.1 167C25.1 167 23.8 163.8 30.9 167.4C30.9 167.4 31.8 164.6 19.8 155.8C19.8 155.8 15.5 154.5 20.7 153.7C20.7 153.7 24.6 153.7 12.8 144.1L7.5 137.9C7.5 137.9 4.7 148.1 0.2 154.4" fill="#788A74"/>
<path d="M1121.9 90.8C1121.9 90.8 1126.4 107.3 1133.2 111.3C1133.2 111.3 1135.1 115.4 1129.3 112.4C1129.3 112.4 1129.3 115.8 1136.4 121.2C1136.4 121.2 1139 124.6 1130.8 122.5C1130.8 122.5 1135.7 128.5 1140.4 130.4C1140.4 130.4 1143.8 134.3 1134.6 131.9C1134.6 131.9 1132.2 131.7 1137.8 137.5C1137.8 137.5 1139.1 140.5 1133.1 137.5L1144.4 147.3C1144.4 147.3 1147.2 152.4 1137.6 148.6C1137.6 148.6 1139.7 154.2 1151.7 161C1151.7 161 1153.8 164.4 1142.5 161C1142.5 161 1139.9 162 1145.8 169.9C1145.8 169.9 1146.8 171.7 1135 166.7C1135 166.7 1135.9 172 1134.1 173.3C1132.3 174.6 1127 168.6 1127 168.6C1127 168.6 1124.2 168.6 1127.4 177.2C1127.4 177.2 1130.2 178.5 1111.1 178.3C1111.1 178.3 1104.3 178.5 1109.2 172.7C1109.2 172.7 1110.3 164.9 1106.1 169.9C1106.1 169.9 1096.1 176.4 1100.6 166.7C1100.6 166.7 1083.9 172 1093.5 163.1C1093.5 163.1 1093.1 161.2 1083 163.7C1083 163.7 1080.4 158.8 1093.3 152.4C1093.3 152.4 1087.7 150.9 1095.4 145.6C1095.4 145.6 1082.6 149 1093.3 140.9C1093.3 140.9 1105.7 134.3 1093.5 137C1081.3 139.8 1104.2 124.2 1104.2 124.2C1104.2 124.2 1096.3 126.8 1103.8 119.9C1103.8 119.9 1105.1 116.7 1098 120.3C1098 120.3 1097.1 117.5 1109.1 108.7C1109.1 108.7 1113.4 107.4 1108.2 106.6C1108.2 106.6 1104.3 106.6 1116.1 97L1121.9 90.8Z" fill="#788A74"/>
<path d="M1177.9 104.1C1177.9 104.1 1180.9 115.1 1185.5 117.8C1185.5 117.8 1186.8 120.5 1182.9 118.5C1182.9 118.5 1182.9 120.8 1187.6 124.3C1187.6 124.3 1189.3 126.6 1183.9 125.2C1183.9 125.2 1187.2 129.2 1190.3 130.5C1190.3 130.5 1192.6 133.1 1186.5 131.5C1186.5 131.5 1184.9 131.4 1188.6 135.2C1188.6 135.2 1189.5 137.2 1185.5 135.2L1193.1 141.8C1193.1 141.8 1195 145.2 1188.5 142.7C1188.5 142.7 1189.9 146.4 1197.9 151C1197.9 151 1199.3 153.3 1191.8 151C1191.8 151 1190 151.6 1194 156.9C1194 156.9 1194.7 158.1 1186.8 154.8C1186.8 154.8 1187.4 158.4 1186.2 159.2C1185.1 160.1 1181.5 156.1 1181.5 156.1C1181.5 156.1 1179.6 156.1 1181.8 161.8C1181.8 161.8 1183.7 162.7 1171 162.5C1171 162.5 1166.4 162.6 1169.7 158.8C1169.7 158.8 1170.5 153.6 1167.7 156.9C1167.7 156.9 1161.1 161.2 1164 154.8C1164 154.8 1152.9 158.4 1159.3 152.4C1159.3 152.4 1159 151.1 1152.3 152.8C1152.3 152.8 1150.6 149.5 1159.1 145.2C1159.1 145.2 1155.4 144.2 1160.5 140.6C1160.5 140.6 1152 142.9 1159.1 137.5C1159.1 137.5 1167.4 133.1 1159.2 134.9C1151.1 136.8 1166.3 126.4 1166.3 126.4C1166.3 126.4 1161 128.1 1166 123.6C1166 123.6 1166.9 121.5 1162.2 123.9C1162.2 123.9 1161.6 122 1169.6 116.2C1169.6 116.2 1172.4 115.3 1169 114.8C1169 114.8 1166.4 114.8 1174.3 108.4L1177.9 104.1Z" fill="#788A74"/>
<path d="M518.3 99.8C518.3 99.8 513.8 116.3 507 120.3C507 120.3 505.1 124.4 510.9 121.4C510.9 121.4 510.9 124.8 503.8 130.2C503.8 130.2 501.2 133.6 509.4 131.5C509.4 131.5 504.5 137.5 499.8 139.4C499.8 139.4 496.4 143.3 505.6 140.9C505.6 140.9 508 140.7 502.4 146.5C502.4 146.5 501.1 149.5 507.1 146.5L495.8 156.3C495.8 156.3 493 161.4 502.6 157.6C502.6 157.6 500.5 163.2 488.5 170C488.5 170 486.4 173.4 497.7 170C497.7 170 500.3 171 494.4 178.9C494.4 178.9 493.4 180.7 505.2 175.7C505.2 175.7 504.3 181 506.1 182.3C507.8 183.6 513.2 177.6 513.2 177.6C513.2 177.6 516 177.6 512.8 186.2C512.8 186.2 510 187.5 529.1 187.3C529.1 187.3 535.9 187.5 531 181.7C531 181.7 529.9 173.9 534.1 178.9C534.1 178.9 544.1 185.4 539.6 175.7C539.6 175.7 556.3 181 546.7 172.1C546.7 172.1 547.1 170.2 557.2 172.7C557.2 172.7 559.8 167.8 546.9 161.4C546.9 161.4 552.5 159.9 544.8 154.6C544.8 154.6 557.6 158 546.9 149.9C546.9 149.9 534.5 143.3 546.7 146C558.9 148.8 536 133.2 536 133.2C536 133.2 543.9 135.8 536.4 128.9C536.4 128.9 535.1 125.7 542.2 129.3C542.2 129.3 543.1 126.5 531.1 117.7C531.1 117.7 526.8 116.4 532 115.6C532 115.6 535.9 115.6 524.1 106L518.3 99.8Z" fill="#788A74"/>
<path d="M1022.9 88.8C1022.9 88.8 1027.4 105.3 1034.2 109.3C1034.2 109.3 1036.1 113.4 1030.3 110.4C1030.3 110.4 1030.3 113.8 1037.4 119.2C1037.4 119.2 1040 122.6 1031.8 120.5C1031.8 120.5 1036.7 126.5 1041.4 128.4C1041.4 128.4 1044.8 132.3 1035.6 129.9C1035.6 129.9 1033.2 129.7 1038.8 135.5C1038.8 135.5 1040.1 138.5 1034.1 135.5L1045.4 145.3C1045.4 145.3 1048.2 150.4 1038.6 146.6C1038.6 146.6 1040.7 152.2 1052.7 159C1052.7 159 1054.8 162.4 1043.5 159C1043.5 159 1040.9 160 1046.8 167.9C1046.8 167.9 1047.8 169.7 1036 164.7C1036 164.7 1036.9 170 1035.1 171.3C1033.3 172.6 1028 166.6 1028 166.6C1028 166.6 1025.2 166.6 1028.4 175.2C1028.4 175.2 1031.2 176.5 1012.1 176.3C1012.1 176.3 1005.3 176.5 1010.2 170.7C1010.2 170.7 1011.3 162.9 1007.1 167.9C1007.1 167.9 997.1 174.4 1001.6 164.7C1001.6 164.7 984.9 170 994.5 161.1C994.5 161.1 994.1 159.2 984 161.7C984 161.7 981.4 156.8 994.3 150.4C994.3 150.4 988.7 148.9 996.4 143.6C996.4 143.6 983.6 147 994.3 138.9C994.3 138.9 1006.7 132.3 994.5 135C982.3 137.8 1005.2 122.2 1005.2 122.2C1005.2 122.2 997.3 124.8 1004.8 117.9C1004.8 117.9 1006.1 114.7 999 118.3C999 118.3 998.1 115.5 1010.1 106.7C1010.1 106.7 1014.4 105.4 1009.2 104.6C1009.2 104.6 1005.3 104.6 1017.1 95L1022.9 88.8Z" fill="#788A74"/>
<path d="M574.3 99.8C574.3 99.8 569.8 116.3 563 120.3C563 120.3 561.1 124.4 566.9 121.4C566.9 121.4 566.9 124.8 559.8 130.2C559.8 130.2 557.2 133.6 565.4 131.5C565.4 131.5 560.5 137.5 555.8 139.4C555.8 139.4 552.4 143.3 561.6 140.9C561.6 140.9 564 140.7 558.4 146.5C558.4 146.5 557.1 149.5 563.1 146.5L551.8 156.3C551.8 156.3 549 161.4 558.6 157.6C558.6 157.6 556.5 163.2 544.5 170C544.5 170 542.4 173.4 553.7 170C553.7 170 556.3 171 550.4 178.9C550.4 178.9 549.4 180.7 561.2 175.7C561.2 175.7 560.3 181 562.1 182.3C563.8 183.6 569.2 177.6 569.2 177.6C569.2 177.6 572 177.6 568.8 186.2C568.8 186.2 566 187.5 585.1 187.3C585.1 187.3 591.9 187.5 587 181.7C587 181.7 585.9 173.9 590.1 178.9C590.1 178.9 600.1 185.4 595.6 175.7C595.6 175.7 612.3 181 602.7 172.1C602.7 172.1 603.1 170.2 613.2 172.7C613.2 172.7 615.8 167.8 602.9 161.4C602.9 161.4 608.5 159.9 600.8 154.6C600.8 154.6 613.6 158 602.9 149.9C602.9 149.9 590.5 143.3 602.7 146C614.9 148.8 592 133.2 592 133.2C592 133.2 599.9 135.8 592.4 128.9C592.4 128.9 591.1 125.7 598.2 129.3C598.2 129.3 599.1 126.5 587.1 117.7C587.1 117.7 582.8 116.4 588 115.6C588 115.6 591.9 115.6 580.1 106L574.3 99.8Z" fill="#788A74"/>
<path d="M661.9 119.1C661.9 119.1 656.1 129.1 650.9 130.5C650.9 130.5 648.9 132.8 653.2 131.9C653.2 131.9 652.6 134.1 647.1 136.4C647.1 136.4 644.8 138.2 650.5 138.2C650.5 138.2 646.3 141.3 642.8 141.7C642.8 141.7 639.9 143.6 646.3 143.7C646.3 143.7 647.9 144 643.2 146.8C643.2 146.8 641.8 148.5 646.3 147.6L637.2 152.1C637.2 152.1 634.5 155 641.4 154.1C641.4 154.1 639 157.4 630 159.8C630 159.8 628 161.7 636 161.4C636 161.4 637.6 162.5 632.3 166.7C632.3 166.7 631.3 167.7 639.9 166.5C639.9 166.5 638.4 169.8 639.3 171C640.2 172.1 644.7 169.1 644.7 169.1C644.7 169.1 646.5 169.6 642.9 174.6C642.9 174.6 640.9 175 653.3 178.1C653.3 178.1 657.7 179.4 655.5 174.8C655.5 174.8 656.1 169.5 658 173.5C658 173.5 663.4 179.5 662.1 172.4C662.1 172.4 672.1 178.8 667.3 171.2C667.3 171.2 667.9 170 674 173.4C674 173.4 676.5 170.6 669.3 164.2C669.3 164.2 673.2 164.2 669.1 159.4C669.1 159.4 676.9 163.9 671.3 156.7C671.3 156.7 664.3 150.2 671.8 154.1C679.3 158 667 143.9 667 143.9C667 143.9 671.7 146.9 668 141.2C668 141.2 667.7 138.9 671.7 142.5C671.7 142.5 672.7 140.8 666.4 133C666.4 133 663.8 131.4 667.3 131.8C667.3 131.8 669.8 132.5 663.8 124.1L661.9 119.1Z" fill="#788A74"/>
<path d="M883.3 110.8C883.3 110.8 878.8 127.3 872 131.3C872 131.3 870.1 135.4 875.9 132.4C875.9 132.4 875.9 135.8 868.8 141.2C868.8 141.2 866.2 144.6 874.4 142.5C874.4 142.5 869.5 148.5 864.8 150.4C864.8 150.4 861.4 154.3 870.6 151.9C870.6 151.9 873 151.7 867.4 157.5C867.4 157.5 866.1 160.5 872.1 157.5L860.8 167.3C860.8 167.3 858 172.4 867.6 168.6C867.6 168.6 865.5 174.2 853.5 181C853.5 181 851.4 184.4 862.7 181C862.7 181 865.3 182 859.4 189.9C859.4 189.9 858.4 191.7 870.2 186.7C870.2 186.7 869.3 192 871.1 193.3C872.8 194.6 878.2 188.6 878.2 188.6C878.2 188.6 881 188.6 877.8 197.2C877.8 197.2 875 198.5 894.1 198.3C894.1 198.3 900.9 198.5 896 192.7C896 192.7 894.9 184.9 899.1 189.9C899.1 189.9 909.1 196.4 904.6 186.7C904.6 186.7 921.3 192 911.7 183.1C911.7 183.1 912.1 181.2 922.2 183.7C922.2 183.7 924.8 178.8 911.9 172.4C911.9 172.4 917.5 170.9 909.8 165.6C909.8 165.6 922.6 169 911.9 160.9C911.9 160.9 899.5 154.3 911.7 157C923.9 159.8 901 144.2 901 144.2C901 144.2 908.9 146.8 901.4 139.9C901.4 139.9 900.1 136.7 907.2 140.3C907.2 140.3 908.1 137.5 896.1 128.7C896.1 128.7 891.8 127.4 897 126.6C897 126.6 900.9 126.6 889.1 117L883.3 110.8Z" fill="#788A74"/>
<path d="M791.3 132.8C791.3 132.8 786.8 149.3 780 153.3C780 153.3 778.1 157.4 783.9 154.4C783.9 154.4 783.9 157.8 776.8 163.2C776.8 163.2 774.2 166.6 782.4 164.5C782.4 164.5 777.5 170.5 772.8 172.4C772.8 172.4 769.4 176.3 778.6 173.9C778.6 173.9 781 173.7 775.4 179.5C775.4 179.5 774.1 182.5 780.1 179.5L768.8 189.3C768.8 189.3 766 194.4 775.6 190.6C775.6 190.6 773.5 196.2 761.5 203C761.5 203 759.4 206.4 770.7 203C770.7 203 773.3 204 767.4 211.9C767.4 211.9 766.4 213.7 778.2 208.7C778.2 208.7 777.3 214 779.1 215.3C780.8 216.6 786.2 210.6 786.2 210.6C786.2 210.6 789 210.6 785.8 219.2C785.8 219.2 783 220.5 802.1 220.3C802.1 220.3 808.9 220.5 804 214.7C804 214.7 802.9 206.9 807.1 211.9C807.1 211.9 817.1 218.4 812.6 208.7C812.6 208.7 829.3 214 819.7 205.1C819.7 205.1 820.1 203.2 830.2 205.7C830.2 205.7 832.8 200.8 819.9 194.4C819.9 194.4 825.5 192.9 817.8 187.6C817.8 187.6 830.6 191 819.9 182.9C819.9 182.9 807.5 176.3 819.7 179C831.9 181.8 809 166.2 809 166.2C809 166.2 816.9 168.8 809.4 161.9C809.4 161.9 808.1 158.7 815.2 162.3C815.2 162.3 816.1 159.5 804.1 150.7C804.1 150.7 799.8 149.4 805 148.6C805 148.6 808.9 148.6 797.1 139L791.3 132.8Z" fill="#788A74"/>
<path d="M830.3 122.8C830.3 122.8 825.8 139.3 819 143.3C819 143.3 817.1 147.4 822.9 144.4C822.9 144.4 822.9 147.8 815.8 153.2C815.8 153.2 813.2 156.6 821.4 154.5C821.4 154.5 816.5 160.5 811.8 162.4C811.8 162.4 808.4 166.3 817.6 163.9C817.6 163.9 820 163.7 814.4 169.5C814.4 169.5 813.1 172.5 819.1 169.5L807.8 179.3C807.8 179.3 805 184.4 814.6 180.6C814.6 180.6 812.5 186.2 800.5 193C800.5 193 798.4 196.4 809.7 193C809.7 193 812.3 194 806.4 201.9C806.4 201.9 805.4 203.7 817.2 198.7C817.2 198.7 816.3 204 818.1 205.3C819.8 206.6 825.2 200.6 825.2 200.6C825.2 200.6 828 200.6 824.8 209.2C824.8 209.2 822 210.5 841.1 210.3C841.1 210.3 847.9 210.5 843 204.7C843 204.7 841.9 196.9 846.1 201.9C846.1 201.9 856.1 208.4 851.6 198.7C851.6 198.7 868.3 204 858.7 195.1C858.7 195.1 859.1 193.2 869.2 195.7C869.2 195.7 871.8 190.8 858.9 184.4C858.9 184.4 864.5 182.9 856.8 177.6C856.8 177.6 869.6 181 858.9 172.9C858.9 172.9 846.5 166.3 858.7 169C870.9 171.8 848 156.2 848 156.2C848 156.2 855.9 158.8 848.4 151.9C848.4 151.9 847.1 148.7 854.2 152.3C854.2 152.3 855.1 149.5 843.1 140.7C843.1 140.7 838.8 139.4 844 138.6C844 138.6 847.9 138.6 836.1 129L830.3 122.8Z" fill="#788A74"/>
<path d="M713.9 132.8C713.9 132.8 718.4 149.3 725.2 153.3C725.2 153.3 727.1 157.4 721.3 154.4C721.3 154.4 721.3 157.8 728.4 163.2C728.4 163.2 731 166.6 722.8 164.5C722.8 164.5 727.7 170.5 732.4 172.4C732.4 172.4 735.8 176.3 726.6 173.9C726.6 173.9 724.2 173.7 729.8 179.5C729.8 179.5 731.1 182.5 725.1 179.5L736.4 189.3C736.4 189.3 739.2 194.4 729.6 190.6C729.6 190.6 731.7 196.2 743.7 203C743.7 203 745.8 206.4 734.5 203C734.5 203 731.9 204 737.8 211.9C737.8 211.9 738.8 213.7 727 208.7C727 208.7 727.9 214 726.1 215.3C724.4 216.6 719 210.6 719 210.6C719 210.6 716.2 210.6 719.4 219.2C719.4 219.2 722.2 220.5 703.1 220.3C703.1 220.3 696.3 220.5 701.2 214.7C701.2 214.7 702.3 206.9 698.1 211.9C698.1 211.9 688.1 218.4 692.6 208.7C692.6 208.7 675.9 214 685.5 205.1C685.5 205.1 685.1 203.2 675 205.7C675 205.7 672.4 200.8 685.3 194.4C685.3 194.4 679.7 192.9 687.4 187.6C687.4 187.6 674.6 191 685.3 182.9C685.3 182.9 697.7 176.3 685.5 179C673.3 181.8 696.2 166.2 696.2 166.2C696.2 166.2 688.3 168.8 695.8 161.9C695.8 161.9 697.1 158.7 690 162.3C690 162.3 689.1 159.5 701.1 150.7C701.1 150.7 705.4 149.4 700.2 148.6C700.2 148.6 696.3 148.6 708.1 139L713.9 132.8Z" fill="#788A74"/>
<path d="M955.3 88.8C955.3 88.8 950.8 105.3 944 109.3C944 109.3 942.1 113.4 947.9 110.4C947.9 110.4 947.9 113.8 940.8 119.2C940.8 119.2 938.2 122.6 946.4 120.5C946.4 120.5 941.5 126.5 936.8 128.4C936.8 128.4 933.4 132.3 942.6 129.9C942.6 129.9 945 129.7 939.4 135.5C939.4 135.5 938.1 138.5 944.1 135.5L932.8 145.3C932.8 145.3 930 150.4 939.6 146.6C939.6 146.6 937.5 152.2 925.5 159C925.5 159 923.4 162.4 934.7 159C934.7 159 937.3 160 931.4 167.9C931.4 167.9 930.4 169.7 942.2 164.7C942.2 164.7 941.3 170 943.1 171.3C944.8 172.6 950.2 166.6 950.2 166.6C950.2 166.6 953 166.6 949.8 175.2C949.8 175.2 947 176.5 966.1 176.3C966.1 176.3 972.9 176.5 968 170.7C968 170.7 966.9 162.9 971.1 167.9C971.1 167.9 981.1 174.4 976.6 164.7C976.6 164.7 993.3 170 983.7 161.1C983.7 161.1 984.1 159.2 994.2 161.7C994.2 161.7 996.8 156.8 983.9 150.4C983.9 150.4 989.5 148.9 981.8 143.6C981.8 143.6 994.6 147 983.9 138.9C983.9 138.9 971.5 132.3 983.7 135C995.9 137.8 973 122.2 973 122.2C973 122.2 980.9 124.8 973.4 117.9C973.4 117.9 972.1 114.7 979.2 118.3C979.2 118.3 980.1 115.5 968.1 106.7C968.1 106.7 963.8 105.4 969 104.6C969 104.6 972.9 104.6 961.1 95L955.3 88.8Z" fill="#788A74"/>
<path d="M608.9 122.8C608.9 122.8 613.4 139.3 620.2 143.3C620.2 143.3 622.1 147.4 616.3 144.4C616.3 144.4 616.3 147.8 623.4 153.2C623.4 153.2 626 156.6 617.8 154.5C617.8 154.5 622.7 160.5 627.4 162.4C627.4 162.4 630.8 166.3 621.6 163.9C621.6 163.9 619.2 163.7 624.8 169.5C624.8 169.5 626.1 172.5 620.1 169.5L631.4 179.3C631.4 179.3 634.2 184.4 624.6 180.6C624.6 180.6 626.7 186.2 638.7 193C638.7 193 640.8 196.4 629.5 193C629.5 193 626.9 194 632.8 201.9C632.8 201.9 633.8 203.7 622 198.7C622 198.7 622.9 204 621.1 205.3C619.4 206.6 614 200.6 614 200.6C614 200.6 611.2 200.6 614.4 209.2C614.4 209.2 617.2 210.5 598.1 210.3C598.1 210.3 591.3 210.5 596.2 204.7C596.2 204.7 597.3 196.9 593.1 201.9C593.1 201.9 583.1 208.4 587.6 198.7C587.6 198.7 570.9 204 580.5 195.1C580.5 195.1 580.1 193.2 570 195.7C570 195.7 567.4 190.8 580.3 184.4C580.3 184.4 574.7 182.9 582.4 177.6C582.4 177.6 569.6 181 580.3 172.9C580.3 172.9 592.7 166.3 580.5 169C568.3 171.8 591.2 156.2 591.2 156.2C591.2 156.2 583.3 158.8 590.8 151.9C590.8 151.9 592.1 148.7 585 152.3C585 152.3 584.1 149.5 596.1 140.7C596.1 140.7 600.4 139.4 595.2 138.6C595.2 138.6 591.3 138.6 603.1 129L608.9 122.8Z" fill="#788A74"/>
<path d="M1218.3 59.8C1218.3 59.8 1213.8 76.3001 1207 80.3001C1207 80.3001 1205.1 84.4001 1210.9 81.4001C1210.9 81.4001 1210.9 84.8 1203.8 90.2C1203.8 90.2 1201.2 93.6 1209.4 91.5C1209.4 91.5 1204.5 97.5001 1199.8 99.4001C1199.8 99.4001 1196.4 103.3 1205.6 100.9C1205.6 100.9 1208 100.7 1202.4 106.5C1202.4 106.5 1201.1 109.5 1207.1 106.5L1195.8 116.3C1195.8 116.3 1193 121.4 1202.6 117.6C1202.6 117.6 1200.5 123.2 1188.5 130C1188.5 130 1186.4 133.4 1197.7 130C1197.7 130 1200.3 131 1194.4 138.9C1194.4 138.9 1193.4 140.7 1205.2 135.7C1205.2 135.7 1204.3 141 1206.1 142.3C1207.9 143.6 1213.2 137.6 1213.2 137.6C1213.2 137.6 1216 137.6 1212.8 146.2C1212.8 146.2 1210 147.5 1229.1 147.3C1229.1 147.3 1235.9 147.5 1231 141.7C1231 141.7 1229.9 133.9 1234.1 138.9C1234.1 138.9 1244.1 145.4 1239.6 135.7C1239.6 135.7 1256.3 141 1246.7 132.1C1246.7 132.1 1247.1 130.2 1257.2 132.7C1257.2 132.7 1259.8 127.8 1246.9 121.4C1246.9 121.4 1252.5 119.9 1244.8 114.6C1244.8 114.6 1257.6 118 1246.9 109.9C1246.9 109.9 1234.5 103.3 1246.7 106C1258.9 108.8 1236 93.2 1236 93.2C1236 93.2 1243.9 95.8001 1236.4 88.9001C1236.4 88.9001 1235.1 85.7001 1242.2 89.3001C1242.2 89.3001 1243.1 86.5 1231.1 77.7C1231.1 77.7 1226.8 76.4 1232 75.6C1232 75.6 1235.9 75.6 1224.1 66L1218.3 59.8Z" fill="#788A74"/>
<path d="M493.9 84.8C493.9 84.8 498.4 101.3 505.2 105.3C505.2 105.3 507.1 109.4 501.3 106.4C501.3 106.4 501.3 109.8 508.4 115.2C508.4 115.2 511 118.6 502.8 116.5C502.8 116.5 507.7 122.5 512.4 124.4C512.4 124.4 515.8 128.3 506.6 125.9C506.6 125.9 504.2 125.7 509.8 131.5C509.8 131.5 511.1 134.5 505.1 131.5L516.4 141.3C516.4 141.3 519.2 146.4 509.6 142.6C509.6 142.6 511.7 148.2 523.7 155C523.7 155 525.8 158.4 514.5 155C514.5 155 511.9 156 517.8 163.9C517.8 163.9 518.8 165.7 507 160.7C507 160.7 507.9 166 506.1 167.3C504.3 168.6 499 162.6 499 162.6C499 162.6 496.2 162.6 499.4 171.2C499.4 171.2 502.2 172.5 483.1 172.3C483.1 172.3 476.3 172.5 481.2 166.7C481.2 166.7 482.3 158.9 478.1 163.9C478.1 163.9 468.1 170.4 472.6 160.7C472.6 160.7 455.9 166 465.5 157.1C465.5 157.1 465.1 155.2 455 157.7C455 157.7 452.4 152.8 465.3 146.4C465.3 146.4 459.7 144.9 467.4 139.6C467.4 139.6 454.6 143 465.3 134.9C465.3 134.9 477.7 128.3 465.5 131C453.3 133.8 476.2 118.2 476.2 118.2C476.2 118.2 468.3 120.8 475.8 113.9C475.8 113.9 477.1 110.7 470 114.3C470 114.3 469.1 111.5 481.1 102.7C481.1 102.7 485.4 101.4 480.2 100.6C480.2 100.6 476.3 100.6 488.1 91L493.9 84.8Z" fill="#788A74"/>
<path d="M1516.9 18.8C1516.9 18.8 1521.4 35.3 1528.2 39.3C1528.2 39.3 1530.1 43.4001 1524.3 40.4001C1524.3 40.4001 1524.3 43.8001 1531.4 49.2001C1531.4 49.2001 1534 52.6 1525.8 50.5C1525.8 50.5 1530.7 56.5001 1535.4 58.4001C1535.4 58.4001 1538.8 62.3001 1529.6 59.9001C1529.6 59.9001 1527.2 59.7 1532.8 65.5C1532.8 65.5 1534.1 68.5 1528.1 65.5L1539.4 75.3001C1539.4 75.3001 1542.2 80.4 1532.6 76.6C1532.6 76.6 1534.7 82.2 1546.7 89C1546.7 89 1548.8 92.4 1537.5 89C1537.5 89 1534.9 90.0001 1540.8 97.9001C1540.8 97.9001 1541.8 99.7 1530 94.7C1530 94.7 1530.9 100 1529.1 101.3C1527.4 102.6 1522 96.6001 1522 96.6001C1522 96.6001 1519.2 96.6 1522.4 105.2C1522.4 105.2 1525.2 106.5 1506.1 106.3C1506.1 106.3 1499.3 106.5 1504.2 100.7C1504.2 100.7 1505.3 92.9001 1501.1 97.9001C1501.1 97.9001 1491.1 104.4 1495.6 94.7C1495.6 94.7 1478.9 100 1488.5 91.1001C1488.5 91.1001 1488.1 89.2 1478 91.7C1478 91.7 1475.4 86.8001 1488.3 80.4001C1488.3 80.4001 1482.7 78.9 1490.4 73.6C1490.4 73.6 1477.6 77.0001 1488.3 68.9001C1488.3 68.9001 1500.7 62.3 1488.5 65C1476.3 67.8 1499.2 52.2001 1499.2 52.2001C1499.2 52.2001 1491.3 54.8001 1498.8 47.9001C1498.8 47.9001 1500.1 44.7 1493 48.3C1493 48.3 1492.1 45.5001 1504.1 36.7001C1504.1 36.7001 1508.4 35.4 1503.2 34.6C1503.2 34.6 1499.3 34.6 1511.1 25L1516.9 18.8Z" fill="#788A74"/>
<path d="M1418.3 22.8C1418.3 22.8 1413.8 39.3 1407 43.3C1407 43.3 1405.1 47.4001 1410.9 44.4001C1410.9 44.4001 1410.9 47.8001 1403.8 53.2001C1403.8 53.2001 1401.2 56.6 1409.4 54.5C1409.4 54.5 1404.5 60.5001 1399.8 62.4001C1399.8 62.4001 1396.4 66.3001 1405.6 63.9001C1405.6 63.9001 1408 63.7 1402.4 69.5C1402.4 69.5 1401.1 72.5 1407.1 69.5L1395.8 79.3001C1395.8 79.3001 1393 84.4 1402.6 80.6C1402.6 80.6 1400.5 86.2 1388.5 93C1388.5 93 1386.4 96.4 1397.7 93C1397.7 93 1400.3 94.0001 1394.4 101.9C1394.4 101.9 1393.4 103.7 1405.2 98.7C1405.2 98.7 1404.3 104 1406.1 105.3C1407.8 106.6 1413.2 100.6 1413.2 100.6C1413.2 100.6 1416 100.6 1412.8 109.2C1412.8 109.2 1410 110.5 1429.1 110.3C1429.1 110.3 1435.9 110.5 1431 104.7C1431 104.7 1429.9 96.9001 1434.1 101.9C1434.1 101.9 1444.1 108.4 1439.6 98.7C1439.6 98.7 1456.3 104 1446.7 95.1001C1446.7 95.1001 1447.1 93.2 1457.2 95.7C1457.2 95.7 1459.8 90.8001 1446.9 84.4001C1446.9 84.4001 1452.5 82.9 1444.8 77.6C1444.8 77.6 1457.6 81.0001 1446.9 72.9001C1446.9 72.9001 1434.5 66.3 1446.7 69C1458.9 71.8 1436 56.2001 1436 56.2001C1436 56.2001 1443.9 58.8001 1436.4 51.9001C1436.4 51.9001 1435.1 48.7 1442.2 52.3C1442.2 52.3 1443.1 49.5001 1431.1 40.7001C1431.1 40.7001 1426.8 39.4 1432 38.6C1432 38.6 1435.9 38.6 1424.1 29L1418.3 22.8Z" fill="#788A74"/>
<path d="M1481.3 39.8C1481.3 39.8 1476.8 56.3 1470 60.3C1470 60.3 1468.1 64.4001 1473.9 61.4001C1473.9 61.4001 1473.9 64.8 1466.8 70.2C1466.8 70.2 1464.2 73.6 1472.4 71.5C1472.4 71.5 1467.5 77.5001 1462.8 79.4001C1462.8 79.4001 1459.4 83.3001 1468.6 80.9001C1468.6 80.9001 1471 80.7 1465.4 86.5C1465.4 86.5 1464.1 89.5 1470.1 86.5L1458.8 96.3001C1458.8 96.3001 1456 101.4 1465.6 97.6C1465.6 97.6 1463.5 103.2 1451.5 110C1451.5 110 1449.4 113.4 1460.7 110C1460.7 110 1463.3 111 1457.4 118.9C1457.4 118.9 1456.4 120.7 1468.2 115.7C1468.2 115.7 1467.3 121 1469.1 122.3C1470.8 123.6 1476.2 117.6 1476.2 117.6C1476.2 117.6 1479 117.6 1475.8 126.2C1475.8 126.2 1473 127.5 1492.1 127.3C1492.1 127.3 1498.9 127.5 1494 121.7C1494 121.7 1492.9 113.9 1497.1 118.9C1497.1 118.9 1507.1 125.4 1502.6 115.7C1502.6 115.7 1519.3 121 1509.7 112.1C1509.7 112.1 1510.1 110.2 1520.2 112.7C1520.2 112.7 1522.8 107.8 1509.9 101.4C1509.9 101.4 1515.5 99.9 1507.8 94.6C1507.8 94.6 1520.6 98.0001 1509.9 89.9001C1509.9 89.9001 1497.5 83.3 1509.7 86C1521.9 88.8 1499 73.2 1499 73.2C1499 73.2 1506.9 75.8001 1499.4 68.9001C1499.4 68.9001 1498.1 65.7001 1505.2 69.3001C1505.2 69.3001 1506.1 66.5001 1494.1 57.7001C1494.1 57.7001 1489.8 56.4 1495 55.6C1495 55.6 1498.9 55.6 1487.1 46L1481.3 39.8Z" fill="#788A74"/>
<path d="M1704.3 44.8C1704.3 44.8 1699.8 61.3001 1693 65.3001C1693 65.3001 1691.1 69.4001 1696.9 66.4001C1696.9 66.4001 1696.9 69.8 1689.8 75.2C1689.8 75.2 1687.2 78.6 1695.4 76.5C1695.4 76.5 1690.5 82.5001 1685.8 84.4001C1685.8 84.4001 1682.4 88.3001 1691.6 85.9001C1691.6 85.9001 1694 85.7 1688.4 91.5C1688.4 91.5 1687.1 94.5 1693.1 91.5L1681.8 101.3C1681.8 101.3 1679 106.4 1688.6 102.6C1688.6 102.6 1686.5 108.2 1674.5 115C1674.5 115 1672.4 118.4 1683.7 115C1683.7 115 1686.3 116 1680.4 123.9C1680.4 123.9 1679.4 125.7 1691.2 120.7C1691.2 120.7 1690.3 126 1692.1 127.3C1693.9 128.6 1699.2 122.6 1699.2 122.6C1699.2 122.6 1702 122.6 1698.8 131.2C1698.8 131.2 1696 132.5 1715.1 132.3C1715.1 132.3 1721.9 132.5 1717 126.7C1717 126.7 1715.9 118.9 1720.1 123.9C1720.1 123.9 1730.1 130.4 1725.6 120.7C1725.6 120.7 1742.3 126 1732.7 117.1C1732.7 117.1 1733.1 115.2 1743.2 117.7C1743.2 117.7 1745.8 112.8 1732.9 106.4C1732.9 106.4 1738.5 104.9 1730.8 99.6C1730.8 99.6 1743.6 103 1732.9 94.9001C1732.9 94.9001 1720.5 88.3 1732.7 91C1744.9 93.8 1722 78.2 1722 78.2C1722 78.2 1729.9 80.8001 1722.4 73.9001C1722.4 73.9001 1721.1 70.7001 1728.2 74.3001C1728.2 74.3001 1729.1 71.5001 1717.1 62.7001C1717.1 62.7001 1712.8 61.4 1718 60.6C1718 60.6 1721.9 60.6 1710.1 51L1704.3 44.8Z" fill="#788A74"/>
<path d="M220.9 93.8C220.9 93.8 225.4 110.3 232.2 114.3C232.2 114.3 234.1 118.4 228.3 115.4C228.3 115.4 228.3 118.8 235.4 124.2C235.4 124.2 238 127.6 229.8 125.5C229.8 125.5 234.7 131.5 239.4 133.4C239.4 133.4 242.8 137.3 233.6 134.9C233.6 134.9 231.2 134.7 236.8 140.5C236.8 140.5 238.1 143.5 232.1 140.5L243.4 150.3C243.4 150.3 246.2 155.4 236.6 151.6C236.6 151.6 238.7 157.2 250.7 164C250.7 164 252.8 167.4 241.5 164C241.5 164 238.9 165 244.8 172.9C244.8 172.9 245.8 174.7 234 169.7C234 169.7 234.9 175 233.1 176.3C231.3 177.6 226 171.6 226 171.6C226 171.6 223.2 171.6 226.4 180.2C226.4 180.2 229.2 181.5 210.1 181.3C210.1 181.3 203.3 181.5 208.2 175.7C208.2 175.7 209.3 167.9 205.1 172.9C205.1 172.9 195.1 179.4 199.6 169.7C199.6 169.7 182.9 175 192.5 166.1C192.5 166.1 192.1 164.2 182 166.7C182 166.7 179.4 161.8 192.3 155.4C192.3 155.4 186.7 153.9 194.4 148.6C194.4 148.6 181.6 152 192.3 143.9C192.3 143.9 204.7 137.3 192.5 140C180.3 142.8 203.2 127.2 203.2 127.2C203.2 127.2 195.3 129.8 202.8 122.9C202.8 122.9 204.1 119.7 197 123.3C197 123.3 196.1 120.5 208.1 111.7C208.1 111.7 212.4 110.4 207.2 109.6C207.2 109.6 203.3 109.6 215.1 100L220.9 93.8Z" fill="#788A74"/>
<path d="M1563.3 22.8C1563.3 22.8 1558.8 39.3 1552 43.3C1552 43.3 1550.1 47.4001 1555.9 44.4001C1555.9 44.4001 1555.9 47.8001 1548.8 53.2001C1548.8 53.2001 1546.2 56.6 1554.4 54.5C1554.4 54.5 1549.5 60.5001 1544.8 62.4001C1544.8 62.4001 1541.4 66.3001 1550.6 63.9001C1550.6 63.9001 1553 63.7 1547.4 69.5C1547.4 69.5 1546.1 72.5 1552.1 69.5L1540.8 79.3001C1540.8 79.3001 1538 84.4 1547.6 80.6C1547.6 80.6 1545.5 86.2 1533.5 93C1533.5 93 1531.4 96.4 1542.7 93C1542.7 93 1545.3 94.0001 1539.4 101.9C1539.4 101.9 1538.4 103.7 1550.2 98.7C1550.2 98.7 1549.3 104 1551.1 105.3C1552.8 106.6 1558.2 100.6 1558.2 100.6C1558.2 100.6 1561 100.6 1557.8 109.2C1557.8 109.2 1555 110.5 1574.1 110.3C1574.1 110.3 1580.9 110.5 1576 104.7C1576 104.7 1574.9 96.9001 1579.1 101.9C1579.1 101.9 1589.1 108.4 1584.6 98.7C1584.6 98.7 1601.3 104 1591.7 95.1001C1591.7 95.1001 1592.1 93.2 1602.2 95.7C1602.2 95.7 1604.8 90.8001 1591.9 84.4001C1591.9 84.4001 1597.5 82.9 1589.8 77.6C1589.8 77.6 1602.6 81.0001 1591.9 72.9001C1591.9 72.9001 1579.5 66.3 1591.7 69C1603.9 71.8 1581 56.2001 1581 56.2001C1581 56.2001 1588.9 58.8001 1581.4 51.9001C1581.4 51.9001 1580.1 48.7 1587.2 52.3C1587.2 52.3 1588.1 49.5001 1576.1 40.7001C1576.1 40.7001 1571.8 39.4 1577 38.6C1577 38.6 1580.9 38.6 1569.1 29L1563.3 22.8Z" fill="#788A74"/>
<path d="M315.6 65C315.6 65 310.9 82.2 303.8 86.4C303.8 86.4 301.8 90.6 307.8 87.5C307.8 87.5 307.8 91.1 300.4 96.7C300.4 96.7 297.7 100.3 306.2 98C306.2 98 301.1 104.3 296.2 106.3C296.2 106.3 292.6 110.3 302.2 107.9C302.2 107.9 304.7 107.7 298.9 113.7C298.9 113.7 297.6 116.8 303.8 113.7L292 124C292 124 289.1 129.4 299.1 125.3C299.1 125.3 296.9 131.1 284.4 138.2C284.4 138.2 282.2 141.8 294 138.2C294 138.2 296.8 139.2 290.6 147.5C290.6 147.5 289.6 149.3 301.8 144.2C301.8 144.2 300.9 149.8 302.7 151.1C304.5 152.4 310.1 146.2 310.1 146.2C310.1 146.2 313 146.2 309.7 155.1C309.7 155.1 306.8 156.4 326.7 156.2C326.7 156.2 333.8 156.4 328.7 150.4C328.7 150.4 327.5 142.3 331.9 147.4C331.9 147.4 342.3 154.2 337.6 144.1C337.6 144.1 355 149.7 345 140.3C345 140.3 345.4 138.3 355.9 141C355.9 141 358.6 135.9 345.2 129.2C345.2 129.2 351 127.6 343 122.1C343 122.1 356.4 125.7 345.2 117.2C345.2 117.2 332.3 110.3 345 113.2C357.7 116.1 333.8 99.8 333.8 99.8C333.8 99.8 342.1 102.5 334.2 95.3C334.2 95.3 332.9 92 340.2 95.7C340.2 95.7 341.1 92.8 328.6 83.6C328.6 83.6 324.1 82.3 329.5 81.4C329.5 81.4 333.5 81.4 321.2 71.4L315.6 65Z" fill="#788A74"/>
</g>
<defs>
<clipPath id="clip0">
<rect width="1920" height="454" fill="white"/>
</clipPath>
</defs>
</svg>
