<svg id="pagoda_windows" data-name="pagoda windows" xmlns="http://www.w3.org/2000/svg" xmlns:xlink="http://www.w3.org/1999/xlink" viewBox="0 0 24.23 27.77"><defs><style>.cls-1{fill:url(#radial-gradient);}.cls-2{fill:url(#radial-gradient-2);}.cls-3{fill:url(#radial-gradient-3);}.cls-4{fill:url(#radial-gradient-4);}.cls-5{fill:url(#radial-gradient-5);}.cls-6{fill:url(#radial-gradient-6);}.cls-7{fill:url(#radial-gradient-7);}.cls-8{fill:url(#radial-gradient-8);}.cls-9{fill:url(#radial-gradient-9);}</style><radialGradient id="radial-gradient" cx="6.9" cy="2.69" r="4.16" gradientUnits="userSpaceOnUse"><stop offset="0" stop-color="#f1f2f2"/><stop offset="0.11" stop-color="#f1f2ed"/><stop offset="0.24" stop-color="#f2f2df"/><stop offset="0.37" stop-color="#f3f2c8"/><stop offset="0.52" stop-color="#f5f2a7"/><stop offset="0.66" stop-color="#f8f27d"/><stop offset="0.82" stop-color="#fbf249"/><stop offset="0.97" stop-color="#fef20e"/><stop offset="1" stop-color="#fff200"/></radialGradient><radialGradient id="radial-gradient-2" cx="3.19" cy="14.2" r="4.65" xlink:href="#radial-gradient"/><radialGradient id="radial-gradient-3" cx="3.19" cy="20.7" r="6.88" xlink:href="#radial-gradient"/><radialGradient id="radial-gradient-4" cx="17.34" cy="2.69" r="4.3" xlink:href="#radial-gradient"/><radialGradient id="radial-gradient-5" cx="12.12" cy="2.69" r="4.86" xlink:href="#radial-gradient"/><radialGradient id="radial-gradient-6" cx="21.05" cy="14.2" r="4.85" xlink:href="#radial-gradient"/><radialGradient id="radial-gradient-7" cx="21.05" cy="20.7" r="6.24" xlink:href="#radial-gradient"/><radialGradient id="radial-gradient-8" cx="12.12" cy="14.2" r="6.97" xlink:href="#radial-gradient"/><radialGradient id="radial-gradient-9" cx="12.12" cy="22.29" r="10.12" xlink:href="#radial-gradient"/></defs><rect class="cls-1" x="5.29" width="3.21" height="5.37"/><rect class="cls-2" y="13.39" width="6.37" height="1.61"/><rect class="cls-3" y="16.81" width="6.37" height="7.79"/><rect class="cls-4" x="15.73" width="3.21" height="5.37"/><polygon class="cls-5" points="12.12 0 9.57 0 9.57 5.37 12.12 5.37 14.67 5.37 14.67 0 12.12 0"/><rect class="cls-6" x="17.86" y="13.39" width="6.37" height="1.61"/><rect class="cls-7" x="17.86" y="16.81" width="6.37" height="7.79"/><polygon class="cls-8" points="12.12 13.39 7.44 13.39 7.44 15.01 12.12 15.01 16.8 15.01 16.8 13.39 12.12 13.39"/><polygon class="cls-9" points="12.12 16.81 7.44 16.81 7.44 27.77 12.12 27.77 16.8 27.77 16.8 16.81 12.12 16.81"/></svg>