<svg width="1920" height="1080" viewBox="0 0 1920 1080" fill="none" xmlns="http://www.w3.org/2000/svg">
<path d="M0 495.7V0H1920V1080H0V702.3" fill="#EEEED7"/>
<path opacity="0.2" d="M960 834C1141.7 834 1289 686.702 1289 505C1289 323.298 1141.7 176 960 176C778.298 176 631 323.298 631 505C631 686.702 778.298 834 960 834Z" fill="white"/>
<path opacity="0.2" d="M960 770.9C1106.85 770.9 1225.9 651.852 1225.9 505C1225.9 358.147 1106.85 239.1 960 239.1C813.148 239.1 694.1 358.147 694.1 505C694.1 651.852 813.148 770.9 960 770.9Z" fill="white"/>
<path d="M960 721.2C1079.4 721.2 1176.2 624.404 1176.2 505C1176.2 385.596 1079.4 288.8 960 288.8C840.596 288.8 743.8 385.596 743.8 505C743.8 624.404 840.596 721.2 960 721.2Z" fill="white"/>
</svg>
