<svg width="1920" height="644" viewBox="0 0 1920 644" fill="none" xmlns="http://www.w3.org/2000/svg">
<g clip-path="url(#clip0)">
<path d="M1920 225.6C1899.9 225 1875.1 223.2 1858.4 218.6C1858.4 218.6 1847.7 240 1824.4 236.5C1824.4 236.5 1899.5 340.2 1895.9 644H1863.7C1863.7 644 1881.6 374.1 1806.5 245.4C1806.5 245.4 1769 268 1758.2 231.7L1751.1 256.1L1729.7 249L1744 266.9L1724.3 286.6L1695.7 311.6L1677.8 299.1L1684.9 311.6L1686.7 317L1615.2 368.8C1615.2 368.8 1617 265.1 1668.8 234.7C1668.8 234.7 1561.6 222.2 1533 231.1C1533 231.1 1556.2 193.6 1579.5 182.8C1579.5 182.8 1542 159.6 1491.9 148.8C1491.9 148.8 1524.1 93.3999 1645.6 104.1L1638.5 95.1999C1638.5 95.1999 1645.6 89.7999 1651 77.2999C1651 77.2999 1642.1 87.9999 1634.9 87.9999C1634.9 87.9999 1586.6 16.4999 1563.4 9.3999C1563.4 9.3999 1724.3 -33.5001 1785 163.1L1788.6 164.9C1788.6 164.9 1811.8 32.5999 1919.9 -0.100098" fill="#546E57"/>
<path d="M0 266C18.6 265.5 43.1 264 59.1 259.6C59.1 259.6 68.8 279 89.8 275.7C89.8 275.7 22 369.3 25.2 643.7H54.3C54.3 643.7 38.2 400 106 283.8C106 283.8 139.9 304.2 149.6 271.4L156.1 293.5L175.5 287L162.6 303.1L180.4 320.9L206.2 343.5L222.3 332.2L215.8 343.5L214.2 348.3L278.8 395.1C278.8 395.1 277.2 301.5 230.4 274C230.4 274 327.2 262.7 353.1 270.8C353.1 270.8 332.1 236.9 311.1 227.2C311.1 227.2 345 206.2 390.2 196.5C390.2 196.5 361.1 146.5 251.4 156.1L257.9 148C257.9 148 251.4 143.2 246.6 131.9C246.6 131.9 254.7 141.6 261.1 141.6C261.1 141.6 304.7 77 325.7 70.6C325.7 70.6 180.4 31.9 125.6 209.4L122.4 211C122.4 211 100.9 88.7 0.3 61" fill="#546E57"/>
</g>
<path d="M444.5 591.83C377.481 595.742 121 607.27 0 604.995V644H1920V591.83C1898.17 591.83 1844.5 594.463 1748.5 604.995C1652.5 615.526 1223.17 600.607 1020.5 591.83C855.667 585.167 690 577.5 444.5 591.83Z" fill="#546E57"/>
<defs>
<clipPath id="clip0">
<rect width="1920" height="644" fill="white"/>
</clipPath>
</defs>
</svg>
