<svg width="1920" height="1080" viewBox="0 0 1920 1080" fill="none" xmlns="http://www.w3.org/2000/svg">
<path d="M1920 0H0V1080H1920V0Z" fill="#EEEED7"/>
<path opacity="0.2" d="M960 992C1141.7 992 1289 844.702 1289 663C1289 481.298 1141.7 334 960 334C778.298 334 631 481.298 631 663C631 844.702 778.298 992 960 992Z" fill="white"/>
<path opacity="0.2" d="M960 928.9C1106.85 928.9 1225.9 809.853 1225.9 663C1225.9 516.148 1106.85 397.1 960 397.1C813.148 397.1 694.1 516.148 694.1 663C694.1 809.853 813.148 928.9 960 928.9Z" fill="white"/>
<path d="M960 879.2C1079.4 879.2 1176.2 782.404 1176.2 663C1176.2 543.596 1079.4 446.8 960 446.8C840.596 446.8 743.8 543.596 743.8 663C743.8 782.404 840.596 879.2 960 879.2Z" fill="white"/>
</svg>
