<svg width="1920" height="577" viewBox="0 0 1920 577" fill="none" xmlns="http://www.w3.org/2000/svg">
<g clip-path="url(#clip0)">
<path d="M1920 87.7C1917.3 85.6 1914.5 83.5 1911.4 81.2C1911.4 81.2 1894.4 76.1 1914.8 72.7C1914.8 72.7 1930.1 72.7 1883.4 34.6L1862.2 10C1862.2 10 1844.4 75.3 1817.3 91.4C1817.3 91.4 1809.7 107.5 1832.6 95.6C1832.6 95.6 1832.6 109.2 1804.6 130.4C1804.6 130.4 1794.4 144 1826.6 135.5C1826.6 135.5 1807.1 159.2 1788.5 166.9C1788.5 166.9 1774.9 182.2 1811.4 172.8C1811.4 172.8 1820.7 172 1798.7 194.8C1798.7 194.8 1793.6 206.7 1817.4 194.8L1772.5 233.8C1772.5 233.8 1761.5 254.1 1799.6 238.9C1799.6 238.9 1791.1 260.9 1743.6 288.1C1743.6 288.1 1735.1 301.7 1780.1 288.1C1780.1 288.1 1790.6 291.9 1767.1 323.5C1767.1 323.5 1763.1 330.5 1809.8 311C1809.8 311 1806.4 332.2 1813.2 337.3C1820 342.4 1841.2 318.6 1841.2 318.6C1841.2 318.6 1852.2 318.6 1839.5 352.5C1839.5 352.5 1828.5 357.6 1903.9 356.7C1903.9 356.7 1931 357.5 1911.5 334.7C1911.5 334.7 1907.7 308.4 1920.1 319.7" fill="#546E57"/>
<path d="M1920 157.9C1907.8 148.6 1896.9 141.2 1896.9 141.2C1896.9 141.2 1928.3 151.4 1898.6 124.2C1898.6 124.2 1893.7 111.9 1920 125.2" fill="#546E57"/>
<path d="M1612.2 0C1612.2 0 1594.4 65.3 1567.3 81.4C1567.3 81.4 1559.7 97.5 1582.6 85.6C1582.6 85.6 1582.6 99.2 1554.6 120.4C1554.6 120.4 1544.4 134 1576.6 125.5C1576.6 125.5 1557.1 149.2 1538.5 156.9C1538.5 156.9 1524.9 172.2 1561.4 162.8C1561.4 162.8 1570.7 162 1548.7 184.8C1548.7 184.8 1543.6 196.7 1567.4 184.8L1522.5 223.8C1522.5 223.8 1511.5 244.1 1549.6 228.9C1549.6 228.9 1541.1 250.9 1493.6 278.1C1493.6 278.1 1485.1 291.7 1530.1 278.1C1530.1 278.1 1540.6 281.9 1517.1 313.5C1517.1 313.5 1513.1 320.5 1559.8 301C1559.8 301 1556.4 322.2 1563.2 327.3C1570 332.4 1591.2 308.6 1591.2 308.6C1591.2 308.6 1602.2 308.6 1589.5 342.5C1589.5 342.5 1578.5 347.6 1653.9 346.7C1653.9 346.7 1681 347.5 1661.5 324.7C1661.5 324.7 1657 293.8 1673.7 313.5C1673.7 313.5 1713.3 339.1 1695.5 301C1695.5 301 1761.6 322.2 1723.5 286.6C1723.5 286.6 1725.2 279 1765 289.1C1765 289.1 1775.2 269.6 1724.3 244.2C1724.3 244.2 1746.3 238.3 1715.8 217.1C1715.8 217.1 1766.7 230.7 1724.3 198.4C1724.3 198.4 1675.1 172.1 1723.5 183.1C1771.8 194.1 1681.1 132.2 1681.1 132.2C1681.1 132.2 1712.5 142.4 1682.8 115.2C1682.8 115.2 1677.7 102.5 1705.7 116.9C1705.7 116.9 1709.1 105.9 1661.6 71.1C1661.6 71.1 1644.6 66 1665 62.6C1665 62.6 1680.3 62.6 1633.6 24.5L1612.2 0Z" fill="#546E57"/>
<path d="M1345.2 126C1345.2 126 1327.4 191.3 1300.3 207.4C1300.3 207.4 1292.7 223.5 1315.6 211.6C1315.6 211.6 1315.6 225.2 1287.6 246.4C1287.6 246.4 1277.4 260 1309.6 251.5C1309.6 251.5 1290.1 275.2 1271.5 282.9C1271.5 282.9 1257.9 298.2 1294.4 288.8C1294.4 288.8 1303.7 288 1281.7 310.8C1281.7 310.8 1276.6 322.7 1300.4 310.8L1255.5 349.8C1255.5 349.8 1244.5 370.1 1282.6 354.9C1282.6 354.9 1274.1 376.9 1226.6 404.1C1226.6 404.1 1218.1 417.7 1263.1 404.1C1263.1 404.1 1273.6 407.9 1250.1 439.5C1250.1 439.5 1246.1 446.5 1292.8 427C1292.8 427 1289.4 448.2 1296.2 453.3C1303 458.4 1324.2 434.6 1324.2 434.6C1324.2 434.6 1335.2 434.6 1322.5 468.5C1322.5 468.5 1311.5 473.6 1386.9 472.7C1386.9 472.7 1414 473.5 1394.5 450.7C1394.5 450.7 1390 419.8 1406.7 439.5C1406.7 439.5 1446.3 465.1 1428.5 427C1428.5 427 1494.6 448.2 1456.5 412.6C1456.5 412.6 1458.2 405 1498 415.1C1498 415.1 1508.2 395.6 1457.3 370.2C1457.3 370.2 1479.3 364.3 1448.8 343.1C1448.8 343.1 1499.7 356.7 1457.3 324.4C1457.3 324.4 1408.1 298.1 1456.5 309.1C1504.8 320.1 1414.1 258.2 1414.1 258.2C1414.1 258.2 1445.5 268.4 1415.8 241.2C1415.8 241.2 1410.7 228.5 1438.7 242.9C1438.7 242.9 1442.1 231.9 1394.6 197.1C1394.6 197.1 1377.6 192 1398 188.6C1398 188.6 1413.3 188.6 1366.6 150.5L1345.2 126Z" fill="#546E57"/>
<path d="M882.6 575.2C887.7 571.2 892.6 565.7 892.6 565.7C892.6 565.7 896.8 565.7 895.5 575.2" fill="#546E57"/>
<path d="M942 575.2C942 575.2 939.4 555.1 951.2 569.1C951.2 569.1 979.3 587.3 966.7 560.2C966.7 560.2 1013.7 575.3 986.6 550C986.6 550 987.8 544.6 1016.1 551.8C1016.1 551.8 1023.3 537.9 987.2 519.9C987.2 519.9 1002.9 515.7 981.2 500.6C981.2 500.6 1017.3 510.2 987.2 487.4C987.2 487.4 952.3 468.7 986.6 476.6C1020.9 484.5 956.5 440.5 956.5 440.5C956.5 440.5 978.8 447.7 957.7 428.5C957.7 428.5 954.1 419.5 974 429.7C974 429.7 976.4 421.9 942.7 397.2C942.7 397.2 930.7 393.6 945.1 391.2C945.1 391.2 955.9 391.2 922.8 364.1L907.7 346.6C907.7 346.6 895.1 393 875.8 404.4C875.8 404.4 870.4 415.8 886.6 407.4C886.6 407.4 886.6 417 866.7 432.1C866.7 432.1 859.5 441.7 882.4 435.7C882.4 435.7 868.5 452.6 855.3 458C855.3 458 845.7 468.8 871.6 462.2C871.6 462.2 878.2 461.6 862.6 477.9C862.6 477.9 859 486.3 875.8 477.9L843.9 505.6C843.9 505.6 836.1 520.1 863.2 509.2C863.2 509.2 857.2 524.9 823.5 544.1C823.5 544.1 817.5 553.7 849.4 544.1C849.4 544.1 856.8 546.8 840.2 569.2C840.2 569.2 837.4 574.2 870.5 560.3C870.5 560.3 869 569.9 870.8 575.6" fill="#546E57"/>
<path d="M1180.2 205C1180.2 205 1162.4 270.3 1135.3 286.4C1135.3 286.4 1127.7 302.5 1150.6 290.6C1150.6 290.6 1150.6 304.2 1122.6 325.4C1122.6 325.4 1112.4 339 1144.6 330.5C1144.6 330.5 1125.1 354.2 1106.5 361.9C1106.5 361.9 1092.9 377.2 1129.4 367.8C1129.4 367.8 1138.7 367 1116.7 389.8C1116.7 389.8 1111.6 401.7 1135.4 389.8L1090.5 428.8C1090.5 428.8 1079.5 449.1 1117.6 433.9C1117.6 433.9 1109.1 455.9 1061.6 483.1C1061.6 483.1 1053.1 496.7 1098.1 483.1C1098.1 483.1 1108.6 486.9 1085.1 518.5C1085.1 518.5 1081.1 525.5 1127.8 506C1127.8 506 1124.4 527.2 1131.2 532.3C1138 537.4 1159.2 513.6 1159.2 513.6C1159.2 513.6 1170.2 513.6 1157.5 547.5C1157.5 547.5 1146.5 552.6 1221.9 551.7C1221.9 551.7 1249 552.5 1229.5 529.7C1229.5 529.7 1225 498.8 1241.7 518.5C1241.7 518.5 1281.3 544.1 1263.5 506C1263.5 506 1329.6 527.2 1291.5 491.6C1291.5 491.6 1293.2 484 1333 494.1C1333 494.1 1343.2 474.6 1292.3 449.2C1292.3 449.2 1314.3 443.3 1283.8 422.1C1283.8 422.1 1334.7 435.7 1292.3 403.4C1292.3 403.4 1243.1 377.1 1291.5 388.1C1339.8 399.1 1249.1 337.2 1249.1 337.2C1249.1 337.2 1280.5 347.4 1250.8 320.2C1250.8 320.2 1245.7 307.5 1273.7 321.9C1273.7 321.9 1277.1 310.9 1229.6 276.1C1229.6 276.1 1212.6 271 1233 267.6C1233 267.6 1248.3 267.6 1201.6 229.5L1180.2 205Z" fill="#546E57"/>
<path d="M853.8 574.7C854.4 571.5 853.2 566.2 849.3 557.9C849.3 557.9 915.4 579.1 877.3 543.5C877.3 543.5 879 535.9 918.8 546C918.8 546 929 526.5 878.1 501.1C878.1 501.1 900.1 495.2 869.6 474C869.6 474 920.5 487.6 878.1 455.3C878.1 455.3 828.9 429 877.3 440C925.6 451 834.9 389.1 834.9 389.1C834.9 389.1 866.3 399.3 836.6 372.1C836.6 372.1 831.5 359.4 859.5 373.8C859.5 373.8 862.9 362.8 815.4 328C815.4 328 798.4 322.9 818.8 319.5C818.8 319.5 834.1 319.5 787.4 281.4L766.2 257C766.2 257 748.4 322.3 721.3 338.4C721.3 338.4 713.7 354.5 736.6 342.6C736.6 342.6 736.6 356.2 708.6 377.4C708.6 377.4 698.4 391 730.6 382.5C730.6 382.5 711.1 406.2 692.5 413.9C692.5 413.9 678.9 429.2 715.4 419.8C715.4 419.8 724.7 419 702.7 441.8C702.7 441.8 697.6 453.7 721.4 441.8L676.5 480.8C676.5 480.8 665.5 501.1 703.6 485.9C703.6 485.9 695.1 507.9 647.6 535.1C647.6 535.1 639.1 548.7 684.1 535.1C684.1 535.1 694.6 538.9 671.1 570.5C671.1 570.5 667.1 577.5 713.8 558C713.8 558 712.3 567.5 713.3 575.3" fill="#546E57"/>
<path d="M814.8 575.2C814.6 567.4 816 556.9 827.5 570.5C827.5 570.5 831.3 573 836.1 575.2" fill="#546E57"/>
<path d="M735 575.5C740.5 570.6 745 565.6 745 565.6C745 565.6 749.8 565.6 749.4 575.2" fill="#546E57"/>
<path d="M476.3 227C476.3 227 494.1 292.3 521.2 308.4C521.2 308.4 528.8 324.5 505.9 312.6C505.9 312.6 505.9 326.2 533.9 347.4C533.9 347.4 544.1 361 511.9 352.5C511.9 352.5 531.4 376.2 550 383.9C550 383.9 563.6 399.2 527.1 389.8C527.1 389.8 517.8 389 539.8 411.8C539.8 411.8 544.9 423.7 521.1 411.8L566 450.8C566 450.8 577 471.1 538.9 455.9C538.9 455.9 547.4 477.9 594.9 505.1C594.9 505.1 603.4 518.7 558.4 505.1C558.4 505.1 547.9 508.9 571.4 540.5C571.4 540.5 575.4 547.5 528.7 528C528.7 528 532.1 549.2 525.3 554.3C518.5 559.4 497.3 535.6 497.3 535.6C497.3 535.6 486.3 535.6 499 569.5C499 569.5 510 574.6 434.6 573.7C434.6 573.7 407.5 574.5 427 551.7C427 551.7 431.5 520.8 414.8 540.5C414.8 540.5 375.2 566.1 393 528C393 528 326.9 549.2 365 513.6C365 513.6 363.3 506 323.5 516.1C323.5 516.1 313.3 496.6 364.2 471.2C364.2 471.2 342.2 465.3 372.7 444.1C372.7 444.1 321.8 457.7 364.2 425.4C364.2 425.4 413.4 399.1 365 410.1C316.6 421.1 407.4 359.2 407.4 359.2C407.4 359.2 376 369.4 405.7 342.2C405.7 342.2 410.8 329.5 382.8 343.9C382.8 343.9 379.4 332.9 426.9 298.1C426.9 298.1 443.9 293 423.5 289.6C423.5 289.6 408.2 289.6 454.9 251.5L476.3 227Z" fill="#546E57"/>
<path d="M89.8 575.2C98.6 570.4 110.1 557.6 110.1 557.6C110.1 557.6 117.3 557.6 113.4 575.5" fill="#546E57"/>
<path d="M181.8 575.4C181.4 574.8 180.9 574.3 180.4 573.7C180.4 573.7 175.9 542.8 192.6 562.5C192.6 562.5 232.2 588.1 214.4 550C214.4 550 280.5 571.2 242.4 535.6C242.4 535.6 244.1 528 283.9 538.1C283.9 538.1 294.1 518.6 243.2 493.2C243.2 493.2 265.2 487.3 234.7 466.1C234.7 466.1 285.6 479.7 243.2 447.4C243.2 447.4 194 421.1 242.4 432.1C290.8 443.1 200 381.2 200 381.2C200 381.2 231.4 391.4 201.7 364.2C201.7 364.2 196.6 351.5 224.6 365.9C224.6 365.9 228 354.9 180.5 320.1C180.5 320.1 163.5 315 183.9 311.6C183.9 311.6 199.2 311.6 152.5 273.5L131.2 249C131.2 249 113.4 314.3 86.3 330.4C86.3 330.4 78.7 346.5 101.6 334.6C101.6 334.6 101.6 348.2 73.6 369.4C73.6 369.4 63.4 383 95.6 374.5C95.6 374.5 76.1 398.2 57.5 405.9C57.5 405.9 43.9 421.2 80.4 411.8C80.4 411.8 89.7 411 67.7 433.8C67.7 433.8 62.6 445.7 86.4 433.8L41.5 472.8C41.5 472.8 30.5 493.1 68.6 477.9C68.6 477.9 60.1 499.9 12.6 527.1C12.6 527.1 4.09998 540.7 49.1 527.1C49.1 527.1 59.6 530.9 36.1 562.5C36.1 562.5 32.1 569.5 78.8 550C78.8 550 75.8 568.6 81 575.1" fill="#546E57"/>
<path d="M1090 211.6C1090 211.6 1103.8 262.3 1124.9 274.8C1124.9 274.8 1130.8 287.3 1113.1 278.1C1113.1 278.1 1113.1 288.6 1134.8 305.1C1134.8 305.1 1142.7 315.6 1117.7 309C1117.7 309 1132.8 327.4 1147.3 333.4C1147.3 333.4 1157.8 345.2 1129.5 338C1129.5 338 1122.3 337.3 1139.4 355.1C1139.4 355.1 1143.3 364.3 1124.9 355.1L1159.8 385.4C1159.8 385.4 1168.4 401.2 1138.7 389.3C1138.7 389.3 1145.3 406.4 1182.1 427.5C1182.1 427.5 1188.7 438 1153.8 427.5C1153.8 427.5 1145.7 430.5 1163.9 455C1163.9 455 1167 460.4 1130.8 445.3C1130.8 445.3 1133.4 461.8 1128.2 465.7C1122.9 469.6 1106.5 451.2 1106.5 451.2C1106.5 451.2 1097.9 451.2 1107.8 477.5C1107.8 477.5 1116.4 481.4 1057.8 480.8C1057.8 480.8 1036.7 481.5 1051.9 463.7C1051.9 463.7 1055.4 439.7 1042.5 455C1042.5 455 1011.8 474.9 1025.6 445.3C1025.6 445.3 974.3 461.8 1003.9 434.1C1003.9 434.1 1002.6 428.2 971.7 436.1C971.7 436.1 963.8 421 1003.3 401.2C1003.3 401.2 986.2 396.6 1009.9 380.1C1009.9 380.1 970.4 390.6 1003.3 365.6C1003.3 365.6 1041.5 345.2 1004 353.8C966.5 362.4 1036.9 314.3 1036.9 314.3C1036.9 314.3 1012.5 322.2 1035.6 301.1C1035.6 301.1 1039.5 291.2 1017.8 302.4C1017.8 302.4 1015.2 293.8 1052 266.9C1052 266.9 1065.2 263 1049.4 260.3C1049.4 260.3 1037.6 260.3 1073.8 230.7L1090 211.6Z" fill="#546E57"/>
<path d="M1484.4 147.6C1484.4 147.6 1469.5 200.9 1446.8 214C1446.8 214 1440.4 227.2 1459.6 217.5C1459.6 217.5 1459.6 228.6 1436.2 245.9C1436.2 245.9 1427.7 257 1454.6 250.1C1454.6 250.1 1438.3 269.5 1422.7 275.7C1422.7 275.7 1411.4 288.2 1441.8 280.5C1441.8 280.5 1449.6 279.8 1431.2 298.5C1431.2 298.5 1426.9 308.2 1446.8 298.5L1409.2 330.3C1409.2 330.3 1400 346.9 1431.9 334.5C1431.9 334.5 1424.8 352.5 1385.1 374.6C1385.1 374.6 1378 385.7 1415.6 374.6C1415.6 374.6 1424.3 377.7 1404.7 403.5C1404.7 403.5 1401.4 409.2 1440.4 393.3C1440.4 393.3 1437.6 410.6 1443.2 414.8C1448.9 419 1466.6 399.6 1466.6 399.6C1466.6 399.6 1475.8 399.6 1465.2 427.3C1465.2 427.3 1456 431.5 1519.1 430.8C1519.1 430.8 1541.8 431.5 1525.5 412.8C1525.5 412.8 1521.7 387.5 1535.7 403.6C1535.7 403.6 1568.8 424.5 1553.9 393.4C1553.9 393.4 1609.2 410.7 1577.3 381.6C1577.3 381.6 1578.7 375.4 1612 383.7C1612 383.7 1620.5 367.8 1578 347C1578 347 1596.4 342.2 1570.9 324.9C1570.9 324.9 1613.4 336 1578 309.7C1578 309.7 1536.9 288.2 1577.3 297.2C1617.7 306.2 1541.9 255.7 1541.9 255.7C1541.9 255.7 1568.1 264 1543.3 241.9C1543.3 241.9 1539 231.5 1562.4 243.3C1562.4 243.3 1565.2 234.3 1525.5 205.9C1525.5 205.9 1511.3 201.7 1528.3 199C1528.3 199 1541.1 199 1502.1 167.9L1484.4 147.6Z" fill="#546E57"/>
<path d="M309.9 575.2C309.6 574.6 309.3 573.9 309 573.2C309 573.2 311.9 574.1 316 575.2" fill="#546E57"/>
<path d="M198.9 575.2C200.4 574.6 202 573.9 203.7 573.2C203.7 573.2 203.6 574 203.4 575.2" fill="#546E57"/>
<path d="M339.8 575.4C340.4 573.1 338.1 568.9 330.7 562C330.7 562 332 556.1 362.9 564C362.9 564 370.8 548.9 331.3 529.1C331.3 529.1 348.4 524.5 324.7 508C324.7 508 364.2 518.5 331.3 493.5C331.3 493.5 293.1 473.1 330.6 481.7C368.1 490.3 297.7 442.2 297.7 442.2C297.7 442.2 322.1 450.1 299 429C299 429 295.1 419.1 316.8 430.3C316.8 430.3 319.4 421.7 282.6 394.8C282.6 394.8 269.4 390.9 285.2 388.2C285.2 388.2 297 388.2 260.8 358.6L244.3 339.5C244.3 339.5 230.5 390.2 209.4 402.7C209.4 402.7 203.5 415.2 221.2 406C221.2 406 221.2 416.5 199.5 433C199.5 433 191.6 443.5 216.6 436.9C216.6 436.9 201.5 455.3 187 461.3C187 461.3 176.5 473.1 204.8 465.9C204.8 465.9 212 465.2 194.9 483C194.9 483 191 492.2 209.4 483L174.5 513.3C174.5 513.3 165.9 529.1 195.6 517.2C195.6 517.2 189 534.3 152.2 555.4C152.2 555.4 145.6 565.9 180.5 555.4C180.5 555.4 186.8 557.7 175.8 575.2" fill="#546E57"/>
<path d="M702 575.2C702 575.2 702.1 567.3 733 575.2C733 575.2 741.9 563.9 702.4 544.1C702.4 544.1 719.5 539.5 695.8 523C695.8 523 735.3 533.5 702.4 508.5C702.4 508.5 664.2 488.1 701.7 496.7C739.2 505.3 668.8 457.2 668.8 457.2C668.8 457.2 693.2 465.1 670.1 444C670.1 444 666.2 434.1 687.9 445.3C687.9 445.3 690.5 436.7 653.7 409.8C653.7 409.8 640.5 405.9 656.3 403.2C656.3 403.2 668.1 403.2 631.9 373.6L615.4 354.5C615.4 354.5 601.6 405.2 580.5 417.7C580.5 417.7 574.6 430.2 592.3 421C592.3 421 592.3 431.5 570.6 448C570.6 448 562.7 458.5 587.7 451.9C587.7 451.9 572.6 470.3 558.1 476.3C558.1 476.3 547.6 488.1 575.9 480.9C575.9 480.9 583.1 480.2 566 498C566 498 562.1 507.2 580.5 498L545.6 528.3C545.6 528.3 537 544.1 566.7 532.2C566.7 532.2 560.1 549.3 523.3 570.4C523.3 570.4 516.7 580.9 551.6 570.4C551.6 570.4 553.5 571.1 553.4 574.7" fill="#546E57"/>
<path d="M176.8 575.2H0V499.5C65.2 533.4 141.8 519 208.5 499.7L277 499.5L341 519.7C435 509.1 451.6 524.7 531.5 462.7C602.4 439.8 673.5 454.5 742.5 467.7C803.4 455 958.8 425.4 1011.5 402.7C1086.9 389.3 1233.3 390.4 1306.5 403.7C1394.7 374 1494.8 289.4 1575.5 246.7C1628.1 230.6 1638 232.1 1690.5 246.7L1742.5 248.7L1802.3 232.7C1833.7 251.6 1883.2 265.9 1920 263.5V575.2H946.8" fill="#546E57"/>
<path d="M0 575.2L0.2 454.1C10.6 440.4 17.1 416.7 17.1 416.7L28.8 430.2C54.5 451.2 46.1 451.2 46.1 451.2C34.9 453.1 44.2 455.9 44.2 455.9C70.4 475.1 68.5 481.1 68.5 481.1C53.1 473.2 55.9 480.2 55.9 480.2C72.2 495.1 55 489.5 55 489.5C55 489.5 105 523.6 78.4 517.5C51.8 511.4 78.9 525.9 78.9 525.9C102.3 543.7 74.2 536.2 74.2 536.2C91 547.9 78.9 551.1 78.9 551.1C106.9 565.1 101.1 575.1 101.1 575.1C79.1 569.5 79 575.1 79.3 575.3" fill="#546E57"/>
</g>
<rect y="571" width="1920" height="5" fill="#546E57"/>
<path d="M444.5 524.12C377.481 528.032 121 539.56 0 537.284V576.29H1920V524.12C1898.17 524.12 1844.5 526.753 1748.5 537.284C1652.5 547.816 1223.17 532.896 1020.5 524.12C855.667 517.456 690 509.79 444.5 524.12Z" fill="#546E57"/>
<defs>
<clipPath id="clip0">
<rect width="1920" height="575.5" fill="white"/>
</clipPath>
</defs>
</svg>
