<svg id="Layer_1" data-name="Layer 1" xmlns="http://www.w3.org/2000/svg" viewBox="0 0 373.32 280.41"><defs><style>.cls-1{fill:#47ad9c;}.cls-2{fill:#303030;}</style></defs><path class="cls-1" d="M242.8,468.89H160.14A5,5,0,0,0,155.5,472l-14.08,34.83a5,5,0,0,1-4.64,3.13h-50a5,5,0,0,1-4.57-7l88.92-201.43a5,5,0,0,1,4.57-3h52.39a5,5,0,0,1,4.57,3L325,510H262.78l-15.35-38A5,5,0,0,0,242.8,468.89Zm-14.15-44.1-27.18-67.66-27.19,67.66Z" transform="translate(-81.81 -298.54)"/><path class="cls-2" d="M311.33,565.35a101.63,101.63,0,0,1-40.19-37.85q-14.62-24.27-14.62-55t14.62-55a101.63,101.63,0,0,1,40.19-37.85q25.57-13.59,57.73-13.59,28.07,0,50.57,9.93A97.62,97.62,0,0,1,453.9,401a5,5,0,0,1-.43,7L424,434.65a5,5,0,0,1-7-.27q-18.92-20.29-45-20.3-16.65,0-29.67,7.31A50.66,50.66,0,0,0,322.15,442Q315,455.31,315,472.54t7.17,30.55a50.66,50.66,0,0,0,20.16,20.61q13,7.31,29.67,7.3,26.08,0,45-20.29a5,5,0,0,1,7-.28l29.5,26.7a5,5,0,0,1,.43,7A97.47,97.47,0,0,1,419.63,569q-22.51,9.94-50.57,9.94Q336.9,578.94,311.33,565.35Z" transform="translate(-81.81 -298.54)"/></svg>