<svg width="1942" height="386" viewBox="0 0 1942 386" fill="none" xmlns="http://www.w3.org/2000/svg">
<line x1="163" y1="33" x2="937" y2="33" stroke="#303030" stroke-width="20" stroke-linecap="round" stroke-linejoin="round"/>
<line x1="957" y1="33" x2="1731" y2="33" stroke="#303030" stroke-width="20" stroke-linecap="round" stroke-linejoin="round"/>
<circle cx="153" cy="33" r="33" fill="#303030"/>
<circle cx="1741" cy="33" r="33" fill="#303030"/>
<circle cx="947" cy="33" r="33" fill="#303030"/>
<path d="M5.625 102.266H22.2539C27.9492 102.266 32.4023 103.602 35.6133 106.273C38.8242 108.922 40.4297 112.602 40.4297 117.312C40.4297 120.969 39.457 124.027 37.5117 126.488C35.5664 128.949 32.8125 130.66 29.25 131.621L42.75 155H35.6133L22.6406 132.5H11.7773V155H5.625V102.266ZM20.9883 126.875C25.2539 126.875 28.5 126.066 30.7266 124.449C32.9766 122.832 34.1016 120.465 34.1016 117.348C34.1016 114.254 32.9883 111.91 30.7617 110.316C28.5352 108.699 25.2773 107.891 20.9883 107.891H11.7773V126.875H20.9883ZM83.9531 137.387V139.742H54.1406C54.7266 142.859 56.2266 145.426 58.6406 147.441C61.0781 149.434 64.0078 150.43 67.4297 150.43C69.3281 150.43 71.332 150.066 73.4414 149.34C75.5508 148.59 77.4727 147.395 79.207 145.754L82.6172 150.113C80.0625 152.246 77.5078 153.711 74.9531 154.508C72.4219 155.305 69.9727 155.703 67.6055 155.703C63.8086 155.703 60.4336 154.918 57.4805 153.348C54.5273 151.754 52.207 149.562 50.5195 146.773C48.8555 143.984 48.0234 140.809 48.0234 137.246C48.0234 133.777 48.8086 130.684 50.3789 127.965C51.9492 125.223 54.1055 123.066 56.8477 121.496C59.5898 119.926 62.6953 119.141 66.1641 119.141C69.6328 119.141 72.7031 119.926 75.375 121.496C78.0469 123.066 80.1445 125.223 81.668 127.965C83.1914 130.707 83.9531 133.848 83.9531 137.387ZM54.0703 134.82H77.9062C77.3906 131.75 76.0664 129.254 73.9336 127.332C71.8008 125.387 69.1992 124.414 66.1289 124.414C63.0117 124.414 60.3516 125.398 58.1484 127.367C55.9453 129.312 54.5859 131.797 54.0703 134.82ZM90.6328 151.59L93.375 146.703C96.1875 149.188 99.1992 150.43 102.41 150.43C104.309 150.43 105.785 149.984 106.84 149.094C107.895 148.203 108.422 147.043 108.422 145.613C108.422 143.809 107.672 142.426 106.172 141.465C104.695 140.48 103.008 139.566 101.109 138.723C99.6328 138.043 98.1797 137.305 96.75 136.508C95.3203 135.711 94.1367 134.703 93.1992 133.484C92.2852 132.266 91.8281 130.684 91.8281 128.738C91.8281 125.879 92.8711 123.57 94.957 121.812C97.0664 120.031 99.7852 119.141 103.113 119.141C104.848 119.141 106.582 119.387 108.316 119.879C110.051 120.348 111.598 121.027 112.957 121.918L110.496 126.418C109.113 125.691 107.883 125.176 106.805 124.871C105.727 124.566 104.602 124.414 103.43 124.414C101.625 124.414 100.207 124.777 99.1758 125.504C98.1445 126.23 97.6289 127.191 97.6289 128.387C97.6289 129.816 98.2969 130.977 99.6328 131.867C100.992 132.734 102.562 133.578 104.344 134.398C105.891 135.102 107.414 135.898 108.914 136.789C110.438 137.656 111.703 138.758 112.711 140.094C113.719 141.43 114.223 143.141 114.223 145.227C114.223 147.289 113.695 149.105 112.641 150.676C111.586 152.246 110.145 153.477 108.316 154.367C106.512 155.258 104.461 155.703 102.164 155.703C100.102 155.703 98.0625 155.34 96.0469 154.613C94.0312 153.887 92.2266 152.879 90.6328 151.59ZM156.867 137.387V139.742H127.055C127.641 142.859 129.141 145.426 131.555 147.441C133.992 149.434 136.922 150.43 140.344 150.43C142.242 150.43 144.246 150.066 146.355 149.34C148.465 148.59 150.387 147.395 152.121 145.754L155.531 150.113C152.977 152.246 150.422 153.711 147.867 154.508C145.336 155.305 142.887 155.703 140.52 155.703C136.723 155.703 133.348 154.918 130.395 153.348C127.441 151.754 125.121 149.562 123.434 146.773C121.77 143.984 120.938 140.809 120.938 137.246C120.938 133.777 121.723 130.684 123.293 127.965C124.863 125.223 127.02 123.066 129.762 121.496C132.504 119.926 135.609 119.141 139.078 119.141C142.547 119.141 145.617 119.926 148.289 121.496C150.961 123.066 153.059 125.223 154.582 127.965C156.105 130.707 156.867 133.848 156.867 137.387ZM126.984 134.82H150.82C150.305 131.75 148.98 129.254 146.848 127.332C144.715 125.387 142.113 124.414 139.043 124.414C135.926 124.414 133.266 125.398 131.062 127.367C128.859 129.312 127.5 131.797 126.984 134.82ZM164.531 144.523C164.531 141.008 165.891 138.219 168.609 136.156C171.352 134.07 175.043 133.027 179.684 133.027C182.824 133.027 185.906 133.508 188.93 134.469V134.047C188.93 131.047 188.062 128.691 186.328 126.98C184.617 125.27 182.262 124.414 179.262 124.414C176.238 124.414 172.957 125.422 169.418 127.438L167.309 122.586C169.676 121.344 171.82 120.465 173.742 119.949C175.664 119.41 177.727 119.141 179.93 119.141C184.43 119.141 188.016 120.512 190.688 123.254C193.383 125.996 194.73 129.664 194.73 134.258V155H189.492L189.176 149.797C188.004 151.648 186.41 153.102 184.395 154.156C182.379 155.188 180.047 155.703 177.398 155.703C173.578 155.703 170.473 154.672 168.082 152.609C165.715 150.547 164.531 147.852 164.531 144.523ZM180.211 138.301C177.164 138.301 174.785 138.852 173.074 139.953C171.363 141.031 170.508 142.555 170.508 144.523C170.508 146.305 171.188 147.734 172.547 148.812C173.93 149.891 175.758 150.43 178.031 150.43C180.094 150.43 181.945 149.996 183.586 149.129C185.227 148.262 186.527 147.09 187.488 145.613C188.449 144.137 188.93 142.484 188.93 140.656V139.707C186.07 138.77 183.164 138.301 180.211 138.301ZM205.312 155V119.844H210.551L210.902 125.363C212.074 123.488 213.586 121.988 215.438 120.863C217.289 119.715 219.504 119.141 222.082 119.141C223.137 119.141 224.238 119.246 225.387 119.457L224.543 124.836C223.395 124.555 222.316 124.414 221.309 124.414C218.074 124.414 215.566 125.609 213.785 128C212.004 130.367 211.113 133.309 211.113 136.824V155H205.312ZM260.332 150.5C258.691 152.141 256.758 153.418 254.531 154.332C252.305 155.246 249.867 155.703 247.219 155.703C243.703 155.703 240.562 154.918 237.797 153.348C235.055 151.754 232.887 149.586 231.293 146.844C229.723 144.078 228.938 140.938 228.938 137.422C228.938 133.906 229.723 130.777 231.293 128.035C232.887 125.27 235.055 123.102 237.797 121.531C240.562 119.938 243.703 119.141 247.219 119.141C249.867 119.141 252.305 119.598 254.531 120.512C256.758 121.426 258.691 122.691 260.332 124.309L256.289 128.352C255.188 127.109 253.863 126.148 252.316 125.469C250.77 124.766 249.07 124.414 247.219 124.414C244.852 124.414 242.742 124.977 240.891 126.102C239.039 127.227 237.574 128.773 236.496 130.742C235.441 132.688 234.914 134.914 234.914 137.422C234.914 139.906 235.441 142.133 236.496 144.102C237.574 146.07 239.039 147.617 240.891 148.742C242.742 149.867 244.852 150.43 247.219 150.43C249.07 150.43 250.77 150.078 252.316 149.375C253.863 148.672 255.188 147.711 256.289 146.492L260.332 150.5ZM269.156 155V102.266H274.957V124.871C276.316 123.066 277.98 121.66 279.949 120.652C281.941 119.645 284.145 119.141 286.559 119.141C289.395 119.141 291.902 119.832 294.082 121.215C296.285 122.574 298.008 124.461 299.25 126.875C300.516 129.289 301.148 132.055 301.148 135.172V155H295.348V135.875C295.348 132.453 294.422 129.688 292.57 127.578C290.742 125.469 288.352 124.414 285.398 124.414C283.406 124.414 281.625 124.906 280.055 125.891C278.484 126.852 277.242 128.164 276.328 129.828C275.414 131.492 274.957 133.391 274.957 135.523V155H269.156Z" fill="#303030"/>
<path d="M3.75 228.453V225.875H22.5V228.453H3.75ZM42.6562 239V203.844H54.2812C58.0312 203.844 60.9766 204.766 63.1172 206.609C65.2578 208.453 66.3281 210.984 66.3281 214.203C66.3281 217.422 65.2578 219.953 63.1172 221.797C60.9766 223.641 58.0312 224.562 54.2812 224.562H45.8203V239H42.6562ZM54.1406 206.773H45.8203V221.633H54.1406C56.875 221.633 59.0391 220.961 60.6328 219.617C62.2422 218.273 63.0469 216.469 63.0469 214.203C63.0469 211.922 62.2422 210.117 60.6328 208.789C59.0391 207.445 56.875 206.773 54.1406 206.773ZM72.4219 215.562H75.0938L75.375 219.852C76.2031 218.367 77.3125 217.203 78.7031 216.359C80.1094 215.516 81.7031 215.094 83.4844 215.094C84.0781 215.094 84.6875 215.141 85.3125 215.234L84.8672 218.07C84.3203 217.961 83.7578 217.906 83.1797 217.906C80.9609 217.906 79.1484 218.688 77.7422 220.25C76.3359 221.797 75.5781 223.875 75.4688 226.484V239H72.4219V215.562ZM88.125 227.281C88.125 224.938 88.6406 222.852 89.6719 221.023C90.7188 219.18 92.1484 217.734 93.9609 216.688C95.7734 215.625 97.8359 215.094 100.148 215.094C102.461 215.094 104.523 215.625 106.336 216.688C108.148 217.734 109.57 219.18 110.602 221.023C111.648 222.852 112.172 224.938 112.172 227.281C112.172 229.625 111.648 231.719 110.602 233.562C109.57 235.391 108.148 236.836 106.336 237.898C104.523 238.945 102.461 239.469 100.148 239.469C97.8359 239.469 95.7734 238.945 93.9609 237.898C92.1484 236.836 90.7188 235.391 89.6719 233.562C88.6406 231.719 88.125 229.625 88.125 227.281ZM91.3125 227.281C91.3125 229.078 91.6953 230.688 92.4609 232.109C93.2266 233.516 94.2734 234.625 95.6016 235.438C96.9297 236.25 98.4453 236.656 100.148 236.656C101.852 236.656 103.367 236.25 104.695 235.438C106.023 234.625 107.07 233.516 107.836 232.109C108.602 230.688 108.984 229.078 108.984 227.281C108.984 225.469 108.602 223.859 107.836 222.453C107.07 221.047 106.023 219.938 104.695 219.125C103.367 218.312 101.852 217.906 100.148 217.906C98.4453 217.906 96.9297 218.312 95.6016 219.125C94.2734 219.938 93.2266 221.047 92.4609 222.453C91.6953 223.859 91.3125 225.469 91.3125 227.281ZM118.734 215.562H121.406L121.617 218.844C122.523 217.672 123.641 216.758 124.969 216.102C126.312 215.43 127.766 215.094 129.328 215.094C131.188 215.094 132.852 215.555 134.32 216.477C135.789 217.398 136.906 218.664 137.672 220.273C138.516 218.68 139.695 217.422 141.211 216.5C142.742 215.562 144.438 215.094 146.297 215.094C148.094 215.094 149.703 215.523 151.125 216.383C152.547 217.242 153.672 218.445 154.5 219.992C155.328 221.523 155.742 223.305 155.742 225.336V239H152.648V226.039C152.648 224.227 152.312 222.719 151.641 221.516C150.969 220.312 150.102 219.414 149.039 218.82C147.977 218.211 146.867 217.906 145.711 217.906C144.602 217.906 143.523 218.195 142.477 218.773C141.445 219.336 140.586 220.188 139.898 221.328C139.227 222.469 138.852 223.898 138.773 225.617V239H135.656V226.039C135.656 224.648 135.391 223.336 134.859 222.102C134.344 220.867 133.57 219.859 132.539 219.078C131.523 218.297 130.258 217.906 128.742 217.906C127.617 217.906 126.539 218.195 125.508 218.773C124.477 219.336 123.617 220.188 122.93 221.328C122.258 222.469 121.883 223.898 121.805 225.617H121.781V239H118.734V215.562ZM163.734 250.719V215.562H166.406L166.688 219.781C167.734 218.328 169.078 217.188 170.719 216.359C172.359 215.516 174.172 215.094 176.156 215.094C178.422 215.094 180.445 215.625 182.227 216.688C184.008 217.734 185.406 219.18 186.422 221.023C187.453 222.852 187.969 224.938 187.969 227.281C187.969 229.609 187.453 231.695 186.422 233.539C185.406 235.383 184.008 236.836 182.227 237.898C180.445 238.945 178.422 239.469 176.156 239.469C174.188 239.469 172.398 239.062 170.789 238.25C169.18 237.438 167.844 236.328 166.781 234.922V250.719H163.734ZM175.805 217.906C174.07 217.906 172.523 218.312 171.164 219.125C169.805 219.938 168.734 221.047 167.953 222.453C167.172 223.859 166.781 225.469 166.781 227.281C166.781 229.078 167.172 230.688 167.953 232.109C168.734 233.516 169.805 234.625 171.164 235.438C172.523 236.25 174.07 236.656 175.805 236.656C177.539 236.656 179.086 236.25 180.445 235.438C181.82 234.625 182.898 233.516 183.68 232.109C184.461 230.688 184.852 229.078 184.852 227.281C184.852 225.469 184.461 223.859 183.68 222.453C182.898 221.047 181.828 219.938 180.469 219.125C179.109 218.312 177.555 217.906 175.805 217.906ZM196.922 218.375H192.891V215.562H196.922V209.703H199.969V215.562H206.625V218.375H199.969V231.828C199.969 233.547 200.336 234.805 201.07 235.602C201.82 236.398 202.969 236.797 204.516 236.797C204.844 236.797 205.188 236.781 205.547 236.75C205.906 236.703 206.266 236.625 206.625 236.516V238.977C206.234 239.133 205.789 239.258 205.289 239.352C204.805 239.445 204.25 239.492 203.625 239.492C201.453 239.492 199.789 238.859 198.633 237.594C197.492 236.328 196.922 234.516 196.922 232.156V218.375ZM222.797 239L236.531 203.844H240.023L253.758 239H250.477L246.797 229.602H229.875L226.195 239H222.797ZM236.344 213.008L231 226.672H245.672L240.328 213.008C240.016 212.18 239.68 211.266 239.32 210.266C238.961 209.266 238.625 208.25 238.312 207.219C238.016 208.188 237.688 209.188 237.328 210.219C236.984 211.25 236.656 212.18 236.344 213.008ZM258.938 239V215.562H261.609L261.867 219.453C262.789 218.109 263.953 217.047 265.359 216.266C266.781 215.484 268.344 215.094 270.047 215.094C271.906 215.094 273.539 215.555 274.945 216.477C276.352 217.398 277.445 218.688 278.227 220.344C279.023 221.984 279.422 223.898 279.422 226.086V239H276.375V226.227C276.375 223.664 275.758 221.641 274.523 220.156C273.289 218.656 271.617 217.906 269.508 217.906C268.102 217.906 266.836 218.234 265.711 218.891C264.602 219.547 263.719 220.453 263.062 221.609C262.406 222.75 262.047 224.07 261.984 225.57V239H258.938ZM286.406 232.18C286.406 229.867 287.281 228.016 289.031 226.625C290.781 225.234 293.094 224.539 295.969 224.539C298.234 224.539 300.469 224.969 302.672 225.828V224.961C302.672 222.711 302.031 220.977 300.75 219.758C299.484 218.523 297.859 217.906 295.875 217.906C294.906 217.906 293.875 218.062 292.781 218.375C291.703 218.688 290.594 219.164 289.453 219.805L288.375 217.227C289.781 216.477 291.148 215.938 292.477 215.609C293.82 215.266 295.07 215.094 296.227 215.094C299.023 215.094 301.305 215.953 303.07 217.672C304.836 219.391 305.719 221.812 305.719 224.938V239H303.047L302.812 235.203C302.062 236.547 301 237.594 299.625 238.344C298.25 239.094 296.633 239.469 294.773 239.469C292.242 239.469 290.211 238.797 288.68 237.453C287.164 236.109 286.406 234.352 286.406 232.18ZM296.367 227.352C294.258 227.352 292.602 227.781 291.398 228.641C290.195 229.5 289.594 230.688 289.594 232.203C289.594 233.562 290.078 234.648 291.047 235.461C292.031 236.258 293.352 236.656 295.008 236.656C296.414 236.656 297.68 236.367 298.805 235.789C299.945 235.195 300.859 234.391 301.547 233.375C302.234 232.359 302.609 231.211 302.672 229.93V228.547C300.578 227.75 298.477 227.352 296.367 227.352ZM316.5 202.906V239H313.453V202.906H316.5ZM323.062 215.562H326.227L332.133 228.5C332.789 229.922 333.336 231.188 333.773 232.297C334.211 233.391 334.594 234.477 334.922 235.555L343.195 215.562H346.406L331.641 251.188H328.43L333.586 238.742L323.062 215.562ZM349.922 237.008L351.164 234.641C351.898 235.219 352.891 235.703 354.141 236.094C355.406 236.469 356.602 236.656 357.727 236.656C359.07 236.656 360.141 236.32 360.938 235.648C361.734 234.961 362.133 234.047 362.133 232.906C362.133 231.922 361.852 231.109 361.289 230.469C360.742 229.828 360.031 229.281 359.156 228.828C358.281 228.375 357.352 227.945 356.367 227.539C355.383 227.117 354.453 226.648 353.578 226.133C352.703 225.602 351.984 224.953 351.422 224.188C350.875 223.422 350.602 222.453 350.602 221.281C350.602 219.484 351.312 218.008 352.734 216.852C354.172 215.68 356 215.094 358.219 215.094C360.266 215.094 362.234 215.633 364.125 216.711L362.883 219.055C361.383 218.289 359.836 217.906 358.242 217.906C356.867 217.906 355.758 218.203 354.914 218.797C354.07 219.375 353.648 220.141 353.648 221.094C353.648 221.875 353.922 222.547 354.469 223.109C355.031 223.656 355.75 224.156 356.625 224.609C357.5 225.062 358.43 225.523 359.414 225.992C360.398 226.461 361.328 226.992 362.203 227.586C363.078 228.18 363.789 228.906 364.336 229.766C364.898 230.625 365.18 231.672 365.18 232.906C365.18 234.891 364.461 236.484 363.023 237.688C361.602 238.875 359.695 239.469 357.305 239.469C354.695 239.469 352.234 238.648 349.922 237.008ZM371.25 205.672C371.25 204.984 371.461 204.43 371.883 204.008C372.32 203.586 372.875 203.375 373.547 203.375C374.234 203.375 374.789 203.586 375.211 204.008C375.633 204.43 375.844 204.984 375.844 205.672C375.844 206.359 375.633 206.914 375.211 207.336C374.789 207.758 374.234 207.969 373.547 207.969C372.875 207.969 372.32 207.758 371.883 207.336C371.461 206.914 371.25 206.359 371.25 205.672ZM372.023 239V215.562H375.07V239H372.023ZM381.891 237.008L383.133 234.641C383.867 235.219 384.859 235.703 386.109 236.094C387.375 236.469 388.57 236.656 389.695 236.656C391.039 236.656 392.109 236.32 392.906 235.648C393.703 234.961 394.102 234.047 394.102 232.906C394.102 231.922 393.82 231.109 393.258 230.469C392.711 229.828 392 229.281 391.125 228.828C390.25 228.375 389.32 227.945 388.336 227.539C387.352 227.117 386.422 226.648 385.547 226.133C384.672 225.602 383.953 224.953 383.391 224.188C382.844 223.422 382.57 222.453 382.57 221.281C382.57 219.484 383.281 218.008 384.703 216.852C386.141 215.68 387.969 215.094 390.188 215.094C392.234 215.094 394.203 215.633 396.094 216.711L394.852 219.055C393.352 218.289 391.805 217.906 390.211 217.906C388.836 217.906 387.727 218.203 386.883 218.797C386.039 219.375 385.617 220.141 385.617 221.094C385.617 221.875 385.891 222.547 386.438 223.109C387 223.656 387.719 224.156 388.594 224.609C389.469 225.062 390.398 225.523 391.383 225.992C392.367 226.461 393.297 226.992 394.172 227.586C395.047 228.18 395.758 228.906 396.305 229.766C396.867 230.625 397.148 231.672 397.148 232.906C397.148 234.891 396.43 236.484 394.992 237.688C393.57 238.875 391.664 239.469 389.273 239.469C386.664 239.469 384.203 238.648 381.891 237.008ZM3.75 295.453V292.875H22.5V295.453H3.75ZM42.6562 306V270.844H52.6641C56.3516 270.844 59.1797 271.617 61.1484 273.164C63.1328 274.695 64.125 276.898 64.125 279.773C64.125 283.383 62.3828 285.969 58.8984 287.531C63.2891 289.078 65.4844 292.07 65.4844 296.508C65.4844 299.523 64.4062 301.859 62.25 303.516C60.0938 305.172 57.0391 306 53.0859 306H42.6562ZM53.1797 273.773H45.8203V286.219H53.1797C55.6484 286.219 57.5391 285.688 58.8516 284.625C60.1797 283.547 60.8438 281.992 60.8438 279.961C60.8438 277.945 60.1875 276.414 58.875 275.367C57.5781 274.305 55.6797 273.773 53.1797 273.773ZM45.8203 289.148V303.07H53.6484C56.4141 303.07 58.5312 302.477 60 301.289C61.4688 300.102 62.2031 298.391 62.2031 296.156C62.2031 293.875 61.4453 292.141 59.9297 290.953C58.4297 289.75 56.2344 289.148 53.3438 289.148H45.8203ZM72.6562 282.562H75.3281L75.6094 286.852C76.4375 285.367 77.5469 284.203 78.9375 283.359C80.3438 282.516 81.9375 282.094 83.7188 282.094C84.3125 282.094 84.9219 282.141 85.5469 282.234L85.1016 285.07C84.5547 284.961 83.9922 284.906 83.4141 284.906C81.1953 284.906 79.3828 285.688 77.9766 287.25C76.5703 288.797 75.8125 290.875 75.7031 293.484V306H72.6562V282.562ZM89.25 299.18C89.25 296.867 90.125 295.016 91.875 293.625C93.625 292.234 95.9375 291.539 98.8125 291.539C101.078 291.539 103.312 291.969 105.516 292.828V291.961C105.516 289.711 104.875 287.977 103.594 286.758C102.328 285.523 100.703 284.906 98.7188 284.906C97.75 284.906 96.7188 285.062 95.625 285.375C94.5469 285.688 93.4375 286.164 92.2969 286.805L91.2188 284.227C92.625 283.477 93.9922 282.938 95.3203 282.609C96.6641 282.266 97.9141 282.094 99.0703 282.094C101.867 282.094 104.148 282.953 105.914 284.672C107.68 286.391 108.562 288.812 108.562 291.938V306H105.891L105.656 302.203C104.906 303.547 103.844 304.594 102.469 305.344C101.094 306.094 99.4766 306.469 97.6172 306.469C95.0859 306.469 93.0547 305.797 91.5234 304.453C90.0078 303.109 89.25 301.352 89.25 299.18ZM99.2109 294.352C97.1016 294.352 95.4453 294.781 94.2422 295.641C93.0391 296.5 92.4375 297.688 92.4375 299.203C92.4375 300.562 92.9219 301.648 93.8906 302.461C94.875 303.258 96.1953 303.656 97.8516 303.656C99.2578 303.656 100.523 303.367 101.648 302.789C102.789 302.195 103.703 301.391 104.391 300.375C105.078 299.359 105.453 298.211 105.516 296.93V295.547C103.422 294.75 101.32 294.352 99.2109 294.352ZM115.547 272.672C115.547 271.984 115.758 271.43 116.18 271.008C116.617 270.586 117.172 270.375 117.844 270.375C118.531 270.375 119.086 270.586 119.508 271.008C119.93 271.43 120.141 271.984 120.141 272.672C120.141 273.359 119.93 273.914 119.508 274.336C119.086 274.758 118.531 274.969 117.844 274.969C117.172 274.969 116.617 274.758 116.18 274.336C115.758 273.914 115.547 273.359 115.547 272.672ZM116.32 306V282.562H119.367V306H116.32ZM127.828 306V282.562H130.5L130.758 286.453C131.68 285.109 132.844 284.047 134.25 283.266C135.672 282.484 137.234 282.094 138.938 282.094C140.797 282.094 142.43 282.555 143.836 283.477C145.242 284.398 146.336 285.688 147.117 287.344C147.914 288.984 148.312 290.898 148.312 293.086V306H145.266V293.227C145.266 290.664 144.648 288.641 143.414 287.156C142.18 285.656 140.508 284.906 138.398 284.906C136.992 284.906 135.727 285.234 134.602 285.891C133.492 286.547 132.609 287.453 131.953 288.609C131.297 289.75 130.938 291.07 130.875 292.57V306H127.828ZM154.641 304.008L155.883 301.641C156.617 302.219 157.609 302.703 158.859 303.094C160.125 303.469 161.32 303.656 162.445 303.656C163.789 303.656 164.859 303.32 165.656 302.648C166.453 301.961 166.852 301.047 166.852 299.906C166.852 298.922 166.57 298.109 166.008 297.469C165.461 296.828 164.75 296.281 163.875 295.828C163 295.375 162.07 294.945 161.086 294.539C160.102 294.117 159.172 293.648 158.297 293.133C157.422 292.602 156.703 291.953 156.141 291.188C155.594 290.422 155.32 289.453 155.32 288.281C155.32 286.484 156.031 285.008 157.453 283.852C158.891 282.68 160.719 282.094 162.938 282.094C164.984 282.094 166.953 282.633 168.844 283.711L167.602 286.055C166.102 285.289 164.555 284.906 162.961 284.906C161.586 284.906 160.477 285.203 159.633 285.797C158.789 286.375 158.367 287.141 158.367 288.094C158.367 288.875 158.641 289.547 159.188 290.109C159.75 290.656 160.469 291.156 161.344 291.609C162.219 292.062 163.148 292.523 164.133 292.992C165.117 293.461 166.047 293.992 166.922 294.586C167.797 295.18 168.508 295.906 169.055 296.766C169.617 297.625 169.898 298.672 169.898 299.906C169.898 301.891 169.18 303.484 167.742 304.688C166.32 305.875 164.414 306.469 162.023 306.469C159.414 306.469 156.953 305.648 154.641 304.008ZM179.109 285.375H175.078V282.562H179.109V276.703H182.156V282.562H188.812V285.375H182.156V298.828C182.156 300.547 182.523 301.805 183.258 302.602C184.008 303.398 185.156 303.797 186.703 303.797C187.031 303.797 187.375 303.781 187.734 303.75C188.094 303.703 188.453 303.625 188.812 303.516V305.977C188.422 306.133 187.977 306.258 187.477 306.352C186.992 306.445 186.438 306.492 185.812 306.492C183.641 306.492 181.977 305.859 180.82 304.594C179.68 303.328 179.109 301.516 179.109 299.156V285.375ZM194.203 294.281C194.203 291.938 194.719 289.852 195.75 288.023C196.797 286.18 198.227 284.734 200.039 283.688C201.852 282.625 203.914 282.094 206.227 282.094C208.539 282.094 210.602 282.625 212.414 283.688C214.227 284.734 215.648 286.18 216.68 288.023C217.727 289.852 218.25 291.938 218.25 294.281C218.25 296.625 217.727 298.719 216.68 300.562C215.648 302.391 214.227 303.836 212.414 304.898C210.602 305.945 208.539 306.469 206.227 306.469C203.914 306.469 201.852 305.945 200.039 304.898C198.227 303.836 196.797 302.391 195.75 300.562C194.719 298.719 194.203 296.625 194.203 294.281ZM197.391 294.281C197.391 296.078 197.773 297.688 198.539 299.109C199.305 300.516 200.352 301.625 201.68 302.438C203.008 303.25 204.523 303.656 206.227 303.656C207.93 303.656 209.445 303.25 210.773 302.438C212.102 301.625 213.148 300.516 213.914 299.109C214.68 297.688 215.062 296.078 215.062 294.281C215.062 292.469 214.68 290.859 213.914 289.453C213.148 288.047 212.102 286.938 210.773 286.125C209.445 285.312 207.93 284.906 206.227 284.906C204.523 284.906 203.008 285.312 201.68 286.125C200.352 286.938 199.305 288.047 198.539 289.453C197.773 290.859 197.391 292.469 197.391 294.281ZM224.812 282.562H227.484L227.766 286.852C228.594 285.367 229.703 284.203 231.094 283.359C232.5 282.516 234.094 282.094 235.875 282.094C236.469 282.094 237.078 282.141 237.703 282.234L237.258 285.07C236.711 284.961 236.148 284.906 235.57 284.906C233.352 284.906 231.539 285.688 230.133 287.25C228.727 288.797 227.969 290.875 227.859 293.484V306H224.812V282.562ZM242.391 282.562H245.062L245.273 285.844C246.18 284.672 247.297 283.758 248.625 283.102C249.969 282.43 251.422 282.094 252.984 282.094C254.844 282.094 256.508 282.555 257.977 283.477C259.445 284.398 260.562 285.664 261.328 287.273C262.172 285.68 263.352 284.422 264.867 283.5C266.398 282.562 268.094 282.094 269.953 282.094C271.75 282.094 273.359 282.523 274.781 283.383C276.203 284.242 277.328 285.445 278.156 286.992C278.984 288.523 279.398 290.305 279.398 292.336V306H276.305V293.039C276.305 291.227 275.969 289.719 275.297 288.516C274.625 287.312 273.758 286.414 272.695 285.82C271.633 285.211 270.523 284.906 269.367 284.906C268.258 284.906 267.18 285.195 266.133 285.773C265.102 286.336 264.242 287.188 263.555 288.328C262.883 289.469 262.508 290.898 262.43 292.617V306H259.312V293.039C259.312 291.648 259.047 290.336 258.516 289.102C258 287.867 257.227 286.859 256.195 286.078C255.18 285.297 253.914 284.906 252.398 284.906C251.273 284.906 250.195 285.195 249.164 285.773C248.133 286.336 247.273 287.188 246.586 288.328C245.914 289.469 245.539 290.898 245.461 292.617H245.438V306H242.391V282.562ZM286.641 272.672C286.641 271.984 286.852 271.43 287.273 271.008C287.711 270.586 288.266 270.375 288.938 270.375C289.625 270.375 290.18 270.586 290.602 271.008C291.023 271.43 291.234 271.984 291.234 272.672C291.234 273.359 291.023 273.914 290.602 274.336C290.18 274.758 289.625 274.969 288.938 274.969C288.266 274.969 287.711 274.758 287.273 274.336C286.852 273.914 286.641 273.359 286.641 272.672ZM287.414 306V282.562H290.461V306H287.414ZM298.922 306V282.562H301.594L301.852 286.453C302.773 285.109 303.938 284.047 305.344 283.266C306.766 282.484 308.328 282.094 310.031 282.094C311.891 282.094 313.523 282.555 314.93 283.477C316.336 284.398 317.43 285.688 318.211 287.344C319.008 288.984 319.406 290.898 319.406 293.086V306H316.359V293.227C316.359 290.664 315.742 288.641 314.508 287.156C313.273 285.656 311.602 284.906 309.492 284.906C308.086 284.906 306.82 285.234 305.695 285.891C304.586 286.547 303.703 287.453 303.047 288.609C302.391 289.75 302.031 291.07 301.969 292.57V306H298.922ZM336.938 306.516C334.75 306.516 332.789 305.992 331.055 304.945C329.336 303.883 327.977 302.43 326.977 300.586C325.992 298.742 325.5 296.648 325.5 294.305C325.5 291.961 325.992 289.867 326.977 288.023C327.977 286.18 329.336 284.734 331.055 283.688C332.789 282.625 334.75 282.094 336.938 282.094C338.844 282.094 340.578 282.5 342.141 283.312C343.703 284.125 344.992 285.227 346.008 286.617L346.266 282.562H348.938V304.242C348.938 308.805 347.812 312.344 345.562 314.859C343.312 317.391 340.141 318.656 336.047 318.656C332.719 318.656 329.922 317.805 327.656 316.102L329.133 313.547C330.977 315.078 333.266 315.844 336 315.844C339.125 315.844 341.555 314.828 343.289 312.797C345.023 310.766 345.891 307.922 345.891 304.266V302.133C344.859 303.492 343.57 304.562 342.023 305.344C340.492 306.125 338.797 306.516 336.938 306.516ZM337.289 284.906C335.633 284.906 334.156 285.312 332.859 286.125C331.562 286.938 330.539 288.055 329.789 289.477C329.055 290.883 328.688 292.492 328.688 294.305C328.688 296.102 329.055 297.711 329.789 299.133C330.539 300.555 331.562 301.672 332.859 302.484C334.156 303.297 335.633 303.703 337.289 303.703C338.945 303.703 340.422 303.297 341.719 302.484C343.016 301.672 344.031 300.555 344.766 299.133C345.516 297.711 345.891 296.102 345.891 294.305C345.891 292.492 345.516 290.883 344.766 289.477C344.031 288.055 343.016 286.938 341.719 286.125C340.422 285.312 338.945 284.906 337.289 284.906ZM369.562 306V270.844H381.188C384.938 270.844 387.883 271.766 390.023 273.609C392.164 275.453 393.234 277.984 393.234 281.203C393.234 284.422 392.164 286.953 390.023 288.797C387.883 290.641 384.938 291.562 381.188 291.562H372.727V306H369.562ZM381.047 273.773H372.727V288.633H381.047C383.781 288.633 385.945 287.961 387.539 286.617C389.148 285.273 389.953 283.469 389.953 281.203C389.953 278.922 389.148 277.117 387.539 275.789C385.945 274.445 383.781 273.773 381.047 273.773ZM398.344 299.18C398.344 296.867 399.219 295.016 400.969 293.625C402.719 292.234 405.031 291.539 407.906 291.539C410.172 291.539 412.406 291.969 414.609 292.828V291.961C414.609 289.711 413.969 287.977 412.688 286.758C411.422 285.523 409.797 284.906 407.812 284.906C406.844 284.906 405.812 285.062 404.719 285.375C403.641 285.688 402.531 286.164 401.391 286.805L400.312 284.227C401.719 283.477 403.086 282.938 404.414 282.609C405.758 282.266 407.008 282.094 408.164 282.094C410.961 282.094 413.242 282.953 415.008 284.672C416.773 286.391 417.656 288.812 417.656 291.938V306H414.984L414.75 302.203C414 303.547 412.938 304.594 411.562 305.344C410.188 306.094 408.57 306.469 406.711 306.469C404.18 306.469 402.148 305.797 400.617 304.453C399.102 303.109 398.344 301.352 398.344 299.18ZM408.305 294.352C406.195 294.352 404.539 294.781 403.336 295.641C402.133 296.5 401.531 297.688 401.531 299.203C401.531 300.562 402.016 301.648 402.984 302.461C403.969 303.258 405.289 303.656 406.945 303.656C408.352 303.656 409.617 303.367 410.742 302.789C411.883 302.195 412.797 301.391 413.484 300.375C414.172 299.359 414.547 298.211 414.609 296.93V295.547C412.516 294.75 410.414 294.352 408.305 294.352ZM424.641 272.672C424.641 271.984 424.852 271.43 425.273 271.008C425.711 270.586 426.266 270.375 426.938 270.375C427.625 270.375 428.18 270.586 428.602 271.008C429.023 271.43 429.234 271.984 429.234 272.672C429.234 273.359 429.023 273.914 428.602 274.336C428.18 274.758 427.625 274.969 426.938 274.969C426.266 274.969 425.711 274.758 425.273 274.336C424.852 273.914 424.641 273.359 424.641 272.672ZM425.414 306V282.562H428.461V306H425.414ZM436.922 306V282.562H439.594L439.852 286.453C440.773 285.109 441.938 284.047 443.344 283.266C444.766 282.484 446.328 282.094 448.031 282.094C449.891 282.094 451.523 282.555 452.93 283.477C454.336 284.398 455.43 285.688 456.211 287.344C457.008 288.984 457.406 290.898 457.406 293.086V306H454.359V293.227C454.359 290.664 453.742 288.641 452.508 287.156C451.273 285.656 449.602 284.906 447.492 284.906C446.086 284.906 444.82 285.234 443.695 285.891C442.586 286.547 441.703 287.453 441.047 288.609C440.391 289.75 440.031 291.07 439.969 292.57V306H436.922ZM477.562 306V270.844H489.188C492.938 270.844 495.883 271.766 498.023 273.609C500.164 275.453 501.234 277.984 501.234 281.203C501.234 284.422 500.164 286.953 498.023 288.797C495.883 290.641 492.938 291.562 489.188 291.562H480.727V306H477.562ZM489.047 273.773H480.727V288.633H489.047C491.781 288.633 493.945 287.961 495.539 286.617C497.148 285.273 497.953 283.469 497.953 281.203C497.953 278.922 497.148 277.117 495.539 275.789C493.945 274.445 491.781 273.773 489.047 273.773ZM505.453 294.281C505.453 291.938 505.969 289.852 507 288.023C508.047 286.18 509.477 284.734 511.289 283.688C513.102 282.625 515.164 282.094 517.477 282.094C519.789 282.094 521.852 282.625 523.664 283.688C525.477 284.734 526.898 286.18 527.93 288.023C528.977 289.852 529.5 291.938 529.5 294.281C529.5 296.625 528.977 298.719 527.93 300.562C526.898 302.391 525.477 303.836 523.664 304.898C521.852 305.945 519.789 306.469 517.477 306.469C515.164 306.469 513.102 305.945 511.289 304.898C509.477 303.836 508.047 302.391 507 300.562C505.969 298.719 505.453 296.625 505.453 294.281ZM508.641 294.281C508.641 296.078 509.023 297.688 509.789 299.109C510.555 300.516 511.602 301.625 512.93 302.438C514.258 303.25 515.773 303.656 517.477 303.656C519.18 303.656 520.695 303.25 522.023 302.438C523.352 301.625 524.398 300.516 525.164 299.109C525.93 297.688 526.312 296.078 526.312 294.281C526.312 292.469 525.93 290.859 525.164 289.453C524.398 288.047 523.352 286.938 522.023 286.125C520.695 285.312 519.18 284.906 517.477 284.906C515.773 284.906 514.258 285.312 512.93 286.125C511.602 286.938 510.555 288.047 509.789 289.453C509.023 290.859 508.641 292.469 508.641 294.281ZM535.312 272.672C535.312 271.984 535.523 271.43 535.945 271.008C536.383 270.586 536.938 270.375 537.609 270.375C538.297 270.375 538.852 270.586 539.273 271.008C539.695 271.43 539.906 271.984 539.906 272.672C539.906 273.359 539.695 273.914 539.273 274.336C538.852 274.758 538.297 274.969 537.609 274.969C536.938 274.969 536.383 274.758 535.945 274.336C535.523 273.914 535.312 273.359 535.312 272.672ZM536.086 306V282.562H539.133V306H536.086ZM547.594 306V282.562H550.266L550.523 286.453C551.445 285.109 552.609 284.047 554.016 283.266C555.438 282.484 557 282.094 558.703 282.094C560.562 282.094 562.195 282.555 563.602 283.477C565.008 284.398 566.102 285.688 566.883 287.344C567.68 288.984 568.078 290.898 568.078 293.086V306H565.031V293.227C565.031 290.664 564.414 288.641 563.18 287.156C561.945 285.656 560.273 284.906 558.164 284.906C556.758 284.906 555.492 285.234 554.367 285.891C553.258 286.547 552.375 287.453 551.719 288.609C551.062 289.75 550.703 291.07 550.641 292.57V306H547.594ZM578.438 285.375H574.406V282.562H578.438V276.703H581.484V282.562H588.141V285.375H581.484V298.828C581.484 300.547 581.852 301.805 582.586 302.602C583.336 303.398 584.484 303.797 586.031 303.797C586.359 303.797 586.703 303.781 587.062 303.75C587.422 303.703 587.781 303.625 588.141 303.516V305.977C587.75 306.133 587.305 306.258 586.805 306.352C586.32 306.445 585.766 306.492 585.141 306.492C582.969 306.492 581.305 305.859 580.148 304.594C579.008 303.328 578.438 301.516 578.438 299.156V285.375ZM593.766 304.008L595.008 301.641C595.742 302.219 596.734 302.703 597.984 303.094C599.25 303.469 600.445 303.656 601.57 303.656C602.914 303.656 603.984 303.32 604.781 302.648C605.578 301.961 605.977 301.047 605.977 299.906C605.977 298.922 605.695 298.109 605.133 297.469C604.586 296.828 603.875 296.281 603 295.828C602.125 295.375 601.195 294.945 600.211 294.539C599.227 294.117 598.297 293.648 597.422 293.133C596.547 292.602 595.828 291.953 595.266 291.188C594.719 290.422 594.445 289.453 594.445 288.281C594.445 286.484 595.156 285.008 596.578 283.852C598.016 282.68 599.844 282.094 602.062 282.094C604.109 282.094 606.078 282.633 607.969 283.711L606.727 286.055C605.227 285.289 603.68 284.906 602.086 284.906C600.711 284.906 599.602 285.203 598.758 285.797C597.914 286.375 597.492 287.141 597.492 288.094C597.492 288.875 597.766 289.547 598.312 290.109C598.875 290.656 599.594 291.156 600.469 291.609C601.344 292.062 602.273 292.523 603.258 292.992C604.242 293.461 605.172 293.992 606.047 294.586C606.922 295.18 607.633 295.906 608.18 296.766C608.742 297.625 609.023 298.672 609.023 299.906C609.023 301.891 608.305 303.484 606.867 304.688C605.445 305.875 603.539 306.469 601.148 306.469C598.539 306.469 596.078 305.648 593.766 304.008ZM3.75 362.453V359.875H22.5V362.453H3.75ZM42.6562 357.602V337.844H45.8203V357.578C45.8203 360.266 46.2891 362.602 47.2266 364.586C48.1641 366.555 49.4609 368.078 51.1172 369.156C52.7891 370.234 54.7109 370.773 56.8828 370.773C59.0547 370.773 60.9688 370.234 62.625 369.156C64.2812 368.078 65.5781 366.555 66.5156 364.586C67.4531 362.617 67.9219 360.289 67.9219 357.602V337.844H71.0859V357.602C71.0859 360.914 70.5078 363.781 69.3516 366.203C68.2109 368.609 66.5781 370.461 64.4531 371.758C62.3438 373.055 59.8203 373.703 56.8828 373.703C53.9453 373.703 51.4141 373.055 49.2891 371.758C47.1641 370.461 45.5234 368.609 44.3672 366.203C43.2266 363.781 42.6562 360.914 42.6562 357.602ZM77.9062 371.008L79.1484 368.641C79.8828 369.219 80.875 369.703 82.125 370.094C83.3906 370.469 84.5859 370.656 85.7109 370.656C87.0547 370.656 88.125 370.32 88.9219 369.648C89.7188 368.961 90.1172 368.047 90.1172 366.906C90.1172 365.922 89.8359 365.109 89.2734 364.469C88.7266 363.828 88.0156 363.281 87.1406 362.828C86.2656 362.375 85.3359 361.945 84.3516 361.539C83.3672 361.117 82.4375 360.648 81.5625 360.133C80.6875 359.602 79.9688 358.953 79.4062 358.188C78.8594 357.422 78.5859 356.453 78.5859 355.281C78.5859 353.484 79.2969 352.008 80.7188 350.852C82.1562 349.68 83.9844 349.094 86.2031 349.094C88.25 349.094 90.2188 349.633 92.1094 350.711L90.8672 353.055C89.3672 352.289 87.8203 351.906 86.2266 351.906C84.8516 351.906 83.7422 352.203 82.8984 352.797C82.0547 353.375 81.6328 354.141 81.6328 355.094C81.6328 355.875 81.9062 356.547 82.4531 357.109C83.0156 357.656 83.7344 358.156 84.6094 358.609C85.4844 359.062 86.4141 359.523 87.3984 359.992C88.3828 360.461 89.3125 360.992 90.1875 361.586C91.0625 362.18 91.7734 362.906 92.3203 363.766C92.8828 364.625 93.1641 365.672 93.1641 366.906C93.1641 368.891 92.4453 370.484 91.0078 371.688C89.5859 372.875 87.6797 373.469 85.2891 373.469C82.6797 373.469 80.2188 372.648 77.9062 371.008ZM110.883 373.469C108.461 373.469 106.281 372.93 104.344 371.852C102.422 370.773 100.898 369.305 99.7734 367.445C98.6641 365.586 98.1094 363.492 98.1094 361.164C98.1094 358.867 98.6328 356.812 99.6797 355C100.727 353.172 102.148 351.734 103.945 350.688C105.742 349.625 107.773 349.094 110.039 349.094C112.242 349.094 114.203 349.602 115.922 350.617C117.656 351.633 119.016 353.031 120 354.812C120.984 356.578 121.477 358.594 121.477 360.859V362.242H101.297C101.484 363.961 102.047 365.453 102.984 366.719C103.938 367.984 105.125 368.961 106.547 369.648C107.969 370.32 109.484 370.656 111.094 370.656C113.953 370.656 116.484 369.648 118.688 367.633L120.445 369.977C117.586 372.305 114.398 373.469 110.883 373.469ZM101.32 359.664H118.289C117.945 357.336 117.016 355.469 115.5 354.062C113.984 352.656 112.117 351.953 109.898 351.953C107.633 351.953 105.711 352.672 104.133 354.109C102.57 355.547 101.633 357.398 101.32 359.664ZM128.062 349.562H130.734L131.016 353.852C131.844 352.367 132.953 351.203 134.344 350.359C135.75 349.516 137.344 349.094 139.125 349.094C139.719 349.094 140.328 349.141 140.953 349.234L140.508 352.07C139.961 351.961 139.398 351.906 138.82 351.906C136.602 351.906 134.789 352.688 133.383 354.25C131.977 355.797 131.219 357.875 131.109 360.484V373H128.062V349.562ZM155.953 370.234L157.57 367.422C158.68 368.484 159.984 369.312 161.484 369.906C162.984 370.484 164.547 370.773 166.172 370.773C167.859 370.773 169.359 370.477 170.672 369.883C171.984 369.289 173.008 368.477 173.742 367.445C174.492 366.398 174.867 365.211 174.867 363.883C174.867 362.633 174.547 361.562 173.906 360.672C173.281 359.766 172.438 358.977 171.375 358.305C170.328 357.633 169.18 357.008 167.93 356.43C166.68 355.852 165.43 355.258 164.18 354.648C162.93 354.039 161.773 353.352 160.711 352.586C159.664 351.805 158.82 350.883 158.18 349.82C157.555 348.758 157.242 347.484 157.242 346C157.242 344.266 157.695 342.734 158.602 341.406C159.523 340.062 160.789 339.016 162.398 338.266C164.023 337.516 165.898 337.141 168.023 337.141C170.742 337.141 173.492 337.766 176.273 339.016L174.984 341.711C172.938 340.617 170.758 340.07 168.445 340.07C166.086 340.07 164.156 340.617 162.656 341.711C161.156 342.789 160.406 344.188 160.406 345.906C160.406 347.047 160.719 348.031 161.344 348.859C161.984 349.688 162.828 350.43 163.875 351.086C164.938 351.742 166.094 352.367 167.344 352.961C168.594 353.555 169.844 354.18 171.094 354.836C172.344 355.477 173.492 356.203 174.539 357.016C175.602 357.828 176.445 358.789 177.07 359.898C177.711 361.008 178.031 362.32 178.031 363.836C178.031 365.727 177.516 367.422 176.484 368.922C175.453 370.406 174.039 371.578 172.242 372.438C170.461 373.281 168.422 373.703 166.125 373.703C162.359 373.703 158.969 372.547 155.953 370.234ZM185.062 349.562H188.109V362.336C188.109 364.883 188.727 366.906 189.961 368.406C191.195 369.906 192.867 370.656 194.977 370.656C196.383 370.656 197.641 370.328 198.75 369.672C199.875 369.016 200.766 368.109 201.422 366.953C202.094 365.797 202.453 364.477 202.5 362.992V349.562H205.547V373H202.875L202.617 369.109C201.711 370.453 200.547 371.516 199.125 372.297C197.719 373.078 196.156 373.469 194.438 373.469C192.578 373.469 190.945 373.008 189.539 372.086C188.133 371.164 187.031 369.875 186.234 368.219C185.453 366.562 185.062 364.648 185.062 362.477V349.562ZM213.984 349.562H216.656L216.938 353.852C217.766 352.367 218.875 351.203 220.266 350.359C221.672 349.516 223.266 349.094 225.047 349.094C225.641 349.094 226.25 349.141 226.875 349.234L226.43 352.07C225.883 351.961 225.32 351.906 224.742 351.906C222.523 351.906 220.711 352.688 219.305 354.25C217.898 355.797 217.141 357.875 217.031 360.484V373H213.984V349.562ZM228.281 349.562H231.609L237.961 364.938C238.32 365.781 238.656 366.656 238.969 367.562C239.297 368.469 239.562 369.289 239.766 370.023C240.312 368.227 240.922 366.523 241.594 364.914L247.945 349.562H251.109L241.383 373H238.008L228.281 349.562ZM267.164 373.469C264.742 373.469 262.562 372.93 260.625 371.852C258.703 370.773 257.18 369.305 256.055 367.445C254.945 365.586 254.391 363.492 254.391 361.164C254.391 358.867 254.914 356.812 255.961 355C257.008 353.172 258.43 351.734 260.227 350.688C262.023 349.625 264.055 349.094 266.32 349.094C268.523 349.094 270.484 349.602 272.203 350.617C273.938 351.633 275.297 353.031 276.281 354.812C277.266 356.578 277.758 358.594 277.758 360.859V362.242H257.578C257.766 363.961 258.328 365.453 259.266 366.719C260.219 367.984 261.406 368.961 262.828 369.648C264.25 370.32 265.766 370.656 267.375 370.656C270.234 370.656 272.766 369.648 274.969 367.633L276.727 369.977C273.867 372.305 270.68 373.469 267.164 373.469ZM257.602 359.664H274.57C274.227 357.336 273.297 355.469 271.781 354.062C270.266 352.656 268.398 351.953 266.18 351.953C263.914 351.953 261.992 352.672 260.414 354.109C258.852 355.547 257.914 357.398 257.602 359.664ZM282.469 349.562H285.633L291.539 362.5C292.195 363.922 292.742 365.188 293.18 366.297C293.617 367.391 294 368.477 294.328 369.555L302.602 349.562H305.812L291.047 385.188H287.836L292.992 372.742L282.469 349.562Z" fill="#303030"/>
<path d="M813.75 228.453V225.875H832.5V228.453H813.75ZM850.781 203.844H854.086L863.062 235.109L872.039 203.844H876.023L885 235.109L893.977 203.844H897.258L887.156 239H882.797L876.094 215.609C875.672 214.125 875.297 212.766 874.969 211.531C874.641 210.281 874.328 209.023 874.031 207.758C873.781 208.852 873.492 210.016 873.164 211.25C872.836 212.469 872.43 213.922 871.945 215.609L865.219 239H860.859L850.781 203.844ZM903.094 205.672C903.094 204.984 903.305 204.43 903.727 204.008C904.164 203.586 904.719 203.375 905.391 203.375C906.078 203.375 906.633 203.586 907.055 204.008C907.477 204.43 907.688 204.984 907.688 205.672C907.688 206.359 907.477 206.914 907.055 207.336C906.633 207.758 906.078 207.969 905.391 207.969C904.719 207.969 904.164 207.758 903.727 207.336C903.305 206.914 903.094 206.359 903.094 205.672ZM903.867 239V215.562H906.914V239H903.867ZM915.375 215.562H918.047L918.328 219.852C919.156 218.367 920.266 217.203 921.656 216.359C923.062 215.516 924.656 215.094 926.438 215.094C927.031 215.094 927.641 215.141 928.266 215.234L927.82 218.07C927.273 217.961 926.711 217.906 926.133 217.906C923.914 217.906 922.102 218.688 920.695 220.25C919.289 221.797 918.531 223.875 918.422 226.484V239H915.375V215.562ZM943.852 239.469C941.43 239.469 939.25 238.93 937.312 237.852C935.391 236.773 933.867 235.305 932.742 233.445C931.633 231.586 931.078 229.492 931.078 227.164C931.078 224.867 931.602 222.812 932.648 221C933.695 219.172 935.117 217.734 936.914 216.688C938.711 215.625 940.742 215.094 943.008 215.094C945.211 215.094 947.172 215.602 948.891 216.617C950.625 217.633 951.984 219.031 952.969 220.812C953.953 222.578 954.445 224.594 954.445 226.859V228.242H934.266C934.453 229.961 935.016 231.453 935.953 232.719C936.906 233.984 938.094 234.961 939.516 235.648C940.938 236.32 942.453 236.656 944.062 236.656C946.922 236.656 949.453 235.648 951.656 233.633L953.414 235.977C950.555 238.305 947.367 239.469 943.852 239.469ZM934.289 225.664H951.258C950.914 223.336 949.984 221.469 948.469 220.062C946.953 218.656 945.086 217.953 942.867 217.953C940.602 217.953 938.68 218.672 937.102 220.109C935.539 221.547 934.602 223.398 934.289 225.664ZM959.625 215.539H963.492V210.266C963.492 208.172 964.109 206.461 965.344 205.133C966.578 203.805 968.156 203.141 970.078 203.141C971.469 203.141 972.844 203.516 974.203 204.266L973.102 206.75C972.211 206.234 971.312 205.977 970.406 205.977C969.266 205.977 968.336 206.375 967.617 207.172C966.898 207.969 966.539 209.016 966.539 210.312V215.539H972.82V218.352H966.539V239H963.492V218.352H959.625V215.539ZM980.297 215.562H982.969L983.25 219.852C984.078 218.367 985.188 217.203 986.578 216.359C987.984 215.516 989.578 215.094 991.359 215.094C991.953 215.094 992.562 215.141 993.188 215.234L992.742 218.07C992.195 217.961 991.633 217.906 991.055 217.906C988.836 217.906 987.023 218.688 985.617 220.25C984.211 221.797 983.453 223.875 983.344 226.484V239H980.297V215.562ZM996.891 232.18C996.891 229.867 997.766 228.016 999.516 226.625C1001.27 225.234 1003.58 224.539 1006.45 224.539C1008.72 224.539 1010.95 224.969 1013.16 225.828V224.961C1013.16 222.711 1012.52 220.977 1011.23 219.758C1009.97 218.523 1008.34 217.906 1006.36 217.906C1005.39 217.906 1004.36 218.062 1003.27 218.375C1002.19 218.688 1001.08 219.164 999.938 219.805L998.859 217.227C1000.27 216.477 1001.63 215.938 1002.96 215.609C1004.3 215.266 1005.55 215.094 1006.71 215.094C1009.51 215.094 1011.79 215.953 1013.55 217.672C1015.32 219.391 1016.2 221.812 1016.2 224.938V239H1013.53L1013.3 235.203C1012.55 236.547 1011.48 237.594 1010.11 238.344C1008.73 239.094 1007.12 239.469 1005.26 239.469C1002.73 239.469 1000.7 238.797 999.164 237.453C997.648 236.109 996.891 234.352 996.891 232.18ZM1006.85 227.352C1004.74 227.352 1003.09 227.781 1001.88 228.641C1000.68 229.5 1000.08 230.688 1000.08 232.203C1000.08 233.562 1000.56 234.648 1001.53 235.461C1002.52 236.258 1003.84 236.656 1005.49 236.656C1006.9 236.656 1008.16 236.367 1009.29 235.789C1010.43 235.195 1011.34 234.391 1012.03 233.375C1012.72 232.359 1013.09 231.211 1013.16 229.93V228.547C1011.06 227.75 1008.96 227.352 1006.85 227.352ZM1023.94 215.562H1026.61L1026.82 218.844C1027.73 217.672 1028.84 216.758 1030.17 216.102C1031.52 215.43 1032.97 215.094 1034.53 215.094C1036.39 215.094 1038.05 215.555 1039.52 216.477C1040.99 217.398 1042.11 218.664 1042.88 220.273C1043.72 218.68 1044.9 217.422 1046.41 216.5C1047.95 215.562 1049.64 215.094 1051.5 215.094C1053.3 215.094 1054.91 215.523 1056.33 216.383C1057.75 217.242 1058.88 218.445 1059.7 219.992C1060.53 221.523 1060.95 223.305 1060.95 225.336V239H1057.85V226.039C1057.85 224.227 1057.52 222.719 1056.84 221.516C1056.17 220.312 1055.3 219.414 1054.24 218.82C1053.18 218.211 1052.07 217.906 1050.91 217.906C1049.8 217.906 1048.73 218.195 1047.68 218.773C1046.65 219.336 1045.79 220.188 1045.1 221.328C1044.43 222.469 1044.05 223.898 1043.98 225.617V239H1040.86V226.039C1040.86 224.648 1040.59 223.336 1040.06 222.102C1039.55 220.867 1038.77 219.859 1037.74 219.078C1036.73 218.297 1035.46 217.906 1033.95 217.906C1032.82 217.906 1031.74 218.195 1030.71 218.773C1029.68 219.336 1028.82 220.188 1028.13 221.328C1027.46 222.469 1027.09 223.898 1027.01 225.617H1026.98V239H1023.94V215.562ZM1079.84 239.469C1077.41 239.469 1075.23 238.93 1073.3 237.852C1071.38 236.773 1069.85 235.305 1068.73 233.445C1067.62 231.586 1067.06 229.492 1067.06 227.164C1067.06 224.867 1067.59 222.812 1068.63 221C1069.68 219.172 1071.1 217.734 1072.9 216.688C1074.7 215.625 1076.73 215.094 1078.99 215.094C1081.2 215.094 1083.16 215.602 1084.88 216.617C1086.61 217.633 1087.97 219.031 1088.95 220.812C1089.94 222.578 1090.43 224.594 1090.43 226.859V228.242H1070.25C1070.44 229.961 1071 231.453 1071.94 232.719C1072.89 233.984 1074.08 234.961 1075.5 235.648C1076.92 236.32 1078.44 236.656 1080.05 236.656C1082.91 236.656 1085.44 235.648 1087.64 233.633L1089.4 235.977C1086.54 238.305 1083.35 239.469 1079.84 239.469ZM1070.27 225.664H1087.24C1086.9 223.336 1085.97 221.469 1084.45 220.062C1082.94 218.656 1081.07 217.953 1078.85 217.953C1076.59 217.953 1074.66 218.672 1073.09 220.109C1071.52 221.547 1070.59 223.398 1070.27 225.664ZM1119.91 239.469C1117.87 239.469 1116 239.023 1114.31 238.133C1112.64 237.227 1111.31 236.016 1110.33 234.5C1109.34 232.969 1108.85 231.266 1108.85 229.391C1108.85 227.812 1109.18 226.453 1109.84 225.312C1110.49 224.172 1111.34 223.164 1112.39 222.289C1113.45 221.414 1114.58 220.602 1115.77 219.852C1114.59 218.117 1113.69 216.469 1113.05 214.906C1112.42 213.344 1112.11 211.922 1112.11 210.641C1112.11 209.266 1112.45 208.031 1113.12 206.938C1113.79 205.844 1114.71 204.977 1115.88 204.336C1117.05 203.695 1118.38 203.375 1119.87 203.375C1121.98 203.375 1123.7 204.047 1125.02 205.391C1126.37 206.719 1127.04 208.477 1127.04 210.664C1127.04 212.305 1126.67 213.711 1125.94 214.883C1125.2 216.039 1124.26 217.047 1123.1 217.906C1121.96 218.766 1120.77 219.586 1119.52 220.367C1122.09 223.758 1125.53 227.281 1129.83 230.938C1131.89 228.234 1133.56 224.812 1134.84 220.672L1137.54 221.539C1136.01 226.008 1134.12 229.703 1131.89 232.625C1132.89 233.438 1133.92 234.242 1134.98 235.039C1136.05 235.836 1137.14 236.625 1138.27 237.406L1136.7 239.656C1135.54 238.844 1134.41 238.023 1133.3 237.195C1132.2 236.367 1131.13 235.539 1130.09 234.711C1127.04 237.883 1123.65 239.469 1119.91 239.469ZM1118.11 218.422C1119.19 217.75 1120.19 217.055 1121.11 216.336C1122.03 215.602 1122.77 214.789 1123.34 213.898C1123.9 212.992 1124.18 211.945 1124.18 210.758C1124.18 209.352 1123.78 208.203 1122.98 207.312C1122.19 206.406 1121.19 205.953 1119.98 205.953C1118.67 205.953 1117.54 206.461 1116.59 207.477C1115.63 208.477 1115.16 209.695 1115.16 211.133C1115.16 212.102 1115.41 213.211 1115.91 214.461C1116.42 215.695 1117.16 217.016 1118.11 218.422ZM1128.05 233C1123.59 229.203 1119.98 225.484 1117.2 221.844C1115.8 222.766 1114.61 223.805 1113.61 224.961C1112.62 226.102 1112.13 227.539 1112.13 229.273C1112.13 230.68 1112.48 231.953 1113.16 233.094C1113.87 234.219 1114.81 235.117 1116 235.789C1117.2 236.445 1118.55 236.773 1120.03 236.773C1121.47 236.773 1122.86 236.453 1124.2 235.812C1125.56 235.156 1126.84 234.219 1128.05 233ZM1156.69 236.234L1158.3 233.422C1159.41 234.484 1160.72 235.312 1162.22 235.906C1163.72 236.484 1165.28 236.773 1166.91 236.773C1168.59 236.773 1170.09 236.477 1171.41 235.883C1172.72 235.289 1173.74 234.477 1174.48 233.445C1175.23 232.398 1175.6 231.211 1175.6 229.883C1175.6 228.633 1175.28 227.562 1174.64 226.672C1174.02 225.766 1173.17 224.977 1172.11 224.305C1171.06 223.633 1169.91 223.008 1168.66 222.43C1167.41 221.852 1166.16 221.258 1164.91 220.648C1163.66 220.039 1162.51 219.352 1161.45 218.586C1160.4 217.805 1159.55 216.883 1158.91 215.82C1158.29 214.758 1157.98 213.484 1157.98 212C1157.98 210.266 1158.43 208.734 1159.34 207.406C1160.26 206.062 1161.52 205.016 1163.13 204.266C1164.76 203.516 1166.63 203.141 1168.76 203.141C1171.48 203.141 1174.23 203.766 1177.01 205.016L1175.72 207.711C1173.67 206.617 1171.49 206.07 1169.18 206.07C1166.82 206.07 1164.89 206.617 1163.39 207.711C1161.89 208.789 1161.14 210.188 1161.14 211.906C1161.14 213.047 1161.45 214.031 1162.08 214.859C1162.72 215.688 1163.56 216.43 1164.61 217.086C1165.67 217.742 1166.83 218.367 1168.08 218.961C1169.33 219.555 1170.58 220.18 1171.83 220.836C1173.08 221.477 1174.23 222.203 1175.27 223.016C1176.34 223.828 1177.18 224.789 1177.8 225.898C1178.45 227.008 1178.77 228.32 1178.77 229.836C1178.77 231.727 1178.25 233.422 1177.22 234.922C1176.19 236.406 1174.77 237.578 1172.98 238.438C1171.2 239.281 1169.16 239.703 1166.86 239.703C1163.09 239.703 1159.7 238.547 1156.69 236.234ZM1186.27 203.844H1189.31V227.609C1189.55 227.281 1189.79 226.953 1190.04 226.625C1190.29 226.281 1190.58 225.914 1190.91 225.523L1199.65 215.562H1203.16L1194.02 226.109L1204.71 239H1200.91L1192.01 228.43L1189.31 231.523V239H1186.27V203.844ZM1221.02 239.469C1218.6 239.469 1216.42 238.93 1214.48 237.852C1212.56 236.773 1211.04 235.305 1209.91 233.445C1208.8 231.586 1208.25 229.492 1208.25 227.164C1208.25 224.867 1208.77 222.812 1209.82 221C1210.87 219.172 1212.29 217.734 1214.09 216.688C1215.88 215.625 1217.91 215.094 1220.18 215.094C1222.38 215.094 1224.34 215.602 1226.06 216.617C1227.8 217.633 1229.16 219.031 1230.14 220.812C1231.12 222.578 1231.62 224.594 1231.62 226.859V228.242H1211.44C1211.62 229.961 1212.19 231.453 1213.12 232.719C1214.08 233.984 1215.27 234.961 1216.69 235.648C1218.11 236.32 1219.62 236.656 1221.23 236.656C1224.09 236.656 1226.62 235.648 1228.83 233.633L1230.59 235.977C1227.73 238.305 1224.54 239.469 1221.02 239.469ZM1211.46 225.664H1228.43C1228.09 223.336 1227.16 221.469 1225.64 220.062C1224.12 218.656 1222.26 217.953 1220.04 217.953C1217.77 217.953 1215.85 218.672 1214.27 220.109C1212.71 221.547 1211.77 223.398 1211.46 225.664ZM1240.59 218.375H1236.56V215.562H1240.59V209.703H1243.64V215.562H1250.3V218.375H1243.64V231.828C1243.64 233.547 1244.01 234.805 1244.74 235.602C1245.49 236.398 1246.64 236.797 1248.19 236.797C1248.52 236.797 1248.86 236.781 1249.22 236.75C1249.58 236.703 1249.94 236.625 1250.3 236.516V238.977C1249.91 239.133 1249.46 239.258 1248.96 239.352C1248.48 239.445 1247.92 239.492 1247.3 239.492C1245.12 239.492 1243.46 238.859 1242.3 237.594C1241.16 236.328 1240.59 234.516 1240.59 232.156V218.375ZM1273.88 234.148L1275.98 236.305C1273.83 238.414 1271.13 239.469 1267.9 239.469C1265.59 239.469 1263.51 238.938 1261.66 237.875C1259.82 236.797 1258.36 235.344 1257.28 233.516C1256.22 231.672 1255.69 229.594 1255.69 227.281C1255.69 224.969 1256.22 222.898 1257.28 221.07C1258.36 219.227 1259.82 217.773 1261.66 216.711C1263.51 215.633 1265.59 215.094 1267.9 215.094C1271.1 215.094 1273.8 216.141 1275.98 218.234L1273.88 220.414C1272.3 218.742 1270.3 217.906 1267.88 217.906C1266.17 217.906 1264.64 218.32 1263.28 219.148C1261.94 219.961 1260.87 221.078 1260.07 222.5C1259.27 223.906 1258.88 225.5 1258.88 227.281C1258.88 229.047 1259.27 230.641 1260.07 232.062C1260.87 233.469 1261.94 234.586 1263.28 235.414C1264.64 236.242 1266.17 236.656 1267.88 236.656C1270.3 236.656 1272.3 235.82 1273.88 234.148ZM1282.55 239V203.844H1285.59V219.266C1286.52 217.969 1287.67 216.953 1289.06 216.219C1290.45 215.469 1291.98 215.094 1293.66 215.094C1295.52 215.094 1297.15 215.555 1298.55 216.477C1299.96 217.398 1301.05 218.688 1301.84 220.344C1302.63 221.984 1303.03 223.898 1303.03 226.086V239H1299.98V226.227C1299.98 223.664 1299.37 221.641 1298.13 220.156C1296.9 218.656 1295.23 217.906 1293.12 217.906C1291.71 217.906 1290.45 218.234 1289.32 218.891C1288.21 219.547 1287.33 220.453 1286.67 221.609C1286.02 222.75 1285.66 224.07 1285.59 225.57V239H1282.55Z" fill="#303030"/>
<path d="M821.777 102.266V155H815.625V102.266H821.777ZM848.355 119.141C850.934 119.141 853.324 119.609 855.527 120.547C857.73 121.484 859.617 122.785 861.188 124.449V102.266H866.988V155H861.75L861.434 150.113C859.863 151.848 857.953 153.219 855.703 154.227C853.453 155.211 851.004 155.703 848.355 155.703C844.957 155.703 841.91 154.918 839.215 153.348C836.543 151.754 834.434 149.586 832.887 146.844C831.363 144.078 830.602 140.938 830.602 137.422C830.602 133.906 831.363 130.777 832.887 128.035C834.434 125.27 836.543 123.102 839.215 121.531C841.91 119.938 844.957 119.141 848.355 119.141ZM836.578 137.422C836.578 139.906 837.105 142.133 838.16 144.102C839.238 146.07 840.703 147.617 842.555 148.742C844.406 149.867 846.516 150.43 848.883 150.43C851.25 150.43 853.359 149.867 855.211 148.742C857.062 147.617 858.516 146.07 859.57 144.102C860.648 142.133 861.188 139.906 861.188 137.422C861.188 134.914 860.648 132.688 859.57 130.742C858.516 128.773 857.062 127.227 855.211 126.102C853.359 124.977 851.25 124.414 848.883 124.414C846.516 124.414 844.406 124.977 842.555 126.102C840.703 127.227 839.238 128.773 838.16 130.742C837.105 132.688 836.578 134.914 836.578 137.422ZM911.742 137.387V139.742H881.93C882.516 142.859 884.016 145.426 886.43 147.441C888.867 149.434 891.797 150.43 895.219 150.43C897.117 150.43 899.121 150.066 901.23 149.34C903.34 148.59 905.262 147.395 906.996 145.754L910.406 150.113C907.852 152.246 905.297 153.711 902.742 154.508C900.211 155.305 897.762 155.703 895.395 155.703C891.598 155.703 888.223 154.918 885.27 153.348C882.316 151.754 879.996 149.562 878.309 146.773C876.645 143.984 875.812 140.809 875.812 137.246C875.812 133.777 876.598 130.684 878.168 127.965C879.738 125.223 881.895 123.066 884.637 121.496C887.379 119.926 890.484 119.141 893.953 119.141C897.422 119.141 900.492 119.926 903.164 121.496C905.836 123.066 907.934 125.223 909.457 127.965C910.98 130.707 911.742 133.848 911.742 137.387ZM881.859 134.82H905.695C905.18 131.75 903.855 129.254 901.723 127.332C899.59 125.387 896.988 124.414 893.918 124.414C890.801 124.414 888.141 125.398 885.938 127.367C883.734 129.312 882.375 131.797 881.859 134.82ZM919.406 144.523C919.406 141.008 920.766 138.219 923.484 136.156C926.227 134.07 929.918 133.027 934.559 133.027C937.699 133.027 940.781 133.508 943.805 134.469V134.047C943.805 131.047 942.938 128.691 941.203 126.98C939.492 125.27 937.137 124.414 934.137 124.414C931.113 124.414 927.832 125.422 924.293 127.438L922.184 122.586C924.551 121.344 926.695 120.465 928.617 119.949C930.539 119.41 932.602 119.141 934.805 119.141C939.305 119.141 942.891 120.512 945.562 123.254C948.258 125.996 949.605 129.664 949.605 134.258V155H944.367L944.051 149.797C942.879 151.648 941.285 153.102 939.27 154.156C937.254 155.188 934.922 155.703 932.273 155.703C928.453 155.703 925.348 154.672 922.957 152.609C920.59 150.547 919.406 147.852 919.406 144.523ZM935.086 138.301C932.039 138.301 929.66 138.852 927.949 139.953C926.238 141.031 925.383 142.555 925.383 144.523C925.383 146.305 926.062 147.734 927.422 148.812C928.805 149.891 930.633 150.43 932.906 150.43C934.969 150.43 936.82 149.996 938.461 149.129C940.102 148.262 941.402 147.09 942.363 145.613C943.324 144.137 943.805 142.484 943.805 140.656V139.707C940.945 138.77 938.039 138.301 935.086 138.301ZM962.824 119.844V111.055H968.625V119.844H978.188V125.117H968.625V143.961C968.625 148.273 970.57 150.43 974.461 150.43C975.07 150.43 975.691 150.383 976.324 150.289C976.98 150.172 977.602 149.973 978.188 149.691V154.754C977.578 155.012 976.852 155.234 976.008 155.422C975.188 155.609 974.227 155.703 973.125 155.703C969.797 155.703 967.242 154.73 965.461 152.785C963.703 150.84 962.824 148.062 962.824 144.453V125.117H957.023V119.844H962.824ZM985.852 106.309C985.852 105.137 986.227 104.176 986.977 103.426C987.75 102.652 988.711 102.266 989.859 102.266C991.031 102.266 992.004 102.652 992.777 103.426C993.551 104.176 993.938 105.137 993.938 106.309C993.938 107.457 993.551 108.418 992.777 109.191C992.004 109.965 991.031 110.352 989.859 110.352C988.711 110.352 987.75 109.965 986.977 109.191C986.227 108.418 985.852 107.457 985.852 106.309ZM986.977 155V119.844H992.812V155H986.977ZM1001.6 137.422C1001.6 133.906 1002.39 130.777 1003.96 128.035C1005.55 125.27 1007.72 123.102 1010.46 121.531C1013.23 119.938 1016.37 119.141 1019.88 119.141C1023.4 119.141 1026.53 119.938 1029.27 121.531C1032.04 123.102 1034.2 125.27 1035.77 128.035C1037.37 130.777 1038.16 133.906 1038.16 137.422C1038.16 140.938 1037.37 144.078 1035.77 146.844C1034.2 149.586 1032.04 151.754 1029.27 153.348C1026.53 154.918 1023.4 155.703 1019.88 155.703C1016.37 155.703 1013.23 154.918 1010.46 153.348C1007.72 151.754 1005.55 149.586 1003.96 146.844C1002.39 144.078 1001.6 140.938 1001.6 137.422ZM1007.58 137.422C1007.58 139.906 1008.11 142.133 1009.16 144.102C1010.24 146.07 1011.7 147.617 1013.55 148.742C1015.41 149.867 1017.52 150.43 1019.88 150.43C1022.25 150.43 1024.36 149.867 1026.21 148.742C1028.06 147.617 1029.52 146.07 1030.57 144.102C1031.65 142.133 1032.19 139.906 1032.19 137.422C1032.19 134.914 1031.65 132.688 1030.57 130.742C1029.52 128.773 1028.06 127.227 1026.21 126.102C1024.36 124.977 1022.25 124.414 1019.88 124.414C1017.52 124.414 1015.41 124.977 1013.55 126.102C1011.7 127.227 1010.24 128.773 1009.16 130.742C1008.11 132.688 1007.58 134.914 1007.58 137.422ZM1046.95 155V119.844H1052.19L1052.51 125.188C1053.89 123.289 1055.59 121.812 1057.61 120.758C1059.62 119.68 1061.87 119.141 1064.36 119.141C1067.19 119.141 1069.7 119.832 1071.88 121.215C1074.08 122.574 1075.8 124.461 1077.05 126.875C1078.31 129.289 1078.95 132.055 1078.95 135.172V155H1073.14V135.875C1073.14 132.453 1072.22 129.688 1070.37 127.578C1068.54 125.469 1066.15 124.414 1063.2 124.414C1061.2 124.414 1059.42 124.906 1057.85 125.891C1056.28 126.852 1055.04 128.164 1054.12 129.828C1053.21 131.492 1052.75 133.391 1052.75 135.523V155H1046.95Z" fill="#303030"/>
<path d="M1545.62 102.266H1563.73C1569.61 102.266 1574.1 103.719 1577.2 106.625C1580.29 109.508 1581.84 113.328 1581.84 118.086C1581.84 122.82 1580.29 126.641 1577.2 129.547C1574.1 132.453 1569.61 133.906 1563.73 133.906H1551.78V155H1545.62V102.266ZM1551.78 107.891V128.281H1563.73C1567.57 128.281 1570.49 127.344 1572.48 125.469C1574.5 123.594 1575.51 121.133 1575.51 118.086C1575.51 115.016 1574.5 112.555 1572.48 110.703C1570.49 108.828 1567.57 107.891 1563.73 107.891H1551.78ZM1589.57 155V119.844H1594.81L1595.16 125.363C1596.33 123.488 1597.84 121.988 1599.7 120.863C1601.55 119.715 1603.76 119.141 1606.34 119.141C1607.39 119.141 1608.5 119.246 1609.64 119.457L1608.8 124.836C1607.65 124.555 1606.57 124.414 1605.57 124.414C1602.33 124.414 1599.82 125.609 1598.04 128C1596.26 130.367 1595.37 133.309 1595.37 136.824V155H1589.57ZM1613.2 137.422C1613.2 133.906 1613.98 130.777 1615.55 128.035C1617.14 125.27 1619.31 123.102 1622.05 121.531C1624.82 119.938 1627.96 119.141 1631.48 119.141C1634.99 119.141 1638.12 119.938 1640.86 121.531C1643.63 123.102 1645.8 125.27 1647.37 128.035C1648.96 130.777 1649.76 133.906 1649.76 137.422C1649.76 140.938 1648.96 144.078 1647.37 146.844C1645.8 149.586 1643.63 151.754 1640.86 153.348C1638.12 154.918 1634.99 155.703 1631.48 155.703C1627.96 155.703 1624.82 154.918 1622.05 153.348C1619.31 151.754 1617.14 149.586 1615.55 146.844C1613.98 144.078 1613.2 140.938 1613.2 137.422ZM1619.17 137.422C1619.17 139.906 1619.7 142.133 1620.75 144.102C1621.83 146.07 1623.3 147.617 1625.15 148.742C1627 149.867 1629.11 150.43 1631.48 150.43C1633.84 150.43 1635.95 149.867 1637.8 148.742C1639.66 147.617 1641.11 146.07 1642.16 144.102C1643.24 142.133 1643.78 139.906 1643.78 137.422C1643.78 134.914 1643.24 132.688 1642.16 130.742C1641.11 128.773 1639.66 127.227 1637.8 126.102C1635.95 124.977 1633.84 124.414 1631.48 124.414C1629.11 124.414 1627 124.977 1625.15 126.102C1623.3 127.227 1621.83 128.773 1620.75 130.742C1619.7 132.688 1619.17 134.914 1619.17 137.422ZM1661.89 119.844V111.055H1667.69V119.844H1677.25V125.117H1667.69V143.961C1667.69 148.273 1669.63 150.43 1673.52 150.43C1674.13 150.43 1674.75 150.383 1675.39 150.289C1676.04 150.172 1676.66 149.973 1677.25 149.691V154.754C1676.64 155.012 1675.91 155.234 1675.07 155.422C1674.25 155.609 1673.29 155.703 1672.19 155.703C1668.86 155.703 1666.3 154.73 1664.52 152.785C1662.77 150.84 1661.89 148.062 1661.89 144.453V125.117H1656.09V119.844H1661.89ZM1684.63 137.422C1684.63 133.906 1685.42 130.777 1686.99 128.035C1688.58 125.27 1690.75 123.102 1693.49 121.531C1696.26 119.938 1699.4 119.141 1702.91 119.141C1706.43 119.141 1709.56 119.938 1712.3 121.531C1715.07 123.102 1717.23 125.27 1718.8 128.035C1720.4 130.777 1721.2 133.906 1721.2 137.422C1721.2 140.938 1720.4 144.078 1718.8 146.844C1717.23 149.586 1715.07 151.754 1712.3 153.348C1709.56 154.918 1706.43 155.703 1702.91 155.703C1699.4 155.703 1696.26 154.918 1693.49 153.348C1690.75 151.754 1688.58 149.586 1686.99 146.844C1685.42 144.078 1684.63 140.938 1684.63 137.422ZM1690.61 137.422C1690.61 139.906 1691.14 142.133 1692.19 144.102C1693.27 146.07 1694.73 147.617 1696.59 148.742C1698.44 149.867 1700.55 150.43 1702.91 150.43C1705.28 150.43 1707.39 149.867 1709.24 148.742C1711.09 147.617 1712.55 146.07 1713.6 144.102C1714.68 142.133 1715.22 139.906 1715.22 137.422C1715.22 134.914 1714.68 132.688 1713.6 130.742C1712.55 128.773 1711.09 127.227 1709.24 126.102C1707.39 124.977 1705.28 124.414 1702.91 124.414C1700.55 124.414 1698.44 124.977 1696.59 126.102C1694.73 127.227 1693.27 128.773 1692.19 130.742C1691.14 132.688 1690.61 134.914 1690.61 137.422ZM1733.32 119.844V111.055H1739.12V119.844H1748.69V125.117H1739.12V143.961C1739.12 148.273 1741.07 150.43 1744.96 150.43C1745.57 150.43 1746.19 150.383 1746.82 150.289C1747.48 150.172 1748.1 149.973 1748.69 149.691V154.754C1748.08 155.012 1747.35 155.234 1746.51 155.422C1745.69 155.609 1744.73 155.703 1743.62 155.703C1740.3 155.703 1737.74 154.73 1735.96 152.785C1734.2 150.84 1733.32 148.062 1733.32 144.453V125.117H1727.52V119.844H1733.32ZM1755.02 119.844H1761.31L1770.66 142.414C1771.06 143.375 1771.46 144.395 1771.86 145.473C1772.25 146.527 1772.59 147.535 1772.88 148.496H1773.02C1773.3 147.512 1773.62 146.527 1774 145.543C1774.38 144.535 1774.79 143.48 1775.23 142.379L1784.58 119.844H1790.66L1768.8 172.578H1762.68L1769.96 155L1755.02 119.844ZM1802.58 119.844L1802.9 124.73C1804.49 122.996 1806.4 121.637 1808.63 120.652C1810.88 119.645 1813.33 119.141 1815.98 119.141C1819.4 119.141 1822.45 119.938 1825.12 121.531C1827.79 123.102 1829.89 125.27 1831.41 128.035C1832.96 130.777 1833.73 133.906 1833.73 137.422C1833.73 140.938 1832.96 144.078 1831.41 146.844C1829.89 149.586 1827.79 151.754 1825.12 153.348C1822.45 154.918 1819.4 155.703 1815.98 155.703C1813.4 155.703 1811.01 155.234 1808.8 154.297C1806.62 153.359 1804.74 152.059 1803.14 150.395V172.578H1797.34V119.844H1802.58ZM1815.45 150.43C1817.82 150.43 1819.93 149.867 1821.78 148.742C1823.63 147.617 1825.08 146.07 1826.14 144.102C1827.21 142.133 1827.75 139.906 1827.75 137.422C1827.75 134.914 1827.21 132.688 1826.14 130.742C1825.08 128.773 1823.63 127.227 1821.78 126.102C1819.93 124.977 1817.82 124.414 1815.45 124.414C1813.08 124.414 1810.97 124.977 1809.12 126.102C1807.27 127.227 1805.8 128.773 1804.73 130.742C1803.67 132.688 1803.14 134.914 1803.14 137.422C1803.14 139.906 1803.67 142.133 1804.73 144.102C1805.8 146.07 1807.27 147.617 1809.12 148.742C1810.97 149.867 1813.08 150.43 1815.45 150.43ZM1841.43 106.309C1841.43 105.137 1841.8 104.176 1842.55 103.426C1843.33 102.652 1844.29 102.266 1845.44 102.266C1846.61 102.266 1847.58 102.652 1848.36 103.426C1849.13 104.176 1849.52 105.137 1849.52 106.309C1849.52 107.457 1849.13 108.418 1848.36 109.191C1847.58 109.965 1846.61 110.352 1845.44 110.352C1844.29 110.352 1843.33 109.965 1842.55 109.191C1841.8 108.418 1841.43 107.457 1841.43 106.309ZM1842.55 155V119.844H1848.39V155H1842.55ZM1859.64 155V119.844H1864.88L1865.2 125.188C1866.58 123.289 1868.28 121.812 1870.29 120.758C1872.31 119.68 1874.56 119.141 1877.04 119.141C1879.88 119.141 1882.39 119.832 1884.57 121.215C1886.77 122.574 1888.49 124.461 1889.73 126.875C1891 129.289 1891.63 132.055 1891.63 135.172V155H1885.83V135.875C1885.83 132.453 1884.91 129.688 1883.05 127.578C1881.23 125.469 1878.84 124.414 1875.88 124.414C1873.89 124.414 1872.11 124.906 1870.54 125.891C1868.97 126.852 1867.73 128.164 1866.81 129.828C1865.9 131.492 1865.44 133.391 1865.44 135.523V155H1859.64ZM1917.47 155.703C1914.07 155.703 1911.03 154.918 1908.33 153.348C1905.66 151.754 1903.55 149.586 1902 146.844C1900.48 144.078 1899.72 140.938 1899.72 137.422C1899.72 133.906 1900.48 130.777 1902 128.035C1903.55 125.27 1905.66 123.102 1908.33 121.531C1911.03 119.938 1914.07 119.141 1917.47 119.141C1920.12 119.141 1922.57 119.645 1924.82 120.652C1927.07 121.637 1928.98 122.996 1930.55 124.73L1930.87 119.844H1936.11V151.555C1936.11 155.891 1935.32 159.688 1933.75 162.945C1932.18 166.203 1929.86 168.734 1926.79 170.539C1923.74 172.367 1919.98 173.281 1915.5 173.281C1913.04 173.281 1910.73 172.918 1908.58 172.191C1906.42 171.488 1904.48 170.492 1902.74 169.203L1905.62 164.352C1906.94 165.5 1908.44 166.391 1910.12 167.023C1911.81 167.68 1913.64 168.008 1915.61 168.008C1920.6 168.008 1924.29 166.566 1926.68 163.684C1929.1 160.824 1930.3 157.004 1930.3 152.223V150.395C1928.73 152.059 1926.85 153.359 1924.64 154.297C1922.44 155.234 1920.05 155.703 1917.47 155.703ZM1905.7 137.422C1905.7 139.906 1906.22 142.133 1907.28 144.102C1908.36 146.07 1909.82 147.617 1911.67 148.742C1913.52 149.867 1915.63 150.43 1918 150.43C1920.37 150.43 1922.48 149.867 1924.33 148.742C1926.18 147.617 1927.63 146.07 1928.69 144.102C1929.77 142.133 1930.3 139.906 1930.3 137.422C1930.3 134.914 1929.77 132.688 1928.69 130.742C1927.63 128.773 1926.18 127.227 1924.33 126.102C1922.48 124.977 1920.37 124.414 1918 124.414C1915.63 124.414 1913.52 124.977 1911.67 126.102C1909.82 127.227 1908.36 128.773 1907.28 130.742C1906.22 132.688 1905.7 134.914 1905.7 137.422Z" fill="#303030"/>
</svg>
