<svg width="2757" height="388" viewBox="0 0 2757 388" fill="none" xmlns="http://www.w3.org/2000/svg">
<line x1="163" y1="33" x2="937" y2="33" stroke="#303030" stroke-width="20" stroke-linecap="round" stroke-linejoin="round"/>
<line x1="1751" y1="33" x2="2525" y2="33" stroke="#303030" stroke-width="20" stroke-linecap="round" stroke-linejoin="round"/>
<line x1="957" y1="33" x2="1731" y2="33" stroke="#303030" stroke-width="20" stroke-linecap="round" stroke-linejoin="round"/>
<circle cx="153" cy="33" r="33" fill="#303030"/>
<circle cx="1741" cy="33" r="33" fill="#303030"/>
<circle cx="947" cy="33" r="33" fill="#303030"/>
<circle cx="2535" cy="33" r="33" fill="#303030"/>
<path d="M5.625 102.266H22.2539C27.9492 102.266 32.4023 103.602 35.6133 106.273C38.8242 108.922 40.4297 112.602 40.4297 117.312C40.4297 120.969 39.457 124.027 37.5117 126.488C35.5664 128.949 32.8125 130.66 29.25 131.621L42.75 155H35.6133L22.6406 132.5H11.7773V155H5.625V102.266ZM20.9883 126.875C25.2539 126.875 28.5 126.066 30.7266 124.449C32.9766 122.832 34.1016 120.465 34.1016 117.348C34.1016 114.254 32.9883 111.91 30.7617 110.316C28.5352 108.699 25.2773 107.891 20.9883 107.891H11.7773V126.875H20.9883ZM83.9531 137.387V139.742H54.1406C54.7266 142.859 56.2266 145.426 58.6406 147.441C61.0781 149.434 64.0078 150.43 67.4297 150.43C69.3281 150.43 71.332 150.066 73.4414 149.34C75.5508 148.59 77.4727 147.395 79.207 145.754L82.6172 150.113C80.0625 152.246 77.5078 153.711 74.9531 154.508C72.4219 155.305 69.9727 155.703 67.6055 155.703C63.8086 155.703 60.4336 154.918 57.4805 153.348C54.5273 151.754 52.207 149.562 50.5195 146.773C48.8555 143.984 48.0234 140.809 48.0234 137.246C48.0234 133.777 48.8086 130.684 50.3789 127.965C51.9492 125.223 54.1055 123.066 56.8477 121.496C59.5898 119.926 62.6953 119.141 66.1641 119.141C69.6328 119.141 72.7031 119.926 75.375 121.496C78.0469 123.066 80.1445 125.223 81.668 127.965C83.1914 130.707 83.9531 133.848 83.9531 137.387ZM54.0703 134.82H77.9062C77.3906 131.75 76.0664 129.254 73.9336 127.332C71.8008 125.387 69.1992 124.414 66.1289 124.414C63.0117 124.414 60.3516 125.398 58.1484 127.367C55.9453 129.312 54.5859 131.797 54.0703 134.82ZM90.6328 151.59L93.375 146.703C96.1875 149.188 99.1992 150.43 102.41 150.43C104.309 150.43 105.785 149.984 106.84 149.094C107.895 148.203 108.422 147.043 108.422 145.613C108.422 143.809 107.672 142.426 106.172 141.465C104.695 140.48 103.008 139.566 101.109 138.723C99.6328 138.043 98.1797 137.305 96.75 136.508C95.3203 135.711 94.1367 134.703 93.1992 133.484C92.2852 132.266 91.8281 130.684 91.8281 128.738C91.8281 125.879 92.8711 123.57 94.957 121.812C97.0664 120.031 99.7852 119.141 103.113 119.141C104.848 119.141 106.582 119.387 108.316 119.879C110.051 120.348 111.598 121.027 112.957 121.918L110.496 126.418C109.113 125.691 107.883 125.176 106.805 124.871C105.727 124.566 104.602 124.414 103.43 124.414C101.625 124.414 100.207 124.777 99.1758 125.504C98.1445 126.23 97.6289 127.191 97.6289 128.387C97.6289 129.816 98.2969 130.977 99.6328 131.867C100.992 132.734 102.562 133.578 104.344 134.398C105.891 135.102 107.414 135.898 108.914 136.789C110.438 137.656 111.703 138.758 112.711 140.094C113.719 141.43 114.223 143.141 114.223 145.227C114.223 147.289 113.695 149.105 112.641 150.676C111.586 152.246 110.145 153.477 108.316 154.367C106.512 155.258 104.461 155.703 102.164 155.703C100.102 155.703 98.0625 155.34 96.0469 154.613C94.0312 153.887 92.2266 152.879 90.6328 151.59ZM156.867 137.387V139.742H127.055C127.641 142.859 129.141 145.426 131.555 147.441C133.992 149.434 136.922 150.43 140.344 150.43C142.242 150.43 144.246 150.066 146.355 149.34C148.465 148.59 150.387 147.395 152.121 145.754L155.531 150.113C152.977 152.246 150.422 153.711 147.867 154.508C145.336 155.305 142.887 155.703 140.52 155.703C136.723 155.703 133.348 154.918 130.395 153.348C127.441 151.754 125.121 149.562 123.434 146.773C121.77 143.984 120.938 140.809 120.938 137.246C120.938 133.777 121.723 130.684 123.293 127.965C124.863 125.223 127.02 123.066 129.762 121.496C132.504 119.926 135.609 119.141 139.078 119.141C142.547 119.141 145.617 119.926 148.289 121.496C150.961 123.066 153.059 125.223 154.582 127.965C156.105 130.707 156.867 133.848 156.867 137.387ZM126.984 134.82H150.82C150.305 131.75 148.98 129.254 146.848 127.332C144.715 125.387 142.113 124.414 139.043 124.414C135.926 124.414 133.266 125.398 131.062 127.367C128.859 129.312 127.5 131.797 126.984 134.82ZM164.531 144.523C164.531 141.008 165.891 138.219 168.609 136.156C171.352 134.07 175.043 133.027 179.684 133.027C182.824 133.027 185.906 133.508 188.93 134.469V134.047C188.93 131.047 188.062 128.691 186.328 126.98C184.617 125.27 182.262 124.414 179.262 124.414C176.238 124.414 172.957 125.422 169.418 127.438L167.309 122.586C169.676 121.344 171.82 120.465 173.742 119.949C175.664 119.41 177.727 119.141 179.93 119.141C184.43 119.141 188.016 120.512 190.688 123.254C193.383 125.996 194.73 129.664 194.73 134.258V155H189.492L189.176 149.797C188.004 151.648 186.41 153.102 184.395 154.156C182.379 155.188 180.047 155.703 177.398 155.703C173.578 155.703 170.473 154.672 168.082 152.609C165.715 150.547 164.531 147.852 164.531 144.523ZM180.211 138.301C177.164 138.301 174.785 138.852 173.074 139.953C171.363 141.031 170.508 142.555 170.508 144.523C170.508 146.305 171.188 147.734 172.547 148.812C173.93 149.891 175.758 150.43 178.031 150.43C180.094 150.43 181.945 149.996 183.586 149.129C185.227 148.262 186.527 147.09 187.488 145.613C188.449 144.137 188.93 142.484 188.93 140.656V139.707C186.07 138.77 183.164 138.301 180.211 138.301ZM205.312 155V119.844H210.551L210.902 125.363C212.074 123.488 213.586 121.988 215.438 120.863C217.289 119.715 219.504 119.141 222.082 119.141C223.137 119.141 224.238 119.246 225.387 119.457L224.543 124.836C223.395 124.555 222.316 124.414 221.309 124.414C218.074 124.414 215.566 125.609 213.785 128C212.004 130.367 211.113 133.309 211.113 136.824V155H205.312ZM260.332 150.5C258.691 152.141 256.758 153.418 254.531 154.332C252.305 155.246 249.867 155.703 247.219 155.703C243.703 155.703 240.562 154.918 237.797 153.348C235.055 151.754 232.887 149.586 231.293 146.844C229.723 144.078 228.938 140.938 228.938 137.422C228.938 133.906 229.723 130.777 231.293 128.035C232.887 125.27 235.055 123.102 237.797 121.531C240.562 119.938 243.703 119.141 247.219 119.141C249.867 119.141 252.305 119.598 254.531 120.512C256.758 121.426 258.691 122.691 260.332 124.309L256.289 128.352C255.188 127.109 253.863 126.148 252.316 125.469C250.77 124.766 249.07 124.414 247.219 124.414C244.852 124.414 242.742 124.977 240.891 126.102C239.039 127.227 237.574 128.773 236.496 130.742C235.441 132.688 234.914 134.914 234.914 137.422C234.914 139.906 235.441 142.133 236.496 144.102C237.574 146.07 239.039 147.617 240.891 148.742C242.742 149.867 244.852 150.43 247.219 150.43C249.07 150.43 250.77 150.078 252.316 149.375C253.863 148.672 255.188 147.711 256.289 146.492L260.332 150.5ZM269.156 155V102.266H274.957V124.871C276.316 123.066 277.98 121.66 279.949 120.652C281.941 119.645 284.145 119.141 286.559 119.141C289.395 119.141 291.902 119.832 294.082 121.215C296.285 122.574 298.008 124.461 299.25 126.875C300.516 129.289 301.148 132.055 301.148 135.172V155H295.348V135.875C295.348 132.453 294.422 129.688 292.57 127.578C290.742 125.469 288.352 124.414 285.398 124.414C283.406 124.414 281.625 124.906 280.055 125.891C278.484 126.852 277.242 128.164 276.328 129.828C275.414 131.492 274.957 133.391 274.957 135.523V155H269.156Z" fill="#303030"/>
<path d="M3.75 228.453V225.875H22.5V228.453H3.75ZM68.8828 232.789L71.0156 234.922C69.4062 236.469 67.5391 237.656 65.4141 238.484C63.2891 239.297 61.0391 239.703 58.6641 239.703C56.0859 239.703 53.7109 239.25 51.5391 238.344C49.3672 237.438 47.4766 236.164 45.8672 234.523C44.2578 232.867 43.0078 230.93 42.1172 228.711C41.2266 226.477 40.7812 224.047 40.7812 221.422C40.7812 218.797 41.2266 216.375 42.1172 214.156C43.0078 211.922 44.2578 209.984 45.8672 208.344C47.4766 206.688 49.3672 205.406 51.5391 204.5C53.7109 203.594 56.0859 203.141 58.6641 203.141C61.0547 203.141 63.3047 203.555 65.4141 204.383C67.5391 205.195 69.4062 206.375 71.0156 207.922L68.8828 210.055C67.6641 208.789 66.1562 207.812 64.3594 207.125C62.5625 206.422 60.6562 206.07 58.6406 206.07C55.8438 206.07 53.3438 206.734 51.1406 208.062C48.9531 209.391 47.2266 211.203 45.9609 213.5C44.6953 215.797 44.0625 218.406 44.0625 221.328C44.0625 224.281 44.7031 226.922 45.9844 229.25C47.2656 231.578 49.0156 233.414 51.2344 234.758C53.4531 236.102 55.9688 236.773 58.7812 236.773C60.7656 236.773 62.6328 236.43 64.3828 235.742C66.1484 235.039 67.6484 234.055 68.8828 232.789ZM81.0938 202.906V239H78.0469V202.906H81.0938ZM88.7812 205.672C88.7812 204.984 88.9922 204.43 89.4141 204.008C89.8516 203.586 90.4062 203.375 91.0781 203.375C91.7656 203.375 92.3203 203.586 92.7422 204.008C93.1641 204.43 93.375 204.984 93.375 205.672C93.375 206.359 93.1641 206.914 92.7422 207.336C92.3203 207.758 91.7656 207.969 91.0781 207.969C90.4062 207.969 89.8516 207.758 89.4141 207.336C88.9922 206.914 88.7812 206.359 88.7812 205.672ZM89.5547 239V215.562H92.6016V239H89.5547ZM111.961 239.469C109.539 239.469 107.359 238.93 105.422 237.852C103.5 236.773 101.977 235.305 100.852 233.445C99.7422 231.586 99.1875 229.492 99.1875 227.164C99.1875 224.867 99.7109 222.812 100.758 221C101.805 219.172 103.227 217.734 105.023 216.688C106.82 215.625 108.852 215.094 111.117 215.094C113.32 215.094 115.281 215.602 117 216.617C118.734 217.633 120.094 219.031 121.078 220.812C122.062 222.578 122.555 224.594 122.555 226.859V228.242H102.375C102.562 229.961 103.125 231.453 104.062 232.719C105.016 233.984 106.203 234.961 107.625 235.648C109.047 236.32 110.562 236.656 112.172 236.656C115.031 236.656 117.562 235.648 119.766 233.633L121.523 235.977C118.664 238.305 115.477 239.469 111.961 239.469ZM102.398 225.664H119.367C119.023 223.336 118.094 221.469 116.578 220.062C115.062 218.656 113.195 217.953 110.977 217.953C108.711 217.953 106.789 218.672 105.211 220.109C103.648 221.547 102.711 223.398 102.398 225.664ZM129.141 239V215.562H131.812L132.07 219.453C132.992 218.109 134.156 217.047 135.562 216.266C136.984 215.484 138.547 215.094 140.25 215.094C142.109 215.094 143.742 215.555 145.148 216.477C146.555 217.398 147.648 218.688 148.43 220.344C149.227 221.984 149.625 223.898 149.625 226.086V239H146.578V226.227C146.578 223.664 145.961 221.641 144.727 220.156C143.492 218.656 141.82 217.906 139.711 217.906C138.305 217.906 137.039 218.234 135.914 218.891C134.805 219.547 133.922 220.453 133.266 221.609C132.609 222.75 132.25 224.07 132.188 225.57V239H129.141ZM159.984 218.375H155.953V215.562H159.984V209.703H163.031V215.562H169.688V218.375H163.031V231.828C163.031 233.547 163.398 234.805 164.133 235.602C164.883 236.398 166.031 236.797 167.578 236.797C167.906 236.797 168.25 236.781 168.609 236.75C168.969 236.703 169.328 236.625 169.688 236.516V238.977C169.297 239.133 168.852 239.258 168.352 239.352C167.867 239.445 167.312 239.492 166.688 239.492C164.516 239.492 162.852 238.859 161.695 237.594C160.555 236.328 159.984 234.516 159.984 232.156V218.375ZM215.367 232.789L217.5 234.922C215.891 236.469 214.023 237.656 211.898 238.484C209.773 239.297 207.523 239.703 205.148 239.703C202.57 239.703 200.195 239.25 198.023 238.344C195.852 237.438 193.961 236.164 192.352 234.523C190.742 232.867 189.492 230.93 188.602 228.711C187.711 226.477 187.266 224.047 187.266 221.422C187.266 218.797 187.711 216.375 188.602 214.156C189.492 211.922 190.742 209.984 192.352 208.344C193.961 206.688 195.852 205.406 198.023 204.5C200.195 203.594 202.57 203.141 205.148 203.141C207.539 203.141 209.789 203.555 211.898 204.383C214.023 205.195 215.891 206.375 217.5 207.922L215.367 210.055C214.148 208.789 212.641 207.812 210.844 207.125C209.047 206.422 207.141 206.07 205.125 206.07C202.328 206.07 199.828 206.734 197.625 208.062C195.438 209.391 193.711 211.203 192.445 213.5C191.18 215.797 190.547 218.406 190.547 221.328C190.547 224.281 191.188 226.922 192.469 229.25C193.75 231.578 195.5 233.414 197.719 234.758C199.938 236.102 202.453 236.773 205.266 236.773C207.25 236.773 209.117 236.43 210.867 235.742C212.633 235.039 214.133 234.055 215.367 232.789ZM222.656 227.281C222.656 224.938 223.172 222.852 224.203 221.023C225.25 219.18 226.68 217.734 228.492 216.688C230.305 215.625 232.367 215.094 234.68 215.094C236.992 215.094 239.055 215.625 240.867 216.688C242.68 217.734 244.102 219.18 245.133 221.023C246.18 222.852 246.703 224.938 246.703 227.281C246.703 229.625 246.18 231.719 245.133 233.562C244.102 235.391 242.68 236.836 240.867 237.898C239.055 238.945 236.992 239.469 234.68 239.469C232.367 239.469 230.305 238.945 228.492 237.898C226.68 236.836 225.25 235.391 224.203 233.562C223.172 231.719 222.656 229.625 222.656 227.281ZM225.844 227.281C225.844 229.078 226.227 230.688 226.992 232.109C227.758 233.516 228.805 234.625 230.133 235.438C231.461 236.25 232.977 236.656 234.68 236.656C236.383 236.656 237.898 236.25 239.227 235.438C240.555 234.625 241.602 233.516 242.367 232.109C243.133 230.688 243.516 229.078 243.516 227.281C243.516 225.469 243.133 223.859 242.367 222.453C241.602 221.047 240.555 219.938 239.227 219.125C237.898 218.312 236.383 217.906 234.68 217.906C232.977 217.906 231.461 218.312 230.133 219.125C228.805 219.938 227.758 221.047 226.992 222.453C226.227 223.859 225.844 225.469 225.844 227.281ZM253.266 239V215.562H255.938L256.195 219.453C257.117 218.109 258.281 217.047 259.688 216.266C261.109 215.484 262.672 215.094 264.375 215.094C266.234 215.094 267.867 215.555 269.273 216.477C270.68 217.398 271.773 218.688 272.555 220.344C273.352 221.984 273.75 223.898 273.75 226.086V239H270.703V226.227C270.703 223.664 270.086 221.641 268.852 220.156C267.617 218.656 265.945 217.906 263.836 217.906C262.43 217.906 261.164 218.234 260.039 218.891C258.93 219.547 258.047 220.453 257.391 221.609C256.734 222.75 256.375 224.07 256.312 225.57V239H253.266ZM280.078 237.008L281.32 234.641C282.055 235.219 283.047 235.703 284.297 236.094C285.562 236.469 286.758 236.656 287.883 236.656C289.227 236.656 290.297 236.32 291.094 235.648C291.891 234.961 292.289 234.047 292.289 232.906C292.289 231.922 292.008 231.109 291.445 230.469C290.898 229.828 290.188 229.281 289.312 228.828C288.438 228.375 287.508 227.945 286.523 227.539C285.539 227.117 284.609 226.648 283.734 226.133C282.859 225.602 282.141 224.953 281.578 224.188C281.031 223.422 280.758 222.453 280.758 221.281C280.758 219.484 281.469 218.008 282.891 216.852C284.328 215.68 286.156 215.094 288.375 215.094C290.422 215.094 292.391 215.633 294.281 216.711L293.039 219.055C291.539 218.289 289.992 217.906 288.398 217.906C287.023 217.906 285.914 218.203 285.07 218.797C284.227 219.375 283.805 220.141 283.805 221.094C283.805 221.875 284.078 222.547 284.625 223.109C285.188 223.656 285.906 224.156 286.781 224.609C287.656 225.062 288.586 225.523 289.57 225.992C290.555 226.461 291.484 226.992 292.359 227.586C293.234 228.18 293.945 228.906 294.492 229.766C295.055 230.625 295.336 231.672 295.336 232.906C295.336 234.891 294.617 236.484 293.18 237.688C291.758 238.875 289.852 239.469 287.461 239.469C284.852 239.469 282.391 238.648 280.078 237.008ZM301.688 215.562H304.734V228.336C304.734 230.883 305.352 232.906 306.586 234.406C307.82 235.906 309.492 236.656 311.602 236.656C313.008 236.656 314.266 236.328 315.375 235.672C316.5 235.016 317.391 234.109 318.047 232.953C318.719 231.797 319.078 230.477 319.125 228.992V215.562H322.172V239H319.5L319.242 235.109C318.336 236.453 317.172 237.516 315.75 238.297C314.344 239.078 312.781 239.469 311.062 239.469C309.203 239.469 307.57 239.008 306.164 238.086C304.758 237.164 303.656 235.875 302.859 234.219C302.078 232.562 301.688 230.648 301.688 228.477V215.562ZM333.656 202.906V239H330.609V202.906H333.656ZM344.484 218.375H340.453V215.562H344.484V209.703H347.531V215.562H354.188V218.375H347.531V231.828C347.531 233.547 347.898 234.805 348.633 235.602C349.383 236.398 350.531 236.797 352.078 236.797C352.406 236.797 352.75 236.781 353.109 236.75C353.469 236.703 353.828 236.625 354.188 236.516V238.977C353.797 239.133 353.352 239.258 352.852 239.352C352.367 239.445 351.812 239.492 351.188 239.492C349.016 239.492 347.352 238.859 346.195 237.594C345.055 236.328 344.484 234.516 344.484 232.156V218.375ZM360.469 232.18C360.469 229.867 361.344 228.016 363.094 226.625C364.844 225.234 367.156 224.539 370.031 224.539C372.297 224.539 374.531 224.969 376.734 225.828V224.961C376.734 222.711 376.094 220.977 374.812 219.758C373.547 218.523 371.922 217.906 369.938 217.906C368.969 217.906 367.938 218.062 366.844 218.375C365.766 218.688 364.656 219.164 363.516 219.805L362.438 217.227C363.844 216.477 365.211 215.938 366.539 215.609C367.883 215.266 369.133 215.094 370.289 215.094C373.086 215.094 375.367 215.953 377.133 217.672C378.898 219.391 379.781 221.812 379.781 224.938V239H377.109L376.875 235.203C376.125 236.547 375.062 237.594 373.688 238.344C372.312 239.094 370.695 239.469 368.836 239.469C366.305 239.469 364.273 238.797 362.742 237.453C361.227 236.109 360.469 234.352 360.469 232.18ZM370.43 227.352C368.32 227.352 366.664 227.781 365.461 228.641C364.258 229.5 363.656 230.688 363.656 232.203C363.656 233.562 364.141 234.648 365.109 235.461C366.094 236.258 367.414 236.656 369.07 236.656C370.477 236.656 371.742 236.367 372.867 235.789C374.008 235.195 374.922 234.391 375.609 233.375C376.297 232.359 376.672 231.211 376.734 229.93V228.547C374.641 227.75 372.539 227.352 370.43 227.352ZM389.906 218.375H385.875V215.562H389.906V209.703H392.953V215.562H399.609V218.375H392.953V231.828C392.953 233.547 393.32 234.805 394.055 235.602C394.805 236.398 395.953 236.797 397.5 236.797C397.828 236.797 398.172 236.781 398.531 236.75C398.891 236.703 399.25 236.625 399.609 236.516V238.977C399.219 239.133 398.773 239.258 398.273 239.352C397.789 239.445 397.234 239.492 396.609 239.492C394.438 239.492 392.773 238.859 391.617 237.594C390.477 236.328 389.906 234.516 389.906 232.156V218.375ZM406.125 205.672C406.125 204.984 406.336 204.43 406.758 204.008C407.195 203.586 407.75 203.375 408.422 203.375C409.109 203.375 409.664 203.586 410.086 204.008C410.508 204.43 410.719 204.984 410.719 205.672C410.719 206.359 410.508 206.914 410.086 207.336C409.664 207.758 409.109 207.969 408.422 207.969C407.75 207.969 407.195 207.758 406.758 207.336C406.336 206.914 406.125 206.359 406.125 205.672ZM406.898 239V215.562H409.945V239H406.898ZM416.531 227.281C416.531 224.938 417.047 222.852 418.078 221.023C419.125 219.18 420.555 217.734 422.367 216.688C424.18 215.625 426.242 215.094 428.555 215.094C430.867 215.094 432.93 215.625 434.742 216.688C436.555 217.734 437.977 219.18 439.008 221.023C440.055 222.852 440.578 224.938 440.578 227.281C440.578 229.625 440.055 231.719 439.008 233.562C437.977 235.391 436.555 236.836 434.742 237.898C432.93 238.945 430.867 239.469 428.555 239.469C426.242 239.469 424.18 238.945 422.367 237.898C420.555 236.836 419.125 235.391 418.078 233.562C417.047 231.719 416.531 229.625 416.531 227.281ZM419.719 227.281C419.719 229.078 420.102 230.688 420.867 232.109C421.633 233.516 422.68 234.625 424.008 235.438C425.336 236.25 426.852 236.656 428.555 236.656C430.258 236.656 431.773 236.25 433.102 235.438C434.43 234.625 435.477 233.516 436.242 232.109C437.008 230.688 437.391 229.078 437.391 227.281C437.391 225.469 437.008 223.859 436.242 222.453C435.477 221.047 434.43 219.938 433.102 219.125C431.773 218.312 430.258 217.906 428.555 217.906C426.852 217.906 425.336 218.312 424.008 219.125C422.68 219.938 421.633 221.047 420.867 222.453C420.102 223.859 419.719 225.469 419.719 227.281ZM447.141 239V215.562H449.812L450.07 219.453C450.992 218.109 452.156 217.047 453.562 216.266C454.984 215.484 456.547 215.094 458.25 215.094C460.109 215.094 461.742 215.555 463.148 216.477C464.555 217.398 465.648 218.688 466.43 220.344C467.227 221.984 467.625 223.898 467.625 226.086V239H464.578V226.227C464.578 223.664 463.961 221.641 462.727 220.156C461.492 218.656 459.82 217.906 457.711 217.906C456.305 217.906 455.039 218.234 453.914 218.891C452.805 219.547 451.922 220.453 451.266 221.609C450.609 222.75 450.25 224.07 450.188 225.57V239H447.141ZM3.75 295.453V292.875H22.5V295.453H3.75ZM42.6562 290.602V270.844H45.8203V290.578C45.8203 293.266 46.2891 295.602 47.2266 297.586C48.1641 299.555 49.4609 301.078 51.1172 302.156C52.7891 303.234 54.7109 303.773 56.8828 303.773C59.0547 303.773 60.9688 303.234 62.625 302.156C64.2812 301.078 65.5781 299.555 66.5156 297.586C67.4531 295.617 67.9219 293.289 67.9219 290.602V270.844H71.0859V290.602C71.0859 293.914 70.5078 296.781 69.3516 299.203C68.2109 301.609 66.5781 303.461 64.4531 304.758C62.3438 306.055 59.8203 306.703 56.8828 306.703C53.9453 306.703 51.4141 306.055 49.2891 304.758C47.1641 303.461 45.5234 301.609 44.3672 299.203C43.2266 296.781 42.6562 293.914 42.6562 290.602ZM77.9062 304.008L79.1484 301.641C79.8828 302.219 80.875 302.703 82.125 303.094C83.3906 303.469 84.5859 303.656 85.7109 303.656C87.0547 303.656 88.125 303.32 88.9219 302.648C89.7188 301.961 90.1172 301.047 90.1172 299.906C90.1172 298.922 89.8359 298.109 89.2734 297.469C88.7266 296.828 88.0156 296.281 87.1406 295.828C86.2656 295.375 85.3359 294.945 84.3516 294.539C83.3672 294.117 82.4375 293.648 81.5625 293.133C80.6875 292.602 79.9688 291.953 79.4062 291.188C78.8594 290.422 78.5859 289.453 78.5859 288.281C78.5859 286.484 79.2969 285.008 80.7188 283.852C82.1562 282.68 83.9844 282.094 86.2031 282.094C88.25 282.094 90.2188 282.633 92.1094 283.711L90.8672 286.055C89.3672 285.289 87.8203 284.906 86.2266 284.906C84.8516 284.906 83.7422 285.203 82.8984 285.797C82.0547 286.375 81.6328 287.141 81.6328 288.094C81.6328 288.875 81.9062 289.547 82.4531 290.109C83.0156 290.656 83.7344 291.156 84.6094 291.609C85.4844 292.062 86.4141 292.523 87.3984 292.992C88.3828 293.461 89.3125 293.992 90.1875 294.586C91.0625 295.18 91.7734 295.906 92.3203 296.766C92.8828 297.625 93.1641 298.672 93.1641 299.906C93.1641 301.891 92.4453 303.484 91.0078 304.688C89.5859 305.875 87.6797 306.469 85.2891 306.469C82.6797 306.469 80.2188 305.648 77.9062 304.008ZM110.883 306.469C108.461 306.469 106.281 305.93 104.344 304.852C102.422 303.773 100.898 302.305 99.7734 300.445C98.6641 298.586 98.1094 296.492 98.1094 294.164C98.1094 291.867 98.6328 289.812 99.6797 288C100.727 286.172 102.148 284.734 103.945 283.688C105.742 282.625 107.773 282.094 110.039 282.094C112.242 282.094 114.203 282.602 115.922 283.617C117.656 284.633 119.016 286.031 120 287.812C120.984 289.578 121.477 291.594 121.477 293.859V295.242H101.297C101.484 296.961 102.047 298.453 102.984 299.719C103.938 300.984 105.125 301.961 106.547 302.648C107.969 303.32 109.484 303.656 111.094 303.656C113.953 303.656 116.484 302.648 118.688 300.633L120.445 302.977C117.586 305.305 114.398 306.469 110.883 306.469ZM101.32 292.664H118.289C117.945 290.336 117.016 288.469 115.5 287.062C113.984 285.656 112.117 284.953 109.898 284.953C107.633 284.953 105.711 285.672 104.133 287.109C102.57 288.547 101.633 290.398 101.32 292.664ZM128.062 282.562H130.734L131.016 286.852C131.844 285.367 132.953 284.203 134.344 283.359C135.75 282.516 137.344 282.094 139.125 282.094C139.719 282.094 140.328 282.141 140.953 282.234L140.508 285.07C139.961 284.961 139.398 284.906 138.82 284.906C136.602 284.906 134.789 285.688 133.383 287.25C131.977 288.797 131.219 290.875 131.109 293.484V306H128.062V282.562ZM155.953 303.234L157.57 300.422C158.68 301.484 159.984 302.312 161.484 302.906C162.984 303.484 164.547 303.773 166.172 303.773C167.859 303.773 169.359 303.477 170.672 302.883C171.984 302.289 173.008 301.477 173.742 300.445C174.492 299.398 174.867 298.211 174.867 296.883C174.867 295.633 174.547 294.562 173.906 293.672C173.281 292.766 172.438 291.977 171.375 291.305C170.328 290.633 169.18 290.008 167.93 289.43C166.68 288.852 165.43 288.258 164.18 287.648C162.93 287.039 161.773 286.352 160.711 285.586C159.664 284.805 158.82 283.883 158.18 282.82C157.555 281.758 157.242 280.484 157.242 279C157.242 277.266 157.695 275.734 158.602 274.406C159.523 273.062 160.789 272.016 162.398 271.266C164.023 270.516 165.898 270.141 168.023 270.141C170.742 270.141 173.492 270.766 176.273 272.016L174.984 274.711C172.938 273.617 170.758 273.07 168.445 273.07C166.086 273.07 164.156 273.617 162.656 274.711C161.156 275.789 160.406 277.188 160.406 278.906C160.406 280.047 160.719 281.031 161.344 281.859C161.984 282.688 162.828 283.43 163.875 284.086C164.938 284.742 166.094 285.367 167.344 285.961C168.594 286.555 169.844 287.18 171.094 287.836C172.344 288.477 173.492 289.203 174.539 290.016C175.602 290.828 176.445 291.789 177.07 292.898C177.711 294.008 178.031 295.32 178.031 296.836C178.031 298.727 177.516 300.422 176.484 301.922C175.453 303.406 174.039 304.578 172.242 305.438C170.461 306.281 168.422 306.703 166.125 306.703C162.359 306.703 158.969 305.547 155.953 303.234ZM185.062 282.562H188.109V295.336C188.109 297.883 188.727 299.906 189.961 301.406C191.195 302.906 192.867 303.656 194.977 303.656C196.383 303.656 197.641 303.328 198.75 302.672C199.875 302.016 200.766 301.109 201.422 299.953C202.094 298.797 202.453 297.477 202.5 295.992V282.562H205.547V306H202.875L202.617 302.109C201.711 303.453 200.547 304.516 199.125 305.297C197.719 306.078 196.156 306.469 194.438 306.469C192.578 306.469 190.945 306.008 189.539 305.086C188.133 304.164 187.031 302.875 186.234 301.219C185.453 299.562 185.062 297.648 185.062 295.477V282.562ZM213.984 282.562H216.656L216.938 286.852C217.766 285.367 218.875 284.203 220.266 283.359C221.672 282.516 223.266 282.094 225.047 282.094C225.641 282.094 226.25 282.141 226.875 282.234L226.43 285.07C225.883 284.961 225.32 284.906 224.742 284.906C222.523 284.906 220.711 285.688 219.305 287.25C217.898 288.797 217.141 290.875 217.031 293.484V306H213.984V282.562ZM228.281 282.562H231.609L237.961 297.938C238.32 298.781 238.656 299.656 238.969 300.562C239.297 301.469 239.562 302.289 239.766 303.023C240.312 301.227 240.922 299.523 241.594 297.914L247.945 282.562H251.109L241.383 306H238.008L228.281 282.562ZM267.164 306.469C264.742 306.469 262.562 305.93 260.625 304.852C258.703 303.773 257.18 302.305 256.055 300.445C254.945 298.586 254.391 296.492 254.391 294.164C254.391 291.867 254.914 289.812 255.961 288C257.008 286.172 258.43 284.734 260.227 283.688C262.023 282.625 264.055 282.094 266.32 282.094C268.523 282.094 270.484 282.602 272.203 283.617C273.938 284.633 275.297 286.031 276.281 287.812C277.266 289.578 277.758 291.594 277.758 293.859V295.242H257.578C257.766 296.961 258.328 298.453 259.266 299.719C260.219 300.984 261.406 301.961 262.828 302.648C264.25 303.32 265.766 303.656 267.375 303.656C270.234 303.656 272.766 302.648 274.969 300.633L276.727 302.977C273.867 305.305 270.68 306.469 267.164 306.469ZM257.602 292.664H274.57C274.227 290.336 273.297 288.469 271.781 287.062C270.266 285.656 268.398 284.953 266.18 284.953C263.914 284.953 261.992 285.672 260.414 287.109C258.852 288.547 257.914 290.398 257.602 292.664ZM282.469 282.562H285.633L291.539 295.5C292.195 296.922 292.742 298.188 293.18 299.297C293.617 300.391 294 301.477 294.328 302.555L302.602 282.562H305.812L291.047 318.188H287.836L292.992 305.742L282.469 282.562Z" fill="#303030"/>
<path d="M813.75 228.453V225.875H832.5V228.453H813.75ZM852.656 203.844H872.414V206.773H855.82V219.5H871.453V222.43H855.82V236.07H873.141V239H852.656V203.844ZM882.422 239H878.766L888.117 226.789L879.492 215.562H883.336L890.297 224.609L897.258 215.562H900.914L892.125 227L901.359 239H897.516L889.945 229.18L882.422 239ZM907.219 250.719V215.562H909.891L910.172 219.781C911.219 218.328 912.562 217.188 914.203 216.359C915.844 215.516 917.656 215.094 919.641 215.094C921.906 215.094 923.93 215.625 925.711 216.688C927.492 217.734 928.891 219.18 929.906 221.023C930.938 222.852 931.453 224.938 931.453 227.281C931.453 229.609 930.938 231.695 929.906 233.539C928.891 235.383 927.492 236.836 925.711 237.898C923.93 238.945 921.906 239.469 919.641 239.469C917.672 239.469 915.883 239.062 914.273 238.25C912.664 237.438 911.328 236.328 910.266 234.922V250.719H907.219ZM919.289 217.906C917.555 217.906 916.008 218.312 914.648 219.125C913.289 219.938 912.219 221.047 911.438 222.453C910.656 223.859 910.266 225.469 910.266 227.281C910.266 229.078 910.656 230.688 911.438 232.109C912.219 233.516 913.289 234.625 914.648 235.438C916.008 236.25 917.555 236.656 919.289 236.656C921.023 236.656 922.57 236.25 923.93 235.438C925.305 234.625 926.383 233.516 927.164 232.109C927.945 230.688 928.336 229.078 928.336 227.281C928.336 225.469 927.945 223.859 927.164 222.453C926.383 221.047 925.312 219.938 923.953 219.125C922.594 218.312 921.039 217.906 919.289 217.906ZM948.914 239.469C946.492 239.469 944.312 238.93 942.375 237.852C940.453 236.773 938.93 235.305 937.805 233.445C936.695 231.586 936.141 229.492 936.141 227.164C936.141 224.867 936.664 222.812 937.711 221C938.758 219.172 940.18 217.734 941.977 216.688C943.773 215.625 945.805 215.094 948.07 215.094C950.273 215.094 952.234 215.602 953.953 216.617C955.688 217.633 957.047 219.031 958.031 220.812C959.016 222.578 959.508 224.594 959.508 226.859V228.242H939.328C939.516 229.961 940.078 231.453 941.016 232.719C941.969 233.984 943.156 234.961 944.578 235.648C946 236.32 947.516 236.656 949.125 236.656C951.984 236.656 954.516 235.648 956.719 233.633L958.477 235.977C955.617 238.305 952.43 239.469 948.914 239.469ZM939.352 225.664H956.32C955.977 223.336 955.047 221.469 953.531 220.062C952.016 218.656 950.148 217.953 947.93 217.953C945.664 217.953 943.742 218.672 942.164 220.109C940.602 221.547 939.664 223.398 939.352 225.664ZM966.094 215.562H968.766L969.047 219.852C969.875 218.367 970.984 217.203 972.375 216.359C973.781 215.516 975.375 215.094 977.156 215.094C977.75 215.094 978.359 215.141 978.984 215.234L978.539 218.07C977.992 217.961 977.43 217.906 976.852 217.906C974.633 217.906 972.82 218.688 971.414 220.25C970.008 221.797 969.25 223.875 969.141 226.484V239H966.094V215.562ZM982.922 205.672C982.922 204.984 983.133 204.43 983.555 204.008C983.992 203.586 984.547 203.375 985.219 203.375C985.906 203.375 986.461 203.586 986.883 204.008C987.305 204.43 987.516 204.984 987.516 205.672C987.516 206.359 987.305 206.914 986.883 207.336C986.461 207.758 985.906 207.969 985.219 207.969C984.547 207.969 983.992 207.758 983.555 207.336C983.133 206.914 982.922 206.359 982.922 205.672ZM983.695 239V215.562H986.742V239H983.695ZM1006.1 239.469C1003.68 239.469 1001.5 238.93 999.562 237.852C997.641 236.773 996.117 235.305 994.992 233.445C993.883 231.586 993.328 229.492 993.328 227.164C993.328 224.867 993.852 222.812 994.898 221C995.945 219.172 997.367 217.734 999.164 216.688C1000.96 215.625 1002.99 215.094 1005.26 215.094C1007.46 215.094 1009.42 215.602 1011.14 216.617C1012.88 217.633 1014.23 219.031 1015.22 220.812C1016.2 222.578 1016.7 224.594 1016.7 226.859V228.242H996.516C996.703 229.961 997.266 231.453 998.203 232.719C999.156 233.984 1000.34 234.961 1001.77 235.648C1003.19 236.32 1004.7 236.656 1006.31 236.656C1009.17 236.656 1011.7 235.648 1013.91 233.633L1015.66 235.977C1012.8 238.305 1009.62 239.469 1006.1 239.469ZM996.539 225.664H1013.51C1013.16 223.336 1012.23 221.469 1010.72 220.062C1009.2 218.656 1007.34 217.953 1005.12 217.953C1002.85 217.953 1000.93 218.672 999.352 220.109C997.789 221.547 996.852 223.398 996.539 225.664ZM1023.28 239V215.562H1025.95L1026.21 219.453C1027.13 218.109 1028.3 217.047 1029.7 216.266C1031.12 215.484 1032.69 215.094 1034.39 215.094C1036.25 215.094 1037.88 215.555 1039.29 216.477C1040.7 217.398 1041.79 218.688 1042.57 220.344C1043.37 221.984 1043.77 223.898 1043.77 226.086V239H1040.72V226.227C1040.72 223.664 1040.1 221.641 1038.87 220.156C1037.63 218.656 1035.96 217.906 1033.85 217.906C1032.45 217.906 1031.18 218.234 1030.05 218.891C1028.95 219.547 1028.06 220.453 1027.41 221.609C1026.75 222.75 1026.39 224.07 1026.33 225.57V239H1023.28ZM1068.05 234.148L1070.16 236.305C1068 238.414 1065.3 239.469 1062.07 239.469C1059.76 239.469 1057.68 238.938 1055.84 237.875C1053.99 236.797 1052.53 235.344 1051.45 233.516C1050.39 231.672 1049.86 229.594 1049.86 227.281C1049.86 224.969 1050.39 222.898 1051.45 221.07C1052.53 219.227 1053.99 217.773 1055.84 216.711C1057.68 215.633 1059.76 215.094 1062.07 215.094C1065.27 215.094 1067.97 216.141 1070.16 218.234L1068.05 220.414C1066.47 218.742 1064.47 217.906 1062.05 217.906C1060.34 217.906 1058.81 218.32 1057.45 219.148C1056.11 219.961 1055.04 221.078 1054.24 222.5C1053.45 223.906 1053.05 225.5 1053.05 227.281C1053.05 229.047 1053.45 230.641 1054.24 232.062C1055.04 233.469 1056.11 234.586 1057.45 235.414C1058.81 236.242 1060.34 236.656 1062.05 236.656C1064.47 236.656 1066.47 235.82 1068.05 234.148ZM1087.62 239.469C1085.2 239.469 1083.02 238.93 1081.08 237.852C1079.16 236.773 1077.63 235.305 1076.51 233.445C1075.4 231.586 1074.84 229.492 1074.84 227.164C1074.84 224.867 1075.37 222.812 1076.41 221C1077.46 219.172 1078.88 217.734 1080.68 216.688C1082.48 215.625 1084.51 215.094 1086.77 215.094C1088.98 215.094 1090.94 215.602 1092.66 216.617C1094.39 217.633 1095.75 219.031 1096.73 220.812C1097.72 222.578 1098.21 224.594 1098.21 226.859V228.242H1078.03C1078.22 229.961 1078.78 231.453 1079.72 232.719C1080.67 233.984 1081.86 234.961 1083.28 235.648C1084.7 236.32 1086.22 236.656 1087.83 236.656C1090.69 236.656 1093.22 235.648 1095.42 233.633L1097.18 235.977C1094.32 238.305 1091.13 239.469 1087.62 239.469ZM1078.05 225.664H1095.02C1094.68 223.336 1093.75 221.469 1092.23 220.062C1090.72 218.656 1088.85 217.953 1086.63 217.953C1084.37 217.953 1082.45 218.672 1080.87 220.109C1079.3 221.547 1078.37 223.398 1078.05 225.664ZM1116.98 239V203.844H1122.05L1134.23 229.953L1146.4 203.844H1151.34V239H1148.18V207.406L1136.2 233.094H1132.2L1120.15 207.312V239H1116.98ZM1158.8 232.18C1158.8 229.867 1159.67 228.016 1161.42 226.625C1163.17 225.234 1165.48 224.539 1168.36 224.539C1170.62 224.539 1172.86 224.969 1175.06 225.828V224.961C1175.06 222.711 1174.42 220.977 1173.14 219.758C1171.88 218.523 1170.25 217.906 1168.27 217.906C1167.3 217.906 1166.27 218.062 1165.17 218.375C1164.09 218.688 1162.98 219.164 1161.84 219.805L1160.77 217.227C1162.17 216.477 1163.54 215.938 1164.87 215.609C1166.21 215.266 1167.46 215.094 1168.62 215.094C1171.41 215.094 1173.7 215.953 1175.46 217.672C1177.23 219.391 1178.11 221.812 1178.11 224.938V239H1175.44L1175.2 235.203C1174.45 236.547 1173.39 237.594 1172.02 238.344C1170.64 239.094 1169.02 239.469 1167.16 239.469C1164.63 239.469 1162.6 238.797 1161.07 237.453C1159.55 236.109 1158.8 234.352 1158.8 232.18ZM1168.76 227.352C1166.65 227.352 1164.99 227.781 1163.79 228.641C1162.59 229.5 1161.98 230.688 1161.98 232.203C1161.98 233.562 1162.47 234.648 1163.44 235.461C1164.42 236.258 1165.74 236.656 1167.4 236.656C1168.8 236.656 1170.07 236.367 1171.2 235.789C1172.34 235.195 1173.25 234.391 1173.94 233.375C1174.62 232.359 1175 231.211 1175.06 229.93V228.547C1172.97 227.75 1170.87 227.352 1168.76 227.352ZM1185.84 250.719V215.562H1188.52L1188.8 219.781C1189.84 218.328 1191.19 217.188 1192.83 216.359C1194.47 215.516 1196.28 215.094 1198.27 215.094C1200.53 215.094 1202.55 215.625 1204.34 216.688C1206.12 217.734 1207.52 219.18 1208.53 221.023C1209.56 222.852 1210.08 224.938 1210.08 227.281C1210.08 229.609 1209.56 231.695 1208.53 233.539C1207.52 235.383 1206.12 236.836 1204.34 237.898C1202.55 238.945 1200.53 239.469 1198.27 239.469C1196.3 239.469 1194.51 239.062 1192.9 238.25C1191.29 237.438 1189.95 236.328 1188.89 234.922V250.719H1185.84ZM1197.91 217.906C1196.18 217.906 1194.63 218.312 1193.27 219.125C1191.91 219.938 1190.84 221.047 1190.06 222.453C1189.28 223.859 1188.89 225.469 1188.89 227.281C1188.89 229.078 1189.28 230.688 1190.06 232.109C1190.84 233.516 1191.91 234.625 1193.27 235.438C1194.63 236.25 1196.18 236.656 1197.91 236.656C1199.65 236.656 1201.2 236.25 1202.55 235.438C1203.93 234.625 1205.01 233.516 1205.79 232.109C1206.57 230.688 1206.96 229.078 1206.96 227.281C1206.96 225.469 1206.57 223.859 1205.79 222.453C1205.01 221.047 1203.94 219.938 1202.58 219.125C1201.22 218.312 1199.66 217.906 1197.91 217.906ZM1216.64 250.719V215.562H1219.31L1219.59 219.781C1220.64 218.328 1221.98 217.188 1223.62 216.359C1225.27 215.516 1227.08 215.094 1229.06 215.094C1231.33 215.094 1233.35 215.625 1235.13 216.688C1236.91 217.734 1238.31 219.18 1239.33 221.023C1240.36 222.852 1240.88 224.938 1240.88 227.281C1240.88 229.609 1240.36 231.695 1239.33 233.539C1238.31 235.383 1236.91 236.836 1235.13 237.898C1233.35 238.945 1231.33 239.469 1229.06 239.469C1227.09 239.469 1225.3 239.062 1223.7 238.25C1222.09 237.438 1220.75 236.328 1219.69 234.922V250.719H1216.64ZM1228.71 217.906C1226.98 217.906 1225.43 218.312 1224.07 219.125C1222.71 219.938 1221.64 221.047 1220.86 222.453C1220.08 223.859 1219.69 225.469 1219.69 227.281C1219.69 229.078 1220.08 230.688 1220.86 232.109C1221.64 233.516 1222.71 234.625 1224.07 235.438C1225.43 236.25 1226.98 236.656 1228.71 236.656C1230.45 236.656 1231.99 236.25 1233.35 235.438C1234.73 234.625 1235.8 233.516 1236.59 232.109C1237.37 230.688 1237.76 229.078 1237.76 227.281C1237.76 225.469 1237.37 223.859 1236.59 222.453C1235.8 221.047 1234.73 219.938 1233.38 219.125C1232.02 218.312 1230.46 217.906 1228.71 217.906ZM1246.69 205.672C1246.69 204.984 1246.9 204.43 1247.32 204.008C1247.76 203.586 1248.31 203.375 1248.98 203.375C1249.67 203.375 1250.23 203.586 1250.65 204.008C1251.07 204.43 1251.28 204.984 1251.28 205.672C1251.28 206.359 1251.07 206.914 1250.65 207.336C1250.23 207.758 1249.67 207.969 1248.98 207.969C1248.31 207.969 1247.76 207.758 1247.32 207.336C1246.9 206.914 1246.69 206.359 1246.69 205.672ZM1247.46 239V215.562H1250.51V239H1247.46ZM1258.97 239V215.562H1261.64L1261.9 219.453C1262.82 218.109 1263.98 217.047 1265.39 216.266C1266.81 215.484 1268.38 215.094 1270.08 215.094C1271.94 215.094 1273.57 215.555 1274.98 216.477C1276.38 217.398 1277.48 218.688 1278.26 220.344C1279.05 221.984 1279.45 223.898 1279.45 226.086V239H1276.41V226.227C1276.41 223.664 1275.79 221.641 1274.55 220.156C1273.32 218.656 1271.65 217.906 1269.54 217.906C1268.13 217.906 1266.87 218.234 1265.74 218.891C1264.63 219.547 1263.75 220.453 1263.09 221.609C1262.44 222.75 1262.08 224.07 1262.02 225.57V239H1258.97ZM1296.98 239.516C1294.8 239.516 1292.84 238.992 1291.1 237.945C1289.38 236.883 1288.02 235.43 1287.02 233.586C1286.04 231.742 1285.55 229.648 1285.55 227.305C1285.55 224.961 1286.04 222.867 1287.02 221.023C1288.02 219.18 1289.38 217.734 1291.1 216.688C1292.84 215.625 1294.8 215.094 1296.98 215.094C1298.89 215.094 1300.62 215.5 1302.19 216.312C1303.75 217.125 1305.04 218.227 1306.05 219.617L1306.31 215.562H1308.98V237.242C1308.98 241.805 1307.86 245.344 1305.61 247.859C1303.36 250.391 1300.19 251.656 1296.09 251.656C1292.77 251.656 1289.97 250.805 1287.7 249.102L1289.18 246.547C1291.02 248.078 1293.31 248.844 1296.05 248.844C1299.17 248.844 1301.6 247.828 1303.34 245.797C1305.07 243.766 1305.94 240.922 1305.94 237.266V235.133C1304.91 236.492 1303.62 237.562 1302.07 238.344C1300.54 239.125 1298.84 239.516 1296.98 239.516ZM1297.34 217.906C1295.68 217.906 1294.2 218.312 1292.91 219.125C1291.61 219.938 1290.59 221.055 1289.84 222.477C1289.1 223.883 1288.73 225.492 1288.73 227.305C1288.73 229.102 1289.1 230.711 1289.84 232.133C1290.59 233.555 1291.61 234.672 1292.91 235.484C1294.2 236.297 1295.68 236.703 1297.34 236.703C1298.99 236.703 1300.47 236.297 1301.77 235.484C1303.06 234.672 1304.08 233.555 1304.81 232.133C1305.56 230.711 1305.94 229.102 1305.94 227.305C1305.94 225.492 1305.56 223.883 1304.81 222.477C1304.08 221.055 1303.06 219.938 1301.77 219.125C1300.47 218.312 1298.99 217.906 1297.34 217.906ZM813.75 296.453V293.875H832.5V296.453H813.75ZM849.375 307L863.109 271.844H866.602L880.336 307H877.055L873.375 297.602H856.453L852.773 307H849.375ZM862.922 281.008L857.578 294.672H872.25L866.906 281.008C866.594 280.18 866.258 279.266 865.898 278.266C865.539 277.266 865.203 276.25 864.891 275.219C864.594 276.188 864.266 277.188 863.906 278.219C863.562 279.25 863.234 280.18 862.922 281.008ZM884.109 283.539H887.977V278.266C887.977 276.172 888.594 274.461 889.828 273.133C891.062 271.805 892.641 271.141 894.562 271.141C895.953 271.141 897.328 271.516 898.688 272.266L897.586 274.75C896.695 274.234 895.797 273.977 894.891 273.977C893.75 273.977 892.82 274.375 892.102 275.172C891.383 275.969 891.023 277.016 891.023 278.312V283.539H897.305V286.352H891.023V307H887.977V286.352H884.109V283.539ZM903.375 283.539H907.242V278.266C907.242 276.172 907.859 274.461 909.094 273.133C910.328 271.805 911.906 271.141 913.828 271.141C915.219 271.141 916.594 271.516 917.953 272.266L916.852 274.75C915.961 274.234 915.062 273.977 914.156 273.977C913.016 273.977 912.086 274.375 911.367 275.172C910.648 275.969 910.289 277.016 910.289 278.312V283.539H916.57V286.352H910.289V307H907.242V286.352H903.375V283.539ZM923.297 273.672C923.297 272.984 923.508 272.43 923.93 272.008C924.367 271.586 924.922 271.375 925.594 271.375C926.281 271.375 926.836 271.586 927.258 272.008C927.68 272.43 927.891 272.984 927.891 273.672C927.891 274.359 927.68 274.914 927.258 275.336C926.836 275.758 926.281 275.969 925.594 275.969C924.922 275.969 924.367 275.758 923.93 275.336C923.508 274.914 923.297 274.359 923.297 273.672ZM924.07 307V283.562H927.117V307H924.07ZM935.578 307V283.562H938.25L938.508 287.453C939.43 286.109 940.594 285.047 942 284.266C943.422 283.484 944.984 283.094 946.688 283.094C948.547 283.094 950.18 283.555 951.586 284.477C952.992 285.398 954.086 286.688 954.867 288.344C955.664 289.984 956.062 291.898 956.062 294.086V307H953.016V294.227C953.016 291.664 952.398 289.641 951.164 288.156C949.93 286.656 948.258 285.906 946.148 285.906C944.742 285.906 943.477 286.234 942.352 286.891C941.242 287.547 940.359 288.453 939.703 289.609C939.047 290.75 938.688 292.07 938.625 293.57V307H935.578ZM963.281 273.672C963.281 272.984 963.492 272.43 963.914 272.008C964.352 271.586 964.906 271.375 965.578 271.375C966.266 271.375 966.82 271.586 967.242 272.008C967.664 272.43 967.875 272.984 967.875 273.672C967.875 274.359 967.664 274.914 967.242 275.336C966.82 275.758 966.266 275.969 965.578 275.969C964.906 275.969 964.352 275.758 963.914 275.336C963.492 274.914 963.281 274.359 963.281 273.672ZM964.055 307V283.562H967.102V307H964.055ZM977.953 286.375H973.922V283.562H977.953V277.703H981V283.562H987.656V286.375H981V299.828C981 301.547 981.367 302.805 982.102 303.602C982.852 304.398 984 304.797 985.547 304.797C985.875 304.797 986.219 304.781 986.578 304.75C986.938 304.703 987.297 304.625 987.656 304.516V306.977C987.266 307.133 986.82 307.258 986.32 307.352C985.836 307.445 985.281 307.492 984.656 307.492C982.484 307.492 980.82 306.859 979.664 305.594C978.523 304.328 977.953 302.516 977.953 300.156V286.375ZM993.047 283.562H996.211L1002.12 296.5C1002.77 297.922 1003.32 299.188 1003.76 300.297C1004.2 301.391 1004.58 302.477 1004.91 303.555L1013.18 283.562H1016.39L1001.62 319.188H998.414L1003.57 306.742L993.047 283.562ZM1033.73 307V271.844H1038.8L1050.98 297.953L1063.15 271.844H1068.09V307H1064.93V275.406L1052.95 301.094H1048.95L1036.9 275.312V307H1033.73ZM1075.55 300.18C1075.55 297.867 1076.42 296.016 1078.17 294.625C1079.92 293.234 1082.23 292.539 1085.11 292.539C1087.38 292.539 1089.61 292.969 1091.81 293.828V292.961C1091.81 290.711 1091.17 288.977 1089.89 287.758C1088.62 286.523 1087 285.906 1085.02 285.906C1084.05 285.906 1083.02 286.062 1081.92 286.375C1080.84 286.688 1079.73 287.164 1078.59 287.805L1077.52 285.227C1078.92 284.477 1080.29 283.938 1081.62 283.609C1082.96 283.266 1084.21 283.094 1085.37 283.094C1088.16 283.094 1090.45 283.953 1092.21 285.672C1093.98 287.391 1094.86 289.812 1094.86 292.938V307H1092.19L1091.95 303.203C1091.2 304.547 1090.14 305.594 1088.77 306.344C1087.39 307.094 1085.77 307.469 1083.91 307.469C1081.38 307.469 1079.35 306.797 1077.82 305.453C1076.3 304.109 1075.55 302.352 1075.55 300.18ZM1085.51 295.352C1083.4 295.352 1081.74 295.781 1080.54 296.641C1079.34 297.5 1078.73 298.688 1078.73 300.203C1078.73 301.562 1079.22 302.648 1080.19 303.461C1081.17 304.258 1082.49 304.656 1084.15 304.656C1085.55 304.656 1086.82 304.367 1087.95 303.789C1089.09 303.195 1090 302.391 1090.69 301.375C1091.38 300.359 1091.75 299.211 1091.81 297.93V296.547C1089.72 295.75 1087.62 295.352 1085.51 295.352ZM1102.59 318.719V283.562H1105.27L1105.55 287.781C1106.59 286.328 1107.94 285.188 1109.58 284.359C1111.22 283.516 1113.03 283.094 1115.02 283.094C1117.28 283.094 1119.3 283.625 1121.09 284.688C1122.87 285.734 1124.27 287.18 1125.28 289.023C1126.31 290.852 1126.83 292.938 1126.83 295.281C1126.83 297.609 1126.31 299.695 1125.28 301.539C1124.27 303.383 1122.87 304.836 1121.09 305.898C1119.3 306.945 1117.28 307.469 1115.02 307.469C1113.05 307.469 1111.26 307.062 1109.65 306.25C1108.04 305.438 1106.7 304.328 1105.64 302.922V318.719H1102.59ZM1114.66 285.906C1112.93 285.906 1111.38 286.312 1110.02 287.125C1108.66 287.938 1107.59 289.047 1106.81 290.453C1106.03 291.859 1105.64 293.469 1105.64 295.281C1105.64 297.078 1106.03 298.688 1106.81 300.109C1107.59 301.516 1108.66 302.625 1110.02 303.438C1111.38 304.25 1112.93 304.656 1114.66 304.656C1116.4 304.656 1117.95 304.25 1119.3 303.438C1120.68 302.625 1121.76 301.516 1122.54 300.109C1123.32 298.688 1123.71 297.078 1123.71 295.281C1123.71 293.469 1123.32 291.859 1122.54 290.453C1121.76 289.047 1120.69 287.938 1119.33 287.125C1117.97 286.312 1116.41 285.906 1114.66 285.906ZM1133.39 318.719V283.562H1136.06L1136.34 287.781C1137.39 286.328 1138.73 285.188 1140.38 284.359C1142.02 283.516 1143.83 283.094 1145.81 283.094C1148.08 283.094 1150.1 283.625 1151.88 284.688C1153.66 285.734 1155.06 287.18 1156.08 289.023C1157.11 290.852 1157.62 292.938 1157.62 295.281C1157.62 297.609 1157.11 299.695 1156.08 301.539C1155.06 303.383 1153.66 304.836 1151.88 305.898C1150.1 306.945 1148.08 307.469 1145.81 307.469C1143.84 307.469 1142.05 307.062 1140.45 306.25C1138.84 305.438 1137.5 304.328 1136.44 302.922V318.719H1133.39ZM1145.46 285.906C1143.73 285.906 1142.18 286.312 1140.82 287.125C1139.46 287.938 1138.39 289.047 1137.61 290.453C1136.83 291.859 1136.44 293.469 1136.44 295.281C1136.44 297.078 1136.83 298.688 1137.61 300.109C1138.39 301.516 1139.46 302.625 1140.82 303.438C1142.18 304.25 1143.73 304.656 1145.46 304.656C1147.2 304.656 1148.74 304.25 1150.1 303.438C1151.48 302.625 1152.55 301.516 1153.34 300.109C1154.12 298.688 1154.51 297.078 1154.51 295.281C1154.51 293.469 1154.12 291.859 1153.34 290.453C1152.55 289.047 1151.48 287.938 1150.12 287.125C1148.77 286.312 1147.21 285.906 1145.46 285.906ZM1163.44 273.672C1163.44 272.984 1163.65 272.43 1164.07 272.008C1164.51 271.586 1165.06 271.375 1165.73 271.375C1166.42 271.375 1166.98 271.586 1167.4 272.008C1167.82 272.43 1168.03 272.984 1168.03 273.672C1168.03 274.359 1167.82 274.914 1167.4 275.336C1166.98 275.758 1166.42 275.969 1165.73 275.969C1165.06 275.969 1164.51 275.758 1164.07 275.336C1163.65 274.914 1163.44 274.359 1163.44 273.672ZM1164.21 307V283.562H1167.26V307H1164.21ZM1175.72 307V283.562H1178.39L1178.65 287.453C1179.57 286.109 1180.73 285.047 1182.14 284.266C1183.56 283.484 1185.12 283.094 1186.83 283.094C1188.69 283.094 1190.32 283.555 1191.73 284.477C1193.13 285.398 1194.23 286.688 1195.01 288.344C1195.8 289.984 1196.2 291.898 1196.2 294.086V307H1193.16V294.227C1193.16 291.664 1192.54 289.641 1191.3 288.156C1190.07 286.656 1188.4 285.906 1186.29 285.906C1184.88 285.906 1183.62 286.234 1182.49 286.891C1181.38 287.547 1180.5 288.453 1179.84 289.609C1179.19 290.75 1178.83 292.07 1178.77 293.57V307H1175.72ZM1213.73 307.516C1211.55 307.516 1209.59 306.992 1207.85 305.945C1206.13 304.883 1204.77 303.43 1203.77 301.586C1202.79 299.742 1202.3 297.648 1202.3 295.305C1202.3 292.961 1202.79 290.867 1203.77 289.023C1204.77 287.18 1206.13 285.734 1207.85 284.688C1209.59 283.625 1211.55 283.094 1213.73 283.094C1215.64 283.094 1217.38 283.5 1218.94 284.312C1220.5 285.125 1221.79 286.227 1222.8 287.617L1223.06 283.562H1225.73V305.242C1225.73 309.805 1224.61 313.344 1222.36 315.859C1220.11 318.391 1216.94 319.656 1212.84 319.656C1209.52 319.656 1206.72 318.805 1204.45 317.102L1205.93 314.547C1207.77 316.078 1210.06 316.844 1212.8 316.844C1215.92 316.844 1218.35 315.828 1220.09 313.797C1221.82 311.766 1222.69 308.922 1222.69 305.266V303.133C1221.66 304.492 1220.37 305.562 1218.82 306.344C1217.29 307.125 1215.59 307.516 1213.73 307.516ZM1214.09 285.906C1212.43 285.906 1210.95 286.312 1209.66 287.125C1208.36 287.938 1207.34 289.055 1206.59 290.477C1205.85 291.883 1205.48 293.492 1205.48 295.305C1205.48 297.102 1205.85 298.711 1206.59 300.133C1207.34 301.555 1208.36 302.672 1209.66 303.484C1210.95 304.297 1212.43 304.703 1214.09 304.703C1215.74 304.703 1217.22 304.297 1218.52 303.484C1219.81 302.672 1220.83 301.555 1221.56 300.133C1222.31 298.711 1222.69 297.102 1222.69 295.305C1222.69 293.492 1222.31 291.883 1221.56 290.477C1220.83 289.055 1219.81 287.938 1218.52 287.125C1217.22 286.312 1215.74 285.906 1214.09 285.906ZM813.75 364.453V361.875H832.5V364.453H813.75ZM850.781 339.844H854.086L863.062 371.109L872.039 339.844H876.023L885 371.109L893.977 339.844H897.258L887.156 375H882.797L876.094 351.609C875.672 350.125 875.297 348.766 874.969 347.531C874.641 346.281 874.328 345.023 874.031 343.758C873.781 344.852 873.492 346.016 873.164 347.25C872.836 348.469 872.43 349.922 871.945 351.609L865.219 375H860.859L850.781 339.844ZM903.094 341.672C903.094 340.984 903.305 340.43 903.727 340.008C904.164 339.586 904.719 339.375 905.391 339.375C906.078 339.375 906.633 339.586 907.055 340.008C907.477 340.43 907.688 340.984 907.688 341.672C907.688 342.359 907.477 342.914 907.055 343.336C906.633 343.758 906.078 343.969 905.391 343.969C904.719 343.969 904.164 343.758 903.727 343.336C903.305 342.914 903.094 342.359 903.094 341.672ZM903.867 375V351.562H906.914V375H903.867ZM915.375 351.562H918.047L918.328 355.852C919.156 354.367 920.266 353.203 921.656 352.359C923.062 351.516 924.656 351.094 926.438 351.094C927.031 351.094 927.641 351.141 928.266 351.234L927.82 354.07C927.273 353.961 926.711 353.906 926.133 353.906C923.914 353.906 922.102 354.688 920.695 356.25C919.289 357.797 918.531 359.875 918.422 362.484V375H915.375V351.562ZM943.852 375.469C941.43 375.469 939.25 374.93 937.312 373.852C935.391 372.773 933.867 371.305 932.742 369.445C931.633 367.586 931.078 365.492 931.078 363.164C931.078 360.867 931.602 358.812 932.648 357C933.695 355.172 935.117 353.734 936.914 352.688C938.711 351.625 940.742 351.094 943.008 351.094C945.211 351.094 947.172 351.602 948.891 352.617C950.625 353.633 951.984 355.031 952.969 356.812C953.953 358.578 954.445 360.594 954.445 362.859V364.242H934.266C934.453 365.961 935.016 367.453 935.953 368.719C936.906 369.984 938.094 370.961 939.516 371.648C940.938 372.32 942.453 372.656 944.062 372.656C946.922 372.656 949.453 371.648 951.656 369.633L953.414 371.977C950.555 374.305 947.367 375.469 943.852 375.469ZM934.289 361.664H951.258C950.914 359.336 949.984 357.469 948.469 356.062C946.953 354.656 945.086 353.953 942.867 353.953C940.602 353.953 938.68 354.672 937.102 356.109C935.539 357.547 934.602 359.398 934.289 361.664ZM959.625 351.539H963.492V346.266C963.492 344.172 964.109 342.461 965.344 341.133C966.578 339.805 968.156 339.141 970.078 339.141C971.469 339.141 972.844 339.516 974.203 340.266L973.102 342.75C972.211 342.234 971.312 341.977 970.406 341.977C969.266 341.977 968.336 342.375 967.617 343.172C966.898 343.969 966.539 345.016 966.539 346.312V351.539H972.82V354.352H966.539V375H963.492V354.352H959.625V351.539ZM980.297 351.562H982.969L983.25 355.852C984.078 354.367 985.188 353.203 986.578 352.359C987.984 351.516 989.578 351.094 991.359 351.094C991.953 351.094 992.562 351.141 993.188 351.234L992.742 354.07C992.195 353.961 991.633 353.906 991.055 353.906C988.836 353.906 987.023 354.688 985.617 356.25C984.211 357.797 983.453 359.875 983.344 362.484V375H980.297V351.562ZM996.891 368.18C996.891 365.867 997.766 364.016 999.516 362.625C1001.27 361.234 1003.58 360.539 1006.45 360.539C1008.72 360.539 1010.95 360.969 1013.16 361.828V360.961C1013.16 358.711 1012.52 356.977 1011.23 355.758C1009.97 354.523 1008.34 353.906 1006.36 353.906C1005.39 353.906 1004.36 354.062 1003.27 354.375C1002.19 354.688 1001.08 355.164 999.938 355.805L998.859 353.227C1000.27 352.477 1001.63 351.938 1002.96 351.609C1004.3 351.266 1005.55 351.094 1006.71 351.094C1009.51 351.094 1011.79 351.953 1013.55 353.672C1015.32 355.391 1016.2 357.812 1016.2 360.938V375H1013.53L1013.3 371.203C1012.55 372.547 1011.48 373.594 1010.11 374.344C1008.73 375.094 1007.12 375.469 1005.26 375.469C1002.73 375.469 1000.7 374.797 999.164 373.453C997.648 372.109 996.891 370.352 996.891 368.18ZM1006.85 363.352C1004.74 363.352 1003.09 363.781 1001.88 364.641C1000.68 365.5 1000.08 366.688 1000.08 368.203C1000.08 369.562 1000.56 370.648 1001.53 371.461C1002.52 372.258 1003.84 372.656 1005.49 372.656C1006.9 372.656 1008.16 372.367 1009.29 371.789C1010.43 371.195 1011.34 370.391 1012.03 369.375C1012.72 368.359 1013.09 367.211 1013.16 365.93V364.547C1011.06 363.75 1008.96 363.352 1006.85 363.352ZM1023.94 351.562H1026.61L1026.82 354.844C1027.73 353.672 1028.84 352.758 1030.17 352.102C1031.52 351.43 1032.97 351.094 1034.53 351.094C1036.39 351.094 1038.05 351.555 1039.52 352.477C1040.99 353.398 1042.11 354.664 1042.88 356.273C1043.72 354.68 1044.9 353.422 1046.41 352.5C1047.95 351.562 1049.64 351.094 1051.5 351.094C1053.3 351.094 1054.91 351.523 1056.33 352.383C1057.75 353.242 1058.88 354.445 1059.7 355.992C1060.53 357.523 1060.95 359.305 1060.95 361.336V375H1057.85V362.039C1057.85 360.227 1057.52 358.719 1056.84 357.516C1056.17 356.312 1055.3 355.414 1054.24 354.82C1053.18 354.211 1052.07 353.906 1050.91 353.906C1049.8 353.906 1048.73 354.195 1047.68 354.773C1046.65 355.336 1045.79 356.188 1045.1 357.328C1044.43 358.469 1044.05 359.898 1043.98 361.617V375H1040.86V362.039C1040.86 360.648 1040.59 359.336 1040.06 358.102C1039.55 356.867 1038.77 355.859 1037.74 355.078C1036.73 354.297 1035.46 353.906 1033.95 353.906C1032.82 353.906 1031.74 354.195 1030.71 354.773C1029.68 355.336 1028.82 356.188 1028.13 357.328C1027.46 358.469 1027.09 359.898 1027.01 361.617H1026.98V375H1023.94V351.562ZM1079.84 375.469C1077.41 375.469 1075.23 374.93 1073.3 373.852C1071.38 372.773 1069.85 371.305 1068.73 369.445C1067.62 367.586 1067.06 365.492 1067.06 363.164C1067.06 360.867 1067.59 358.812 1068.63 357C1069.68 355.172 1071.1 353.734 1072.9 352.688C1074.7 351.625 1076.73 351.094 1078.99 351.094C1081.2 351.094 1083.16 351.602 1084.88 352.617C1086.61 353.633 1087.97 355.031 1088.95 356.812C1089.94 358.578 1090.43 360.594 1090.43 362.859V364.242H1070.25C1070.44 365.961 1071 367.453 1071.94 368.719C1072.89 369.984 1074.08 370.961 1075.5 371.648C1076.92 372.32 1078.44 372.656 1080.05 372.656C1082.91 372.656 1085.44 371.648 1087.64 369.633L1089.4 371.977C1086.54 374.305 1083.35 375.469 1079.84 375.469ZM1070.27 361.664H1087.24C1086.9 359.336 1085.97 357.469 1084.45 356.062C1082.94 354.656 1081.07 353.953 1078.85 353.953C1076.59 353.953 1074.66 354.672 1073.09 356.109C1071.52 357.547 1070.59 359.398 1070.27 361.664ZM1107.33 372.234L1108.95 369.422C1110.05 370.484 1111.36 371.312 1112.86 371.906C1114.36 372.484 1115.92 372.773 1117.55 372.773C1119.23 372.773 1120.73 372.477 1122.05 371.883C1123.36 371.289 1124.38 370.477 1125.12 369.445C1125.87 368.398 1126.24 367.211 1126.24 365.883C1126.24 364.633 1125.92 363.562 1125.28 362.672C1124.66 361.766 1123.81 360.977 1122.75 360.305C1121.7 359.633 1120.55 359.008 1119.3 358.43C1118.05 357.852 1116.8 357.258 1115.55 356.648C1114.3 356.039 1113.15 355.352 1112.09 354.586C1111.04 353.805 1110.2 352.883 1109.55 351.82C1108.93 350.758 1108.62 349.484 1108.62 348C1108.62 346.266 1109.07 344.734 1109.98 343.406C1110.9 342.062 1112.16 341.016 1113.77 340.266C1115.4 339.516 1117.27 339.141 1119.4 339.141C1122.12 339.141 1124.87 339.766 1127.65 341.016L1126.36 343.711C1124.31 342.617 1122.13 342.07 1119.82 342.07C1117.46 342.07 1115.53 342.617 1114.03 343.711C1112.53 344.789 1111.78 346.188 1111.78 347.906C1111.78 349.047 1112.09 350.031 1112.72 350.859C1113.36 351.688 1114.2 352.43 1115.25 353.086C1116.31 353.742 1117.47 354.367 1118.72 354.961C1119.97 355.555 1121.22 356.18 1122.47 356.836C1123.72 357.477 1124.87 358.203 1125.91 359.016C1126.98 359.828 1127.82 360.789 1128.45 361.898C1129.09 363.008 1129.41 364.32 1129.41 365.836C1129.41 367.727 1128.89 369.422 1127.86 370.922C1126.83 372.406 1125.41 373.578 1123.62 374.438C1121.84 375.281 1119.8 375.703 1117.5 375.703C1113.73 375.703 1110.34 374.547 1107.33 372.234ZM1136.91 339.844H1139.95V363.609C1140.19 363.281 1140.43 362.953 1140.68 362.625C1140.93 362.281 1141.22 361.914 1141.55 361.523L1150.29 351.562H1153.8L1144.66 362.109L1155.35 375H1151.55L1142.65 364.43L1139.95 367.523V375H1136.91V339.844ZM1171.66 375.469C1169.24 375.469 1167.06 374.93 1165.12 373.852C1163.2 372.773 1161.68 371.305 1160.55 369.445C1159.45 367.586 1158.89 365.492 1158.89 363.164C1158.89 360.867 1159.41 358.812 1160.46 357C1161.51 355.172 1162.93 353.734 1164.73 352.688C1166.52 351.625 1168.55 351.094 1170.82 351.094C1173.02 351.094 1174.98 351.602 1176.7 352.617C1178.44 353.633 1179.8 355.031 1180.78 356.812C1181.77 358.578 1182.26 360.594 1182.26 362.859V364.242H1162.08C1162.27 365.961 1162.83 367.453 1163.77 368.719C1164.72 369.984 1165.91 370.961 1167.33 371.648C1168.75 372.32 1170.27 372.656 1171.88 372.656C1174.73 372.656 1177.27 371.648 1179.47 369.633L1181.23 371.977C1178.37 374.305 1175.18 375.469 1171.66 375.469ZM1162.1 361.664H1179.07C1178.73 359.336 1177.8 357.469 1176.28 356.062C1174.77 354.656 1172.9 353.953 1170.68 353.953C1168.41 353.953 1166.49 354.672 1164.91 356.109C1163.35 357.547 1162.41 359.398 1162.1 361.664ZM1191.23 354.375H1187.2V351.562H1191.23V345.703H1194.28V351.562H1200.94V354.375H1194.28V367.828C1194.28 369.547 1194.65 370.805 1195.38 371.602C1196.13 372.398 1197.28 372.797 1198.83 372.797C1199.16 372.797 1199.5 372.781 1199.86 372.75C1200.22 372.703 1200.58 372.625 1200.94 372.516V374.977C1200.55 375.133 1200.1 375.258 1199.6 375.352C1199.12 375.445 1198.56 375.492 1197.94 375.492C1195.77 375.492 1194.1 374.859 1192.95 373.594C1191.8 372.328 1191.23 370.516 1191.23 368.156V354.375ZM1224.52 370.148L1226.62 372.305C1224.47 374.414 1221.77 375.469 1218.54 375.469C1216.23 375.469 1214.15 374.938 1212.3 373.875C1210.46 372.797 1209 371.344 1207.92 369.516C1206.86 367.672 1206.33 365.594 1206.33 363.281C1206.33 360.969 1206.86 358.898 1207.92 357.07C1209 355.227 1210.46 353.773 1212.3 352.711C1214.15 351.633 1216.23 351.094 1218.54 351.094C1221.74 351.094 1224.44 352.141 1226.62 354.234L1224.52 356.414C1222.94 354.742 1220.94 353.906 1218.52 353.906C1216.81 353.906 1215.28 354.32 1213.92 355.148C1212.58 355.961 1211.51 357.078 1210.71 358.5C1209.91 359.906 1209.52 361.5 1209.52 363.281C1209.52 365.047 1209.91 366.641 1210.71 368.062C1211.51 369.469 1212.58 370.586 1213.92 371.414C1215.28 372.242 1216.81 372.656 1218.52 372.656C1220.94 372.656 1222.94 371.82 1224.52 370.148ZM1233.19 375V339.844H1236.23V355.266C1237.16 353.969 1238.31 352.953 1239.7 352.219C1241.09 351.469 1242.62 351.094 1244.3 351.094C1246.16 351.094 1247.79 351.555 1249.2 352.477C1250.6 353.398 1251.7 354.688 1252.48 356.344C1253.27 357.984 1253.67 359.898 1253.67 362.086V375H1250.62V362.227C1250.62 359.664 1250.01 357.641 1248.77 356.156C1247.54 354.656 1245.87 353.906 1243.76 353.906C1242.35 353.906 1241.09 354.234 1239.96 354.891C1238.85 355.547 1237.97 356.453 1237.31 357.609C1236.66 358.75 1236.3 360.07 1236.23 361.57V375H1233.19ZM1259.95 341.672C1259.95 340.984 1260.16 340.43 1260.59 340.008C1261.02 339.586 1261.58 339.375 1262.25 339.375C1262.94 339.375 1263.49 339.586 1263.91 340.008C1264.34 340.43 1264.55 340.984 1264.55 341.672C1264.55 342.359 1264.34 342.914 1263.91 343.336C1263.49 343.758 1262.94 343.969 1262.25 343.969C1261.58 343.969 1261.02 343.758 1260.59 343.336C1260.16 342.914 1259.95 342.359 1259.95 341.672ZM1260.73 375V351.562H1263.77V375H1260.73ZM1272.23 375V351.562H1274.91L1275.16 355.453C1276.09 354.109 1277.25 353.047 1278.66 352.266C1280.08 351.484 1281.64 351.094 1283.34 351.094C1285.2 351.094 1286.84 351.555 1288.24 352.477C1289.65 353.398 1290.74 354.688 1291.52 356.344C1292.32 357.984 1292.72 359.898 1292.72 362.086V375H1289.67V362.227C1289.67 359.664 1289.05 357.641 1287.82 356.156C1286.59 354.656 1284.91 353.906 1282.8 353.906C1281.4 353.906 1280.13 354.234 1279.01 354.891C1277.9 355.547 1277.02 356.453 1276.36 357.609C1275.7 358.75 1275.34 360.07 1275.28 361.57V375H1272.23ZM1310.25 375.516C1308.06 375.516 1306.1 374.992 1304.37 373.945C1302.65 372.883 1301.29 371.43 1300.29 369.586C1299.3 367.742 1298.81 365.648 1298.81 363.305C1298.81 360.961 1299.3 358.867 1300.29 357.023C1301.29 355.18 1302.65 353.734 1304.37 352.688C1306.1 351.625 1308.06 351.094 1310.25 351.094C1312.16 351.094 1313.89 351.5 1315.45 352.312C1317.02 353.125 1318.3 354.227 1319.32 355.617L1319.58 351.562H1322.25V373.242C1322.25 377.805 1321.12 381.344 1318.88 383.859C1316.62 386.391 1313.45 387.656 1309.36 387.656C1306.03 387.656 1303.23 386.805 1300.97 385.102L1302.45 382.547C1304.29 384.078 1306.58 384.844 1309.31 384.844C1312.44 384.844 1314.87 383.828 1316.6 381.797C1318.34 379.766 1319.2 376.922 1319.2 373.266V371.133C1318.17 372.492 1316.88 373.562 1315.34 374.344C1313.8 375.125 1312.11 375.516 1310.25 375.516ZM1310.6 353.906C1308.95 353.906 1307.47 354.312 1306.17 355.125C1304.88 355.938 1303.85 357.055 1303.1 358.477C1302.37 359.883 1302 361.492 1302 363.305C1302 365.102 1302.37 366.711 1303.1 368.133C1303.85 369.555 1304.88 370.672 1306.17 371.484C1307.47 372.297 1308.95 372.703 1310.6 372.703C1312.26 372.703 1313.73 372.297 1315.03 371.484C1316.33 370.672 1317.34 369.555 1318.08 368.133C1318.83 366.711 1319.2 365.102 1319.2 363.305C1319.2 361.492 1318.83 359.883 1318.08 358.477C1317.34 357.055 1316.33 355.938 1315.03 355.125C1313.73 354.312 1312.26 353.906 1310.6 353.906Z" fill="#303030"/>
<path d="M821.777 102.266V155H815.625V102.266H821.777ZM848.355 119.141C850.934 119.141 853.324 119.609 855.527 120.547C857.73 121.484 859.617 122.785 861.188 124.449V102.266H866.988V155H861.75L861.434 150.113C859.863 151.848 857.953 153.219 855.703 154.227C853.453 155.211 851.004 155.703 848.355 155.703C844.957 155.703 841.91 154.918 839.215 153.348C836.543 151.754 834.434 149.586 832.887 146.844C831.363 144.078 830.602 140.938 830.602 137.422C830.602 133.906 831.363 130.777 832.887 128.035C834.434 125.27 836.543 123.102 839.215 121.531C841.91 119.938 844.957 119.141 848.355 119.141ZM836.578 137.422C836.578 139.906 837.105 142.133 838.16 144.102C839.238 146.07 840.703 147.617 842.555 148.742C844.406 149.867 846.516 150.43 848.883 150.43C851.25 150.43 853.359 149.867 855.211 148.742C857.062 147.617 858.516 146.07 859.57 144.102C860.648 142.133 861.188 139.906 861.188 137.422C861.188 134.914 860.648 132.688 859.57 130.742C858.516 128.773 857.062 127.227 855.211 126.102C853.359 124.977 851.25 124.414 848.883 124.414C846.516 124.414 844.406 124.977 842.555 126.102C840.703 127.227 839.238 128.773 838.16 130.742C837.105 132.688 836.578 134.914 836.578 137.422ZM911.742 137.387V139.742H881.93C882.516 142.859 884.016 145.426 886.43 147.441C888.867 149.434 891.797 150.43 895.219 150.43C897.117 150.43 899.121 150.066 901.23 149.34C903.34 148.59 905.262 147.395 906.996 145.754L910.406 150.113C907.852 152.246 905.297 153.711 902.742 154.508C900.211 155.305 897.762 155.703 895.395 155.703C891.598 155.703 888.223 154.918 885.27 153.348C882.316 151.754 879.996 149.562 878.309 146.773C876.645 143.984 875.812 140.809 875.812 137.246C875.812 133.777 876.598 130.684 878.168 127.965C879.738 125.223 881.895 123.066 884.637 121.496C887.379 119.926 890.484 119.141 893.953 119.141C897.422 119.141 900.492 119.926 903.164 121.496C905.836 123.066 907.934 125.223 909.457 127.965C910.98 130.707 911.742 133.848 911.742 137.387ZM881.859 134.82H905.695C905.18 131.75 903.855 129.254 901.723 127.332C899.59 125.387 896.988 124.414 893.918 124.414C890.801 124.414 888.141 125.398 885.938 127.367C883.734 129.312 882.375 131.797 881.859 134.82ZM919.406 144.523C919.406 141.008 920.766 138.219 923.484 136.156C926.227 134.07 929.918 133.027 934.559 133.027C937.699 133.027 940.781 133.508 943.805 134.469V134.047C943.805 131.047 942.938 128.691 941.203 126.98C939.492 125.27 937.137 124.414 934.137 124.414C931.113 124.414 927.832 125.422 924.293 127.438L922.184 122.586C924.551 121.344 926.695 120.465 928.617 119.949C930.539 119.41 932.602 119.141 934.805 119.141C939.305 119.141 942.891 120.512 945.562 123.254C948.258 125.996 949.605 129.664 949.605 134.258V155H944.367L944.051 149.797C942.879 151.648 941.285 153.102 939.27 154.156C937.254 155.188 934.922 155.703 932.273 155.703C928.453 155.703 925.348 154.672 922.957 152.609C920.59 150.547 919.406 147.852 919.406 144.523ZM935.086 138.301C932.039 138.301 929.66 138.852 927.949 139.953C926.238 141.031 925.383 142.555 925.383 144.523C925.383 146.305 926.062 147.734 927.422 148.812C928.805 149.891 930.633 150.43 932.906 150.43C934.969 150.43 936.82 149.996 938.461 149.129C940.102 148.262 941.402 147.09 942.363 145.613C943.324 144.137 943.805 142.484 943.805 140.656V139.707C940.945 138.77 938.039 138.301 935.086 138.301ZM962.824 119.844V111.055H968.625V119.844H978.188V125.117H968.625V143.961C968.625 148.273 970.57 150.43 974.461 150.43C975.07 150.43 975.691 150.383 976.324 150.289C976.98 150.172 977.602 149.973 978.188 149.691V154.754C977.578 155.012 976.852 155.234 976.008 155.422C975.188 155.609 974.227 155.703 973.125 155.703C969.797 155.703 967.242 154.73 965.461 152.785C963.703 150.84 962.824 148.062 962.824 144.453V125.117H957.023V119.844H962.824ZM985.852 106.309C985.852 105.137 986.227 104.176 986.977 103.426C987.75 102.652 988.711 102.266 989.859 102.266C991.031 102.266 992.004 102.652 992.777 103.426C993.551 104.176 993.938 105.137 993.938 106.309C993.938 107.457 993.551 108.418 992.777 109.191C992.004 109.965 991.031 110.352 989.859 110.352C988.711 110.352 987.75 109.965 986.977 109.191C986.227 108.418 985.852 107.457 985.852 106.309ZM986.977 155V119.844H992.812V155H986.977ZM1001.6 137.422C1001.6 133.906 1002.39 130.777 1003.96 128.035C1005.55 125.27 1007.72 123.102 1010.46 121.531C1013.23 119.938 1016.37 119.141 1019.88 119.141C1023.4 119.141 1026.53 119.938 1029.27 121.531C1032.04 123.102 1034.2 125.27 1035.77 128.035C1037.37 130.777 1038.16 133.906 1038.16 137.422C1038.16 140.938 1037.37 144.078 1035.77 146.844C1034.2 149.586 1032.04 151.754 1029.27 153.348C1026.53 154.918 1023.4 155.703 1019.88 155.703C1016.37 155.703 1013.23 154.918 1010.46 153.348C1007.72 151.754 1005.55 149.586 1003.96 146.844C1002.39 144.078 1001.6 140.938 1001.6 137.422ZM1007.58 137.422C1007.58 139.906 1008.11 142.133 1009.16 144.102C1010.24 146.07 1011.7 147.617 1013.55 148.742C1015.41 149.867 1017.52 150.43 1019.88 150.43C1022.25 150.43 1024.36 149.867 1026.21 148.742C1028.06 147.617 1029.52 146.07 1030.57 144.102C1031.65 142.133 1032.19 139.906 1032.19 137.422C1032.19 134.914 1031.65 132.688 1030.57 130.742C1029.52 128.773 1028.06 127.227 1026.21 126.102C1024.36 124.977 1022.25 124.414 1019.88 124.414C1017.52 124.414 1015.41 124.977 1013.55 126.102C1011.7 127.227 1010.24 128.773 1009.16 130.742C1008.11 132.688 1007.58 134.914 1007.58 137.422ZM1046.95 155V119.844H1052.19L1052.51 125.188C1053.89 123.289 1055.59 121.812 1057.61 120.758C1059.62 119.68 1061.87 119.141 1064.36 119.141C1067.19 119.141 1069.7 119.832 1071.88 121.215C1074.08 122.574 1075.8 124.461 1077.05 126.875C1078.31 129.289 1078.95 132.055 1078.95 135.172V155H1073.14V135.875C1073.14 132.453 1072.22 129.688 1070.37 127.578C1068.54 125.469 1066.15 124.414 1063.2 124.414C1061.2 124.414 1059.42 124.906 1057.85 125.891C1056.28 126.852 1055.04 128.164 1054.12 129.828C1053.21 131.492 1052.75 133.391 1052.75 135.523V155H1046.95Z" fill="#303030"/>
<path d="M1566.56 155H1535.62V102.266H1541.78V149.375H1566.56V155ZM1571.13 137.422C1571.13 133.906 1571.92 130.777 1573.49 128.035C1575.08 125.27 1577.25 123.102 1579.99 121.531C1582.76 119.938 1585.9 119.141 1589.41 119.141C1592.93 119.141 1596.06 119.938 1598.8 121.531C1601.57 123.102 1603.73 125.27 1605.3 128.035C1606.9 130.777 1607.7 133.906 1607.7 137.422C1607.7 140.938 1606.9 144.078 1605.3 146.844C1603.73 149.586 1601.57 151.754 1598.8 153.348C1596.06 154.918 1592.93 155.703 1589.41 155.703C1585.9 155.703 1582.76 154.918 1579.99 153.348C1577.25 151.754 1575.08 149.586 1573.49 146.844C1571.92 144.078 1571.13 140.938 1571.13 137.422ZM1577.11 137.422C1577.11 139.906 1577.64 142.133 1578.69 144.102C1579.77 146.07 1581.23 147.617 1583.09 148.742C1584.94 149.867 1587.05 150.43 1589.41 150.43C1591.78 150.43 1593.89 149.867 1595.74 148.742C1597.59 147.617 1599.05 146.07 1600.1 144.102C1601.18 142.133 1601.72 139.906 1601.72 137.422C1601.72 134.914 1601.18 132.688 1600.1 130.742C1599.05 128.773 1597.59 127.227 1595.74 126.102C1593.89 124.977 1591.78 124.414 1589.41 124.414C1587.05 124.414 1584.94 124.977 1583.09 126.102C1581.23 127.227 1579.77 128.773 1578.69 130.742C1577.64 132.688 1577.11 134.914 1577.11 137.422ZM1612.97 119.844H1619.09L1627.84 145.965L1636.59 119.844H1642.78L1651.64 146.246L1660.46 119.844H1666.41L1654.63 155H1648.69L1648.76 154.789L1639.69 127.719L1630.72 154.543L1630.86 155H1624.75L1612.97 119.844ZM1673.79 139.531V134.961H1701.91V139.531H1673.79ZM1713.16 102.266H1743.4V107.891H1719.32V125.434H1742.06V131.059H1719.32V155H1713.16V102.266ZM1750.36 106.309C1750.36 105.137 1750.73 104.176 1751.48 103.426C1752.26 102.652 1753.22 102.266 1754.37 102.266C1755.54 102.266 1756.51 102.652 1757.29 103.426C1758.06 104.176 1758.45 105.137 1758.45 106.309C1758.45 107.457 1758.06 108.418 1757.29 109.191C1756.51 109.965 1755.54 110.352 1754.37 110.352C1753.22 110.352 1752.26 109.965 1751.48 109.191C1750.73 108.418 1750.36 107.457 1750.36 106.309ZM1751.48 155V119.844H1757.32V155H1751.48ZM1783.86 119.141C1786.44 119.141 1788.83 119.609 1791.04 120.547C1793.24 121.484 1795.12 122.785 1796.7 124.449V102.266H1802.5V155H1797.26L1796.94 150.113C1795.37 151.848 1793.46 153.219 1791.21 154.227C1788.96 155.211 1786.51 155.703 1783.86 155.703C1780.46 155.703 1777.42 154.918 1774.72 153.348C1772.05 151.754 1769.94 149.586 1768.39 146.844C1766.87 144.078 1766.11 140.938 1766.11 137.422C1766.11 133.906 1766.87 130.777 1768.39 128.035C1769.94 125.27 1772.05 123.102 1774.72 121.531C1777.42 119.938 1780.46 119.141 1783.86 119.141ZM1772.09 137.422C1772.09 139.906 1772.61 142.133 1773.67 144.102C1774.75 146.07 1776.21 147.617 1778.06 148.742C1779.91 149.867 1782.02 150.43 1784.39 150.43C1786.76 150.43 1788.87 149.867 1790.72 148.742C1792.57 147.617 1794.02 146.07 1795.08 144.102C1796.16 142.133 1796.7 139.906 1796.7 137.422C1796.7 134.914 1796.16 132.688 1795.08 130.742C1794.02 128.773 1792.57 127.227 1790.72 126.102C1788.87 124.977 1786.76 124.414 1784.39 124.414C1782.02 124.414 1779.91 124.977 1778.06 126.102C1776.21 127.227 1774.75 128.773 1773.67 130.742C1772.61 132.688 1772.09 134.914 1772.09 137.422ZM1847.25 137.387V139.742H1817.44C1818.02 142.859 1819.52 145.426 1821.94 147.441C1824.38 149.434 1827.3 150.43 1830.73 150.43C1832.62 150.43 1834.63 150.066 1836.74 149.34C1838.85 148.59 1840.77 147.395 1842.5 145.754L1845.91 150.113C1843.36 152.246 1840.8 153.711 1838.25 154.508C1835.72 155.305 1833.27 155.703 1830.9 155.703C1827.11 155.703 1823.73 154.918 1820.78 153.348C1817.82 151.754 1815.5 149.562 1813.82 146.773C1812.15 143.984 1811.32 140.809 1811.32 137.246C1811.32 133.777 1812.11 130.684 1813.68 127.965C1815.25 125.223 1817.4 123.066 1820.14 121.496C1822.89 119.926 1825.99 119.141 1829.46 119.141C1832.93 119.141 1836 119.926 1838.67 121.496C1841.34 123.066 1843.44 125.223 1844.96 127.965C1846.49 130.707 1847.25 133.848 1847.25 137.387ZM1817.37 134.82H1841.2C1840.69 131.75 1839.36 129.254 1837.23 127.332C1835.1 125.387 1832.5 124.414 1829.43 124.414C1826.31 124.414 1823.65 125.398 1821.45 127.367C1819.24 129.312 1817.88 131.797 1817.37 134.82ZM1862.02 100.859V155H1856.04V100.859H1862.02ZM1872.14 106.309C1872.14 105.137 1872.52 104.176 1873.27 103.426C1874.04 102.652 1875 102.266 1876.15 102.266C1877.32 102.266 1878.29 102.652 1879.07 103.426C1879.84 104.176 1880.23 105.137 1880.23 106.309C1880.23 107.457 1879.84 108.418 1879.07 109.191C1878.29 109.965 1877.32 110.352 1876.15 110.352C1875 110.352 1874.04 109.965 1873.27 109.191C1872.52 108.418 1872.14 107.457 1872.14 106.309ZM1873.27 155V119.844H1879.1V155H1873.27ZM1894.04 119.844V111.055H1899.84V119.844H1909.41V125.117H1899.84V143.961C1899.84 148.273 1901.79 150.43 1905.68 150.43C1906.29 150.43 1906.91 150.383 1907.54 150.289C1908.2 150.172 1908.82 149.973 1909.41 149.691V154.754C1908.8 155.012 1908.07 155.234 1907.23 155.422C1906.41 155.609 1905.45 155.703 1904.34 155.703C1901.02 155.703 1898.46 154.73 1896.68 152.785C1894.92 150.84 1894.04 148.062 1894.04 144.453V125.117H1888.24V119.844H1894.04ZM1915.73 119.844H1922.03L1931.38 142.414C1931.78 143.375 1932.18 144.395 1932.57 145.473C1932.97 146.527 1933.31 147.535 1933.59 148.496H1933.73C1934.02 147.512 1934.34 146.527 1934.72 145.543C1935.09 144.535 1935.5 143.48 1935.95 142.379L1945.3 119.844H1951.38L1929.52 172.578H1923.4L1930.68 155L1915.73 119.844ZM1535.62 174.266H1553.73C1559.61 174.266 1564.1 175.719 1567.2 178.625C1570.29 181.508 1571.84 185.328 1571.84 190.086C1571.84 194.82 1570.29 198.641 1567.2 201.547C1564.1 204.453 1559.61 205.906 1553.73 205.906H1541.78V227H1535.62V174.266ZM1541.78 179.891V200.281H1553.73C1557.57 200.281 1560.49 199.344 1562.48 197.469C1564.5 195.594 1565.51 193.133 1565.51 190.086C1565.51 187.016 1564.5 184.555 1562.48 182.703C1560.49 180.828 1557.57 179.891 1553.73 179.891H1541.78ZM1579.57 227V191.844H1584.81L1585.16 197.363C1586.33 195.488 1587.84 193.988 1589.7 192.863C1591.55 191.715 1593.76 191.141 1596.34 191.141C1597.39 191.141 1598.5 191.246 1599.64 191.457L1598.8 196.836C1597.65 196.555 1596.57 196.414 1595.57 196.414C1592.33 196.414 1589.82 197.609 1588.04 200C1586.26 202.367 1585.37 205.309 1585.37 208.824V227H1579.57ZM1603.2 209.422C1603.2 205.906 1603.98 202.777 1605.55 200.035C1607.14 197.27 1609.31 195.102 1612.05 193.531C1614.82 191.938 1617.96 191.141 1621.48 191.141C1624.99 191.141 1628.12 191.938 1630.86 193.531C1633.63 195.102 1635.8 197.27 1637.37 200.035C1638.96 202.777 1639.76 205.906 1639.76 209.422C1639.76 212.938 1638.96 216.078 1637.37 218.844C1635.8 221.586 1633.63 223.754 1630.86 225.348C1628.12 226.918 1624.99 227.703 1621.48 227.703C1617.96 227.703 1614.82 226.918 1612.05 225.348C1609.31 223.754 1607.14 221.586 1605.55 218.844C1603.98 216.078 1603.2 212.938 1603.2 209.422ZM1609.17 209.422C1609.17 211.906 1609.7 214.133 1610.75 216.102C1611.83 218.07 1613.3 219.617 1615.15 220.742C1617 221.867 1619.11 222.43 1621.48 222.43C1623.84 222.43 1625.95 221.867 1627.8 220.742C1629.66 219.617 1631.11 218.07 1632.16 216.102C1633.24 214.133 1633.78 211.906 1633.78 209.422C1633.78 206.914 1633.24 204.688 1632.16 202.742C1631.11 200.773 1629.66 199.227 1627.8 198.102C1625.95 196.977 1623.84 196.414 1621.48 196.414C1619.11 196.414 1617 196.977 1615.15 198.102C1613.3 199.227 1611.83 200.773 1610.75 202.742C1609.7 204.688 1609.17 206.914 1609.17 209.422ZM1651.89 191.844V183.055H1657.69V191.844H1667.25V197.117H1657.69V215.961C1657.69 220.273 1659.63 222.43 1663.52 222.43C1664.13 222.43 1664.75 222.383 1665.39 222.289C1666.04 222.172 1666.66 221.973 1667.25 221.691V226.754C1666.64 227.012 1665.91 227.234 1665.07 227.422C1664.25 227.609 1663.29 227.703 1662.19 227.703C1658.86 227.703 1656.3 226.73 1654.52 224.785C1652.77 222.84 1651.89 220.062 1651.89 216.453V197.117H1646.09V191.844H1651.89ZM1674.63 209.422C1674.63 205.906 1675.42 202.777 1676.99 200.035C1678.58 197.27 1680.75 195.102 1683.49 193.531C1686.26 191.938 1689.4 191.141 1692.91 191.141C1696.43 191.141 1699.56 191.938 1702.3 193.531C1705.07 195.102 1707.23 197.27 1708.8 200.035C1710.4 202.777 1711.2 205.906 1711.2 209.422C1711.2 212.938 1710.4 216.078 1708.8 218.844C1707.23 221.586 1705.07 223.754 1702.3 225.348C1699.56 226.918 1696.43 227.703 1692.91 227.703C1689.4 227.703 1686.26 226.918 1683.49 225.348C1680.75 223.754 1678.58 221.586 1676.99 218.844C1675.42 216.078 1674.63 212.938 1674.63 209.422ZM1680.61 209.422C1680.61 211.906 1681.14 214.133 1682.19 216.102C1683.27 218.07 1684.73 219.617 1686.59 220.742C1688.44 221.867 1690.55 222.43 1692.91 222.43C1695.28 222.43 1697.39 221.867 1699.24 220.742C1701.09 219.617 1702.55 218.07 1703.6 216.102C1704.68 214.133 1705.22 211.906 1705.22 209.422C1705.22 206.914 1704.68 204.688 1703.6 202.742C1702.55 200.773 1701.09 199.227 1699.24 198.102C1697.39 196.977 1695.28 196.414 1692.91 196.414C1690.55 196.414 1688.44 196.977 1686.59 198.102C1684.73 199.227 1683.27 200.773 1682.19 202.742C1681.14 204.688 1680.61 206.914 1680.61 209.422ZM1723.32 191.844V183.055H1729.12V191.844H1738.69V197.117H1729.12V215.961C1729.12 220.273 1731.07 222.43 1734.96 222.43C1735.57 222.43 1736.19 222.383 1736.82 222.289C1737.48 222.172 1738.1 221.973 1738.69 221.691V226.754C1738.08 227.012 1737.35 227.234 1736.51 227.422C1735.69 227.609 1734.73 227.703 1733.62 227.703C1730.3 227.703 1727.74 226.73 1725.96 224.785C1724.2 222.84 1723.32 220.062 1723.32 216.453V197.117H1717.52V191.844H1723.32ZM1745.02 191.844H1751.31L1760.66 214.414C1761.06 215.375 1761.46 216.395 1761.86 217.473C1762.25 218.527 1762.59 219.535 1762.88 220.496H1763.02C1763.3 219.512 1763.62 218.527 1764 217.543C1764.38 216.535 1764.79 215.48 1765.23 214.379L1774.58 191.844H1780.66L1758.8 244.578H1752.68L1759.96 227L1745.02 191.844ZM1792.58 191.844L1792.9 196.73C1794.49 194.996 1796.4 193.637 1798.63 192.652C1800.88 191.645 1803.33 191.141 1805.98 191.141C1809.4 191.141 1812.45 191.938 1815.12 193.531C1817.79 195.102 1819.89 197.27 1821.41 200.035C1822.96 202.777 1823.73 205.906 1823.73 209.422C1823.73 212.938 1822.96 216.078 1821.41 218.844C1819.89 221.586 1817.79 223.754 1815.12 225.348C1812.45 226.918 1809.4 227.703 1805.98 227.703C1803.4 227.703 1801.01 227.234 1798.8 226.297C1796.62 225.359 1794.74 224.059 1793.14 222.395V244.578H1787.34V191.844H1792.58ZM1805.45 222.43C1807.82 222.43 1809.93 221.867 1811.78 220.742C1813.63 219.617 1815.08 218.07 1816.14 216.102C1817.21 214.133 1817.75 211.906 1817.75 209.422C1817.75 206.914 1817.21 204.688 1816.14 202.742C1815.08 200.773 1813.63 199.227 1811.78 198.102C1809.93 196.977 1807.82 196.414 1805.45 196.414C1803.08 196.414 1800.97 196.977 1799.12 198.102C1797.27 199.227 1795.8 200.773 1794.73 202.742C1793.67 204.688 1793.14 206.914 1793.14 209.422C1793.14 211.906 1793.67 214.133 1794.73 216.102C1795.8 218.07 1797.27 219.617 1799.12 220.742C1800.97 221.867 1803.08 222.43 1805.45 222.43ZM1831.43 178.309C1831.43 177.137 1831.8 176.176 1832.55 175.426C1833.33 174.652 1834.29 174.266 1835.44 174.266C1836.61 174.266 1837.58 174.652 1838.36 175.426C1839.13 176.176 1839.52 177.137 1839.52 178.309C1839.52 179.457 1839.13 180.418 1838.36 181.191C1837.58 181.965 1836.61 182.352 1835.44 182.352C1834.29 182.352 1833.33 181.965 1832.55 181.191C1831.8 180.418 1831.43 179.457 1831.43 178.309ZM1832.55 227V191.844H1838.39V227H1832.55ZM1849.64 227V191.844H1854.88L1855.2 197.188C1856.58 195.289 1858.28 193.812 1860.29 192.758C1862.31 191.68 1864.56 191.141 1867.04 191.141C1869.88 191.141 1872.39 191.832 1874.57 193.215C1876.77 194.574 1878.49 196.461 1879.73 198.875C1881 201.289 1881.63 204.055 1881.63 207.172V227H1875.83V207.875C1875.83 204.453 1874.91 201.688 1873.05 199.578C1871.23 197.469 1868.84 196.414 1865.88 196.414C1863.89 196.414 1862.11 196.906 1860.54 197.891C1858.97 198.852 1857.73 200.164 1856.81 201.828C1855.9 203.492 1855.44 205.391 1855.44 207.523V227H1849.64ZM1907.47 227.703C1904.07 227.703 1901.03 226.918 1898.33 225.348C1895.66 223.754 1893.55 221.586 1892 218.844C1890.48 216.078 1889.72 212.938 1889.72 209.422C1889.72 205.906 1890.48 202.777 1892 200.035C1893.55 197.27 1895.66 195.102 1898.33 193.531C1901.03 191.938 1904.07 191.141 1907.47 191.141C1910.12 191.141 1912.57 191.645 1914.82 192.652C1917.07 193.637 1918.98 194.996 1920.55 196.73L1920.87 191.844H1926.11V223.555C1926.11 227.891 1925.32 231.688 1923.75 234.945C1922.18 238.203 1919.86 240.734 1916.79 242.539C1913.74 244.367 1909.98 245.281 1905.5 245.281C1903.04 245.281 1900.73 244.918 1898.58 244.191C1896.42 243.488 1894.48 242.492 1892.74 241.203L1895.62 236.352C1896.94 237.5 1898.44 238.391 1900.12 239.023C1901.81 239.68 1903.64 240.008 1905.61 240.008C1910.6 240.008 1914.29 238.566 1916.68 235.684C1919.1 232.824 1920.3 229.004 1920.3 224.223V222.395C1918.73 224.059 1916.85 225.359 1914.64 226.297C1912.44 227.234 1910.05 227.703 1907.47 227.703ZM1895.7 209.422C1895.7 211.906 1896.22 214.133 1897.28 216.102C1898.36 218.07 1899.82 219.617 1901.67 220.742C1903.52 221.867 1905.63 222.43 1908 222.43C1910.37 222.43 1912.48 221.867 1914.33 220.742C1916.18 219.617 1917.63 218.07 1918.69 216.102C1919.77 214.133 1920.3 211.906 1920.3 209.422C1920.3 206.914 1919.77 204.688 1918.69 202.742C1917.63 200.773 1916.18 199.227 1914.33 198.102C1912.48 196.977 1910.37 196.414 1908 196.414C1905.63 196.414 1903.52 196.977 1901.67 198.102C1899.82 199.227 1898.36 200.773 1897.28 202.742C1896.22 204.688 1895.7 206.914 1895.7 209.422Z" fill="#303030"/>
<path d="M2319.62 155V102.266H2325.78V126.172H2355.84V102.266H2361.99V155H2355.84V131.797H2325.78V155H2319.62ZM2372.15 106.309C2372.15 105.137 2372.52 104.176 2373.27 103.426C2374.05 102.652 2375.01 102.266 2376.16 102.266C2377.33 102.266 2378.3 102.652 2379.07 103.426C2379.85 104.176 2380.23 105.137 2380.23 106.309C2380.23 107.457 2379.85 108.418 2379.07 109.191C2378.3 109.965 2377.33 110.352 2376.16 110.352C2375.01 110.352 2374.05 109.965 2373.27 109.191C2372.52 108.418 2372.15 107.457 2372.15 106.309ZM2373.27 155V119.844H2379.11V155H2373.27ZM2405.65 155.703C2402.25 155.703 2399.21 154.918 2396.51 153.348C2393.84 151.754 2391.73 149.586 2390.18 146.844C2388.66 144.078 2387.9 140.938 2387.9 137.422C2387.9 133.906 2388.66 130.777 2390.18 128.035C2391.73 125.27 2393.84 123.102 2396.51 121.531C2399.21 119.938 2402.25 119.141 2405.65 119.141C2408.3 119.141 2410.75 119.645 2413 120.652C2415.25 121.637 2417.16 122.996 2418.73 124.73L2419.05 119.844H2424.29V151.555C2424.29 155.891 2423.5 159.688 2421.93 162.945C2420.36 166.203 2418.04 168.734 2414.97 170.539C2411.92 172.367 2408.16 173.281 2403.68 173.281C2401.22 173.281 2398.91 172.918 2396.76 172.191C2394.6 171.488 2392.66 170.492 2390.92 169.203L2393.8 164.352C2395.12 165.5 2396.62 166.391 2398.3 167.023C2399.99 167.68 2401.82 168.008 2403.79 168.008C2408.78 168.008 2412.47 166.566 2414.86 163.684C2417.28 160.824 2418.48 157.004 2418.48 152.223V150.395C2416.91 152.059 2415.03 153.359 2412.82 154.297C2410.62 155.234 2408.23 155.703 2405.65 155.703ZM2393.88 137.422C2393.88 139.906 2394.4 142.133 2395.46 144.102C2396.54 146.07 2398 147.617 2399.85 148.742C2401.7 149.867 2403.81 150.43 2406.18 150.43C2408.55 150.43 2410.66 149.867 2412.51 148.742C2414.36 147.617 2415.81 146.07 2416.87 144.102C2417.95 142.133 2418.48 139.906 2418.48 137.422C2418.48 134.914 2417.95 132.688 2416.87 130.742C2415.81 128.773 2414.36 127.227 2412.51 126.102C2410.66 124.977 2408.55 124.414 2406.18 124.414C2403.81 124.414 2401.7 124.977 2399.85 126.102C2398 127.227 2396.54 128.773 2395.46 130.742C2394.4 132.688 2393.88 134.914 2393.88 137.422ZM2435.57 155V102.266H2441.37V124.871C2442.73 123.066 2444.39 121.66 2446.36 120.652C2448.36 119.645 2450.56 119.141 2452.97 119.141C2455.81 119.141 2458.32 119.832 2460.5 121.215C2462.7 122.574 2464.42 124.461 2465.66 126.875C2466.93 129.289 2467.56 132.055 2467.56 135.172V155H2461.76V135.875C2461.76 132.453 2460.84 129.688 2458.98 127.578C2457.16 125.469 2454.77 124.414 2451.81 124.414C2449.82 124.414 2448.04 124.906 2446.47 125.891C2444.9 126.852 2443.66 128.164 2442.74 129.828C2441.83 131.492 2441.37 133.391 2441.37 135.523V155H2435.57ZM2478.11 139.531V134.961H2506.23V139.531H2478.11ZM2517.48 102.266H2547.72V107.891H2523.64V125.434H2546.38V131.059H2523.64V155H2517.48V102.266ZM2554.68 106.309C2554.68 105.137 2555.05 104.176 2555.8 103.426C2556.58 102.652 2557.54 102.266 2558.69 102.266C2559.86 102.266 2560.83 102.652 2561.61 103.426C2562.38 104.176 2562.77 105.137 2562.77 106.309C2562.77 107.457 2562.38 108.418 2561.61 109.191C2560.83 109.965 2559.86 110.352 2558.69 110.352C2557.54 110.352 2556.58 109.965 2555.8 109.191C2555.05 108.418 2554.68 107.457 2554.68 106.309ZM2555.8 155V119.844H2561.64V155H2555.8ZM2588.18 119.141C2590.76 119.141 2593.15 119.609 2595.36 120.547C2597.56 121.484 2599.45 122.785 2601.02 124.449V102.266H2606.82V155H2601.58L2601.26 150.113C2599.69 151.848 2597.78 153.219 2595.53 154.227C2593.28 155.211 2590.83 155.703 2588.18 155.703C2584.79 155.703 2581.74 154.918 2579.04 153.348C2576.37 151.754 2574.26 149.586 2572.71 146.844C2571.19 144.078 2570.43 140.938 2570.43 137.422C2570.43 133.906 2571.19 130.777 2572.71 128.035C2574.26 125.27 2576.37 123.102 2579.04 121.531C2581.74 119.938 2584.79 119.141 2588.18 119.141ZM2576.41 137.422C2576.41 139.906 2576.93 142.133 2577.99 144.102C2579.07 146.07 2580.53 147.617 2582.38 148.742C2584.23 149.867 2586.34 150.43 2588.71 150.43C2591.08 150.43 2593.19 149.867 2595.04 148.742C2596.89 147.617 2598.34 146.07 2599.4 144.102C2600.48 142.133 2601.02 139.906 2601.02 137.422C2601.02 134.914 2600.48 132.688 2599.4 130.742C2598.34 128.773 2596.89 127.227 2595.04 126.102C2593.19 124.977 2591.08 124.414 2588.71 124.414C2586.34 124.414 2584.23 124.977 2582.38 126.102C2580.53 127.227 2579.07 128.773 2577.99 130.742C2576.93 132.688 2576.41 134.914 2576.41 137.422ZM2651.57 137.387V139.742H2621.76C2622.34 142.859 2623.84 145.426 2626.26 147.441C2628.7 149.434 2631.62 150.43 2635.05 150.43C2636.95 150.43 2638.95 150.066 2641.06 149.34C2643.17 148.59 2645.09 147.395 2646.82 145.754L2650.23 150.113C2647.68 152.246 2645.12 153.711 2642.57 154.508C2640.04 155.305 2637.59 155.703 2635.22 155.703C2631.43 155.703 2628.05 154.918 2625.1 153.348C2622.14 151.754 2619.82 149.562 2618.14 146.773C2616.47 143.984 2615.64 140.809 2615.64 137.246C2615.64 133.777 2616.43 130.684 2618 127.965C2619.57 125.223 2621.72 123.066 2624.46 121.496C2627.21 119.926 2630.31 119.141 2633.78 119.141C2637.25 119.141 2640.32 119.926 2642.99 121.496C2645.66 123.066 2647.76 125.223 2649.29 127.965C2650.81 130.707 2651.57 133.848 2651.57 137.387ZM2621.69 134.82H2645.52C2645.01 131.75 2643.68 129.254 2641.55 127.332C2639.42 125.387 2636.82 124.414 2633.75 124.414C2630.63 124.414 2627.97 125.398 2625.77 127.367C2623.56 129.312 2622.2 131.797 2621.69 134.82ZM2666.34 100.859V155H2660.36V100.859H2666.34ZM2676.46 106.309C2676.46 105.137 2676.84 104.176 2677.59 103.426C2678.36 102.652 2679.32 102.266 2680.47 102.266C2681.64 102.266 2682.61 102.652 2683.39 103.426C2684.16 104.176 2684.55 105.137 2684.55 106.309C2684.55 107.457 2684.16 108.418 2683.39 109.191C2682.61 109.965 2681.64 110.352 2680.47 110.352C2679.32 110.352 2678.36 109.965 2677.59 109.191C2676.84 108.418 2676.46 107.457 2676.46 106.309ZM2677.59 155V119.844H2683.42V155H2677.59ZM2698.36 119.844V111.055H2704.16V119.844H2713.73V125.117H2704.16V143.961C2704.16 148.273 2706.11 150.43 2710 150.43C2710.61 150.43 2711.23 150.383 2711.86 150.289C2712.52 150.172 2713.14 149.973 2713.73 149.691V154.754C2713.12 155.012 2712.39 155.234 2711.55 155.422C2710.73 155.609 2709.77 155.703 2708.66 155.703C2705.34 155.703 2702.78 154.73 2701 152.785C2699.24 150.84 2698.36 148.062 2698.36 144.453V125.117H2692.56V119.844H2698.36ZM2720.05 119.844H2726.35L2735.7 142.414C2736.1 143.375 2736.5 144.395 2736.89 145.473C2737.29 146.527 2737.63 147.535 2737.91 148.496H2738.05C2738.34 147.512 2738.66 146.527 2739.04 145.543C2739.41 144.535 2739.82 143.48 2740.27 142.379L2749.62 119.844H2755.7L2733.84 172.578H2727.72L2735 155L2720.05 119.844ZM2319.62 174.266H2337.73C2343.61 174.266 2348.1 175.719 2351.2 178.625C2354.29 181.508 2355.84 185.328 2355.84 190.086C2355.84 194.82 2354.29 198.641 2351.2 201.547C2348.1 204.453 2343.61 205.906 2337.73 205.906H2325.78V227H2319.62V174.266ZM2325.78 179.891V200.281H2337.73C2341.57 200.281 2344.49 199.344 2346.48 197.469C2348.5 195.594 2349.51 193.133 2349.51 190.086C2349.51 187.016 2348.5 184.555 2346.48 182.703C2344.49 180.828 2341.57 179.891 2337.73 179.891H2325.78ZM2363.57 227V191.844H2368.81L2369.16 197.363C2370.33 195.488 2371.84 193.988 2373.7 192.863C2375.55 191.715 2377.76 191.141 2380.34 191.141C2381.39 191.141 2382.5 191.246 2383.64 191.457L2382.8 196.836C2381.65 196.555 2380.57 196.414 2379.57 196.414C2376.33 196.414 2373.82 197.609 2372.04 200C2370.26 202.367 2369.37 205.309 2369.37 208.824V227H2363.57ZM2387.2 209.422C2387.2 205.906 2387.98 202.777 2389.55 200.035C2391.14 197.27 2393.31 195.102 2396.05 193.531C2398.82 191.938 2401.96 191.141 2405.48 191.141C2408.99 191.141 2412.12 191.938 2414.86 193.531C2417.63 195.102 2419.8 197.27 2421.37 200.035C2422.96 202.777 2423.76 205.906 2423.76 209.422C2423.76 212.938 2422.96 216.078 2421.37 218.844C2419.8 221.586 2417.63 223.754 2414.86 225.348C2412.12 226.918 2408.99 227.703 2405.48 227.703C2401.96 227.703 2398.82 226.918 2396.05 225.348C2393.31 223.754 2391.14 221.586 2389.55 218.844C2387.98 216.078 2387.2 212.938 2387.2 209.422ZM2393.17 209.422C2393.17 211.906 2393.7 214.133 2394.75 216.102C2395.83 218.07 2397.3 219.617 2399.15 220.742C2401 221.867 2403.11 222.43 2405.48 222.43C2407.84 222.43 2409.95 221.867 2411.8 220.742C2413.66 219.617 2415.11 218.07 2416.16 216.102C2417.24 214.133 2417.78 211.906 2417.78 209.422C2417.78 206.914 2417.24 204.688 2416.16 202.742C2415.11 200.773 2413.66 199.227 2411.8 198.102C2409.95 196.977 2407.84 196.414 2405.48 196.414C2403.11 196.414 2401 196.977 2399.15 198.102C2397.3 199.227 2395.83 200.773 2394.75 202.742C2393.7 204.688 2393.17 206.914 2393.17 209.422ZM2435.89 191.844V183.055H2441.69V191.844H2451.25V197.117H2441.69V215.961C2441.69 220.273 2443.63 222.43 2447.52 222.43C2448.13 222.43 2448.75 222.383 2449.39 222.289C2450.04 222.172 2450.66 221.973 2451.25 221.691V226.754C2450.64 227.012 2449.91 227.234 2449.07 227.422C2448.25 227.609 2447.29 227.703 2446.19 227.703C2442.86 227.703 2440.3 226.73 2438.52 224.785C2436.77 222.84 2435.89 220.062 2435.89 216.453V197.117H2430.09V191.844H2435.89ZM2458.63 209.422C2458.63 205.906 2459.42 202.777 2460.99 200.035C2462.58 197.27 2464.75 195.102 2467.49 193.531C2470.26 191.938 2473.4 191.141 2476.91 191.141C2480.43 191.141 2483.56 191.938 2486.3 193.531C2489.07 195.102 2491.23 197.27 2492.8 200.035C2494.4 202.777 2495.2 205.906 2495.2 209.422C2495.2 212.938 2494.4 216.078 2492.8 218.844C2491.23 221.586 2489.07 223.754 2486.3 225.348C2483.56 226.918 2480.43 227.703 2476.91 227.703C2473.4 227.703 2470.26 226.918 2467.49 225.348C2464.75 223.754 2462.58 221.586 2460.99 218.844C2459.42 216.078 2458.63 212.938 2458.63 209.422ZM2464.61 209.422C2464.61 211.906 2465.14 214.133 2466.19 216.102C2467.27 218.07 2468.73 219.617 2470.59 220.742C2472.44 221.867 2474.55 222.43 2476.91 222.43C2479.28 222.43 2481.39 221.867 2483.24 220.742C2485.09 219.617 2486.55 218.07 2487.6 216.102C2488.68 214.133 2489.22 211.906 2489.22 209.422C2489.22 206.914 2488.68 204.688 2487.6 202.742C2486.55 200.773 2485.09 199.227 2483.24 198.102C2481.39 196.977 2479.28 196.414 2476.91 196.414C2474.55 196.414 2472.44 196.977 2470.59 198.102C2468.73 199.227 2467.27 200.773 2466.19 202.742C2465.14 204.688 2464.61 206.914 2464.61 209.422ZM2507.32 191.844V183.055H2513.12V191.844H2522.69V197.117H2513.12V215.961C2513.12 220.273 2515.07 222.43 2518.96 222.43C2519.57 222.43 2520.19 222.383 2520.82 222.289C2521.48 222.172 2522.1 221.973 2522.69 221.691V226.754C2522.08 227.012 2521.35 227.234 2520.51 227.422C2519.69 227.609 2518.73 227.703 2517.62 227.703C2514.3 227.703 2511.74 226.73 2509.96 224.785C2508.2 222.84 2507.32 220.062 2507.32 216.453V197.117H2501.52V191.844H2507.32ZM2529.02 191.844H2535.31L2544.66 214.414C2545.06 215.375 2545.46 216.395 2545.86 217.473C2546.25 218.527 2546.59 219.535 2546.88 220.496H2547.02C2547.3 219.512 2547.62 218.527 2548 217.543C2548.38 216.535 2548.79 215.48 2549.23 214.379L2558.58 191.844H2564.66L2542.8 244.578H2536.68L2543.96 227L2529.02 191.844ZM2576.58 191.844L2576.9 196.73C2578.49 194.996 2580.4 193.637 2582.63 192.652C2584.88 191.645 2587.33 191.141 2589.98 191.141C2593.4 191.141 2596.45 191.938 2599.12 193.531C2601.79 195.102 2603.89 197.27 2605.41 200.035C2606.96 202.777 2607.73 205.906 2607.73 209.422C2607.73 212.938 2606.96 216.078 2605.41 218.844C2603.89 221.586 2601.79 223.754 2599.12 225.348C2596.45 226.918 2593.4 227.703 2589.98 227.703C2587.4 227.703 2585.01 227.234 2582.8 226.297C2580.62 225.359 2578.74 224.059 2577.14 222.395V244.578H2571.34V191.844H2576.58ZM2589.45 222.43C2591.82 222.43 2593.93 221.867 2595.78 220.742C2597.63 219.617 2599.08 218.07 2600.14 216.102C2601.21 214.133 2601.75 211.906 2601.75 209.422C2601.75 206.914 2601.21 204.688 2600.14 202.742C2599.08 200.773 2597.63 199.227 2595.78 198.102C2593.93 196.977 2591.82 196.414 2589.45 196.414C2587.08 196.414 2584.97 196.977 2583.12 198.102C2581.27 199.227 2579.8 200.773 2578.73 202.742C2577.67 204.688 2577.14 206.914 2577.14 209.422C2577.14 211.906 2577.67 214.133 2578.73 216.102C2579.8 218.07 2581.27 219.617 2583.12 220.742C2584.97 221.867 2587.08 222.43 2589.45 222.43ZM2615.43 178.309C2615.43 177.137 2615.8 176.176 2616.55 175.426C2617.33 174.652 2618.29 174.266 2619.44 174.266C2620.61 174.266 2621.58 174.652 2622.36 175.426C2623.13 176.176 2623.52 177.137 2623.52 178.309C2623.52 179.457 2623.13 180.418 2622.36 181.191C2621.58 181.965 2620.61 182.352 2619.44 182.352C2618.29 182.352 2617.33 181.965 2616.55 181.191C2615.8 180.418 2615.43 179.457 2615.43 178.309ZM2616.55 227V191.844H2622.39V227H2616.55ZM2633.64 227V191.844H2638.88L2639.2 197.188C2640.58 195.289 2642.28 193.812 2644.29 192.758C2646.31 191.68 2648.56 191.141 2651.04 191.141C2653.88 191.141 2656.39 191.832 2658.57 193.215C2660.77 194.574 2662.49 196.461 2663.73 198.875C2665 201.289 2665.63 204.055 2665.63 207.172V227H2659.83V207.875C2659.83 204.453 2658.91 201.688 2657.05 199.578C2655.23 197.469 2652.84 196.414 2649.88 196.414C2647.89 196.414 2646.11 196.906 2644.54 197.891C2642.97 198.852 2641.73 200.164 2640.81 201.828C2639.9 203.492 2639.44 205.391 2639.44 207.523V227H2633.64ZM2691.47 227.703C2688.07 227.703 2685.03 226.918 2682.33 225.348C2679.66 223.754 2677.55 221.586 2676 218.844C2674.48 216.078 2673.72 212.938 2673.72 209.422C2673.72 205.906 2674.48 202.777 2676 200.035C2677.55 197.27 2679.66 195.102 2682.33 193.531C2685.03 191.938 2688.07 191.141 2691.47 191.141C2694.12 191.141 2696.57 191.645 2698.82 192.652C2701.07 193.637 2702.98 194.996 2704.55 196.73L2704.87 191.844H2710.11V223.555C2710.11 227.891 2709.32 231.688 2707.75 234.945C2706.18 238.203 2703.86 240.734 2700.79 242.539C2697.74 244.367 2693.98 245.281 2689.5 245.281C2687.04 245.281 2684.73 244.918 2682.58 244.191C2680.42 243.488 2678.48 242.492 2676.74 241.203L2679.62 236.352C2680.94 237.5 2682.44 238.391 2684.12 239.023C2685.81 239.68 2687.64 240.008 2689.61 240.008C2694.6 240.008 2698.29 238.566 2700.68 235.684C2703.1 232.824 2704.3 229.004 2704.3 224.223V222.395C2702.73 224.059 2700.85 225.359 2698.64 226.297C2696.44 227.234 2694.05 227.703 2691.47 227.703ZM2679.7 209.422C2679.7 211.906 2680.22 214.133 2681.28 216.102C2682.36 218.07 2683.82 219.617 2685.67 220.742C2687.52 221.867 2689.63 222.43 2692 222.43C2694.37 222.43 2696.48 221.867 2698.33 220.742C2700.18 219.617 2701.63 218.07 2702.69 216.102C2703.77 214.133 2704.3 211.906 2704.3 209.422C2704.3 206.914 2703.77 204.688 2702.69 202.742C2701.63 200.773 2700.18 199.227 2698.33 198.102C2696.48 196.977 2694.37 196.414 2692 196.414C2689.63 196.414 2687.52 196.977 2685.67 198.102C2683.82 199.227 2682.36 200.773 2681.28 202.742C2680.22 204.688 2679.7 206.914 2679.7 209.422Z" fill="#303030"/>
</svg>
