<svg xmlns="http://www.w3.org/2000/svg" viewBox="0 0 373.32 280.41"><defs><style>.cls-1{fill:#47ad9c;}.cls-2{fill:#fff;}</style></defs><g id="Layer_2" data-name="Layer 2"><g id="Layer_1-2" data-name="Layer 1"><path class="cls-1" d="M161,170.35H78.33a5,5,0,0,0-4.64,3.13L59.61,208.3A5,5,0,0,1,55,211.43H5a5,5,0,0,1-4.58-7L89.35,3a5,5,0,0,1,4.57-3h52.39a5,5,0,0,1,4.57,3L243.2,211.43H181l-15.35-38A5,5,0,0,0,161,170.35Zm-14.15-44.1L119.66,58.6,92.48,126.25Z"/><path class="cls-2" d="M229.52,266.81A101.56,101.56,0,0,1,189.33,229q-14.61-24.26-14.61-55t14.61-55A101.63,101.63,0,0,1,229.52,81.2q25.57-13.59,57.73-13.59,28.06,0,50.57,9.94a97.47,97.47,0,0,1,34.27,24.89,5,5,0,0,1-.43,7l-29.5,26.69a5,5,0,0,1-7-.28q-18.93-20.3-45-20.29-16.67,0-29.67,7.3a50.74,50.74,0,0,0-20.17,20.61q-7.17,13.31-7.16,30.55t7.16,30.54a50.62,50.62,0,0,0,20.17,20.61q13,7.31,29.67,7.31,26.08,0,45-20.29a5,5,0,0,1,7-.28l29.5,26.69a5,5,0,0,1,.43,7,97.37,97.37,0,0,1-34.27,24.9q-22.51,9.93-50.57,9.94Q255.09,280.41,229.52,266.81Z"/></g></g></svg>